{
	"asset":{
		"generator":"Khronos glTF Blender I/O v4.5.47",
		"version":"2.0"
	},
	"extensionsUsed":[
		"KHR_lights_punctual"
	],
	"extensionsRequired":[
		"KHR_lights_punctual"
	],
	"extensions":{
		"KHR_lights_punctual":{
			"lights":[
				{
					"color":[
						1,
						1,
						1
					],
					"intensity":89.15981010014927,
					"type":"point",
					"name":"Light"
				},
				{
					"color":[
						1,
						1,
						1
					],
					"intensity":10776.601860029356,
					"type":"point",
					"name":"Light.001"
				}
			]
		}
	},
	"scene":0,
	"scenes":[
		{
			"extras":{
				"univ_settings":{},
				"ps_scene_data":{}
			},
			"name":"Scene",
			"nodes":[
				0,
				1,
				2,
				3,
				4,
				5,
				6,
				7,
				8,
				9,
				10,
				11,
				12,
				13,
				14,
				15,
				16,
				17,
				18,
				19
			]
		}
	],
	"nodes":[
		{
			"extensions":{
				"KHR_lights_punctual":{
					"light":0
				}
			},
			"name":"Light",
			"rotation":[
				-0.28416627645492554,
				0.7269423007965088,
				0.34203392267227173,
				0.5232754945755005
			],
			"translation":[
				4.076245307922363,
				13.221494674682617,
				9.07390022277832
			]
		},
		{
			"camera":0,
			"name":"Camera",
			"rotation":[
				-0.20997299253940582,
				0.3857799470424652,
				0.09062844514846802,
				0.8937962055206299
			],
			"translation":[
				7.358891487121582,
				4.958309173583984,
				6.925790786743164
			]
		},
		{
			"extensions":{
				"KHR_lights_punctual":{
					"light":1
				}
			},
			"name":"Light.001",
			"rotation":[
				-0.28416627645492554,
				0.7269423007965088,
				0.34203392267227173,
				0.5232754945755005
			],
			"translation":[
				4.076245307922363,
				13.221494674682617,
				-14.265596389770508
			]
		},
		{
			"mesh":0,
			"name":"Cylinder.001",
			"rotation":[
				0,
				0,
				-0.7071068286895752,
				0.7071068286895752
			],
			"translation":[
				0,
				5,
				14.558073997497559
			]
		},
		{
			"mesh":1,
			"name":"Cube.002",
			"translation":[
				0,
				-2,
				11.558073997497559
			]
		},
		{
			"mesh":2,
			"name":"Cube.006",
			"translation":[
				0,
				-2,
				46.42873764038086
			]
		},
		{
			"mesh":3,
			"name":"Cylinder.004",
			"rotation":[
				0,
				0,
				-0.7071068286895752,
				0.7071068286895752
			],
			"translation":[
				0,
				5,
				43.42873764038086
			]
		},
		{
			"mesh":4,
			"name":"Cube.007",
			"translation":[
				0,
				-2,
				40.42873764038086
			]
		},
		{
			"mesh":5,
			"name":"Cylinder.005",
			"rotation":[
				0,
				0,
				-0.7071068286895752,
				0.7071068286895752
			],
			"translation":[
				0,
				5,
				37.428741455078125
			]
		},
		{
			"mesh":6,
			"name":"Cube.008",
			"translation":[
				0,
				-2,
				34.428741455078125
			]
		},
		{
			"mesh":7,
			"name":"Cube.003"
		},
		{
			"mesh":8,
			"name":"Cube.001",
			"translation":[
				0,
				-2,
				17.558074951171875
			]
		},
		{
			"mesh":9,
			"name":"Cube.004",
			"translation":[
				0,
				-2,
				23.558074951171875
			]
		},
		{
			"mesh":10,
			"name":"Cylinder.002",
			"rotation":[
				0,
				0,
				-0.7071068286895752,
				0.7071068286895752
			],
			"translation":[
				0,
				5,
				20.558074951171875
			]
		},
		{
			"mesh":11,
			"name":"Cylinder.003",
			"rotation":[
				0,
				0,
				-0.7071068286895752,
				0.7071068286895752
			],
			"translation":[
				0,
				5,
				14.558073997497559
			]
		},
		{
			"mesh":12,
			"name":"Cube.005",
			"translation":[
				0,
				-2,
				11.558073997497559
			]
		},
		{
			"mesh":13,
			"name":"Cube.009",
			"translation":[
				0,
				-2,
				17.558074951171875
			]
		},
		{
			"mesh":14,
			"name":"Cube.010",
			"translation":[
				0,
				-2,
				23.558074951171875
			]
		},
		{
			"mesh":15,
			"name":"Cylinder.006",
			"rotation":[
				0,
				0,
				-0.7071068286895752,
				0.7071068286895752
			],
			"translation":[
				0,
				5,
				20.558074951171875
			]
		},
		{
			"mesh":16,
			"name":"Cube.011",
			"translation":[
				0,
				-2,
				-8.441926002502441
			]
		}
	],
	"cameras":[
		{
			"name":"Camera",
			"perspective":{
				"aspectRatio":1.7777777777777777,
				"yfov":0.39959652046304894,
				"zfar":100,
				"znear":0.10000000149011612
			},
			"type":"perspective"
		}
	],
	"materials":[
		{
			"doubleSided":true,
			"extras":{
				"ps_mat_data":{}
			},
			"name":"Material",
			"pbrMetallicRoughness":{
				"metallicFactor":0
			}
		}
	],
	"meshes":[
		{
			"name":"Cylinder.003",
			"primitives":[
				{
					"attributes":{
						"POSITION":0,
						"NORMAL":1,
						"TEXCOORD_0":2
					},
					"indices":3,
					"material":0
				}
			]
		},
		{
			"name":"Cube.004",
			"primitives":[
				{
					"attributes":{
						"POSITION":4,
						"NORMAL":5,
						"TEXCOORD_0":6,
						"TANGENT":7
					},
					"indices":8,
					"material":0
				}
			]
		},
		{
			"name":"Cube.001",
			"primitives":[
				{
					"attributes":{
						"POSITION":9,
						"NORMAL":10,
						"TEXCOORD_0":11,
						"TANGENT":12
					},
					"indices":13,
					"material":0
				}
			]
		},
		{
			"name":"Cylinder.001",
			"primitives":[
				{
					"attributes":{
						"POSITION":14,
						"NORMAL":15,
						"TEXCOORD_0":16
					},
					"indices":17
				}
			]
		},
		{
			"name":"Cube.002",
			"primitives":[
				{
					"attributes":{
						"POSITION":18,
						"NORMAL":19,
						"TEXCOORD_0":20
					},
					"indices":21,
					"material":0
				}
			]
		},
		{
			"name":"Cylinder.002",
			"primitives":[
				{
					"attributes":{
						"POSITION":22,
						"NORMAL":23,
						"TEXCOORD_0":24
					},
					"indices":25
				}
			]
		},
		{
			"name":"Cube.008",
			"primitives":[
				{
					"attributes":{
						"POSITION":26,
						"NORMAL":27,
						"TEXCOORD_0":28,
						"TANGENT":29
					},
					"indices":13,
					"material":0
				}
			]
		},
		{
			"name":"Cube.009",
			"primitives":[
				{
					"attributes":{
						"POSITION":30,
						"NORMAL":31,
						"TEXCOORD_0":32,
						"TANGENT":33
					},
					"indices":34,
					"material":0
				}
			]
		},
		{
			"name":"Cube.010",
			"primitives":[
				{
					"attributes":{
						"POSITION":35,
						"NORMAL":36,
						"TEXCOORD_0":37,
						"TANGENT":38
					},
					"indices":8,
					"material":0
				}
			]
		},
		{
			"name":"Cube.011",
			"primitives":[
				{
					"attributes":{
						"POSITION":39,
						"NORMAL":40,
						"TEXCOORD_0":41,
						"TANGENT":42
					},
					"indices":8,
					"material":0
				}
			]
		},
		{
			"name":"Cylinder.006",
			"primitives":[
				{
					"attributes":{
						"POSITION":43,
						"NORMAL":44,
						"TEXCOORD_0":45
					},
					"indices":3,
					"material":0
				}
			]
		},
		{
			"name":"Cylinder.007",
			"primitives":[
				{
					"attributes":{
						"POSITION":46,
						"NORMAL":47,
						"TEXCOORD_0":48
					},
					"indices":3,
					"material":0
				}
			]
		},
		{
			"name":"Cube.012",
			"primitives":[
				{
					"attributes":{
						"POSITION":49,
						"NORMAL":50,
						"TEXCOORD_0":51,
						"TANGENT":52
					},
					"indices":8,
					"material":0
				}
			]
		},
		{
			"name":"Cube.013",
			"primitives":[
				{
					"attributes":{
						"POSITION":53,
						"NORMAL":54,
						"TEXCOORD_0":55,
						"TANGENT":56
					},
					"indices":8,
					"material":0
				}
			]
		},
		{
			"name":"Cube.014",
			"primitives":[
				{
					"attributes":{
						"POSITION":57,
						"NORMAL":58,
						"TEXCOORD_0":59,
						"TANGENT":60
					},
					"indices":8,
					"material":0
				}
			]
		},
		{
			"name":"Cylinder.008",
			"primitives":[
				{
					"attributes":{
						"POSITION":61,
						"NORMAL":62,
						"TEXCOORD_0":63
					},
					"indices":3,
					"material":0
				}
			]
		},
		{
			"name":"Cube.015",
			"primitives":[
				{
					"attributes":{
						"POSITION":64,
						"NORMAL":65,
						"TEXCOORD_0":66
					},
					"indices":67,
					"material":0
				}
			]
		}
	],
	"accessors":[
		{
			"bufferView":0,
			"componentType":5126,
			"count":839,
			"max":[
				0,
				1.194272756576538,
				4
			],
			"min":[
				-4.193337440490723,
				-1.194272756576538,
				-4
			],
			"type":"VEC3"
		},
		{
			"bufferView":1,
			"componentType":5126,
			"count":839,
			"type":"VEC3"
		},
		{
			"bufferView":2,
			"componentType":5126,
			"count":839,
			"type":"VEC2"
		},
		{
			"bufferView":3,
			"componentType":5123,
			"count":1701,
			"type":"SCALAR"
		},
		{
			"bufferView":4,
			"componentType":5126,
			"count":200,
			"max":[
				1.1252577304840088,
				7.285067081451416,
				1.1252577304840088
			],
			"min":[
				-1.1252577304840088,
				-1,
				-1.1252577304840088
			],
			"type":"VEC3"
		},
		{
			"bufferView":5,
			"componentType":5126,
			"count":200,
			"type":"VEC3"
		},
		{
			"bufferView":6,
			"componentType":5126,
			"count":200,
			"type":"VEC2"
		},
		{
			"bufferView":7,
			"componentType":5126,
			"count":200,
			"type":"VEC4"
		},
		{
			"bufferView":8,
			"componentType":5123,
			"count":396,
			"type":"SCALAR"
		},
		{
			"bufferView":9,
			"componentType":5126,
			"count":204,
			"max":[
				1.1252577304840088,
				7.285067081451416,
				1.1252577304840088
			],
			"min":[
				-1.1252577304840088,
				-1,
				-1.1252577304840088
			],
			"type":"VEC3"
		},
		{
			"bufferView":10,
			"componentType":5126,
			"count":204,
			"type":"VEC3"
		},
		{
			"bufferView":11,
			"componentType":5126,
			"count":204,
			"type":"VEC2"
		},
		{
			"bufferView":12,
			"componentType":5126,
			"count":204,
			"type":"VEC4"
		},
		{
			"bufferView":13,
			"componentType":5123,
			"count":396,
			"type":"SCALAR"
		},
		{
			"bufferView":14,
			"componentType":5126,
			"count":923,
			"max":[
				0,
				1.194272756576538,
				4
			],
			"min":[
				-4.193337440490723,
				-1.194272756576538,
				-4
			],
			"type":"VEC3"
		},
		{
			"bufferView":15,
			"componentType":5126,
			"count":923,
			"type":"VEC3"
		},
		{
			"bufferView":16,
			"componentType":5126,
			"count":923,
			"type":"VEC2"
		},
		{
			"bufferView":17,
			"componentType":5123,
			"count":1887,
			"type":"SCALAR"
		},
		{
			"bufferView":18,
			"componentType":5126,
			"count":298,
			"max":[
				1.1252577304840088,
				7.285067081451416,
				1.1252577304840088
			],
			"min":[
				-1.1252577304840088,
				-1,
				-1.1252577304840088
			],
			"type":"VEC3"
		},
		{
			"bufferView":19,
			"componentType":5126,
			"count":298,
			"type":"VEC3"
		},
		{
			"bufferView":20,
			"componentType":5126,
			"count":298,
			"type":"VEC2"
		},
		{
			"bufferView":21,
			"componentType":5123,
			"count":618,
			"type":"SCALAR"
		},
		{
			"bufferView":22,
			"componentType":5126,
			"count":872,
			"max":[
				0,
				1.194272756576538,
				4
			],
			"min":[
				-4.158911228179932,
				-1.194272756576538,
				-4
			],
			"type":"VEC3"
		},
		{
			"bufferView":23,
			"componentType":5126,
			"count":872,
			"type":"VEC3"
		},
		{
			"bufferView":24,
			"componentType":5126,
			"count":872,
			"type":"VEC2"
		},
		{
			"bufferView":25,
			"componentType":5123,
			"count":1788,
			"type":"SCALAR"
		},
		{
			"bufferView":26,
			"componentType":5126,
			"count":204,
			"max":[
				1.1252577304840088,
				7.285067081451416,
				1.1252577304840088
			],
			"min":[
				-1.1252577304840088,
				-1,
				-1.1252577304840088
			],
			"type":"VEC3"
		},
		{
			"bufferView":27,
			"componentType":5126,
			"count":204,
			"type":"VEC3"
		},
		{
			"bufferView":28,
			"componentType":5126,
			"count":204,
			"type":"VEC2"
		},
		{
			"bufferView":29,
			"componentType":5126,
			"count":204,
			"type":"VEC4"
		},
		{
			"bufferView":30,
			"componentType":5126,
			"count":24,
			"max":[
				1,
				1,
				1
			],
			"min":[
				-1,
				-1,
				-1
			],
			"type":"VEC3"
		},
		{
			"bufferView":31,
			"componentType":5126,
			"count":24,
			"type":"VEC3"
		},
		{
			"bufferView":32,
			"componentType":5126,
			"count":24,
			"type":"VEC2"
		},
		{
			"bufferView":33,
			"componentType":5126,
			"count":24,
			"type":"VEC4"
		},
		{
			"bufferView":34,
			"componentType":5123,
			"count":36,
			"type":"SCALAR"
		},
		{
			"bufferView":35,
			"componentType":5126,
			"count":200,
			"max":[
				1.1252577304840088,
				7.285067081451416,
				1.1252577304840088
			],
			"min":[
				-1.1252577304840088,
				-1,
				-1.1252577304840088
			],
			"type":"VEC3"
		},
		{
			"bufferView":36,
			"componentType":5126,
			"count":200,
			"type":"VEC3"
		},
		{
			"bufferView":37,
			"componentType":5126,
			"count":200,
			"type":"VEC2"
		},
		{
			"bufferView":38,
			"componentType":5126,
			"count":200,
			"type":"VEC4"
		},
		{
			"bufferView":39,
			"componentType":5126,
			"count":200,
			"max":[
				1.1252577304840088,
				7.285067081451416,
				1.1252577304840088
			],
			"min":[
				-1.1252577304840088,
				-1,
				-1.1252577304840088
			],
			"type":"VEC3"
		},
		{
			"bufferView":40,
			"componentType":5126,
			"count":200,
			"type":"VEC3"
		},
		{
			"bufferView":41,
			"componentType":5126,
			"count":200,
			"type":"VEC2"
		},
		{
			"bufferView":42,
			"componentType":5126,
			"count":200,
			"type":"VEC4"
		},
		{
			"bufferView":43,
			"componentType":5126,
			"count":839,
			"max":[
				0,
				1.194272756576538,
				4
			],
			"min":[
				-4.193337440490723,
				-1.194272756576538,
				-4
			],
			"type":"VEC3"
		},
		{
			"bufferView":44,
			"componentType":5126,
			"count":839,
			"type":"VEC3"
		},
		{
			"bufferView":45,
			"componentType":5126,
			"count":839,
			"type":"VEC2"
		},
		{
			"bufferView":46,
			"componentType":5126,
			"count":839,
			"max":[
				0,
				1.194272756576538,
				4
			],
			"min":[
				-4.193337440490723,
				-1.194272756576538,
				-4
			],
			"type":"VEC3"
		},
		{
			"bufferView":47,
			"componentType":5126,
			"count":839,
			"type":"VEC3"
		},
		{
			"bufferView":48,
			"componentType":5126,
			"count":839,
			"type":"VEC2"
		},
		{
			"bufferView":49,
			"componentType":5126,
			"count":200,
			"max":[
				1.1252577304840088,
				7.285067081451416,
				1.1252577304840088
			],
			"min":[
				-1.1252577304840088,
				-1,
				-1.1252577304840088
			],
			"type":"VEC3"
		},
		{
			"bufferView":50,
			"componentType":5126,
			"count":200,
			"type":"VEC3"
		},
		{
			"bufferView":51,
			"componentType":5126,
			"count":200,
			"type":"VEC2"
		},
		{
			"bufferView":52,
			"componentType":5126,
			"count":200,
			"type":"VEC4"
		},
		{
			"bufferView":53,
			"componentType":5126,
			"count":200,
			"max":[
				1.1252577304840088,
				7.285067081451416,
				1.1252577304840088
			],
			"min":[
				-1.1252577304840088,
				-1,
				-1.1252577304840088
			],
			"type":"VEC3"
		},
		{
			"bufferView":54,
			"componentType":5126,
			"count":200,
			"type":"VEC3"
		},
		{
			"bufferView":55,
			"componentType":5126,
			"count":200,
			"type":"VEC2"
		},
		{
			"bufferView":56,
			"componentType":5126,
			"count":200,
			"type":"VEC4"
		},
		{
			"bufferView":57,
			"componentType":5126,
			"count":200,
			"max":[
				1.1252577304840088,
				7.285067081451416,
				1.1252577304840088
			],
			"min":[
				-1.1252577304840088,
				-1,
				-1.1252577304840088
			],
			"type":"VEC3"
		},
		{
			"bufferView":58,
			"componentType":5126,
			"count":200,
			"type":"VEC3"
		},
		{
			"bufferView":59,
			"componentType":5126,
			"count":200,
			"type":"VEC2"
		},
		{
			"bufferView":60,
			"componentType":5126,
			"count":200,
			"type":"VEC4"
		},
		{
			"bufferView":61,
			"componentType":5126,
			"count":839,
			"max":[
				0,
				1.194272756576538,
				4
			],
			"min":[
				-4.193337440490723,
				-1.194272756576538,
				-4
			],
			"type":"VEC3"
		},
		{
			"bufferView":62,
			"componentType":5126,
			"count":839,
			"type":"VEC3"
		},
		{
			"bufferView":63,
			"componentType":5126,
			"count":839,
			"type":"VEC2"
		},
		{
			"bufferView":64,
			"componentType":5126,
			"count":2366,
			"max":[
				1.194272756576538,
				11.193337440490723,
				13.125258445739746
			],
			"min":[
				-1.194272756576538,
				-1,
				-1.1252577304840088
			],
			"type":"VEC3"
		},
		{
			"bufferView":65,
			"componentType":5126,
			"count":2366,
			"type":"VEC3"
		},
		{
			"bufferView":66,
			"componentType":5126,
			"count":2366,
			"type":"VEC2"
		},
		{
			"bufferView":67,
			"componentType":5123,
			"count":5202,
			"type":"SCALAR"
		}
	],
	"bufferViews":[
		{
			"buffer":0,
			"byteLength":10068,
			"byteOffset":0,
			"target":34962
		},
		{
			"buffer":0,
			"byteLength":10068,
			"byteOffset":10068,
			"target":34962
		},
		{
			"buffer":0,
			"byteLength":6712,
			"byteOffset":20136,
			"target":34962
		},
		{
			"buffer":0,
			"byteLength":3402,
			"byteOffset":26848,
			"target":34963
		},
		{
			"buffer":0,
			"byteLength":2400,
			"byteOffset":30252,
			"target":34962
		},
		{
			"buffer":0,
			"byteLength":2400,
			"byteOffset":32652,
			"target":34962
		},
		{
			"buffer":0,
			"byteLength":1600,
			"byteOffset":35052,
			"target":34962
		},
		{
			"buffer":0,
			"byteLength":3200,
			"byteOffset":36652,
			"target":34962
		},
		{
			"buffer":0,
			"byteLength":792,
			"byteOffset":39852,
			"target":34963
		},
		{
			"buffer":0,
			"byteLength":2448,
			"byteOffset":40644,
			"target":34962
		},
		{
			"buffer":0,
			"byteLength":2448,
			"byteOffset":43092,
			"target":34962
		},
		{
			"buffer":0,
			"byteLength":1632,
			"byteOffset":45540,
			"target":34962
		},
		{
			"buffer":0,
			"byteLength":3264,
			"byteOffset":47172,
			"target":34962
		},
		{
			"buffer":0,
			"byteLength":792,
			"byteOffset":50436,
			"target":34963
		},
		{
			"buffer":0,
			"byteLength":11076,
			"byteOffset":51228,
			"target":34962
		},
		{
			"buffer":0,
			"byteLength":11076,
			"byteOffset":62304,
			"target":34962
		},
		{
			"buffer":0,
			"byteLength":7384,
			"byteOffset":73380,
			"target":34962
		},
		{
			"buffer":0,
			"byteLength":3774,
			"byteOffset":80764,
			"target":34963
		},
		{
			"buffer":0,
			"byteLength":3576,
			"byteOffset":84540,
			"target":34962
		},
		{
			"buffer":0,
			"byteLength":3576,
			"byteOffset":88116,
			"target":34962
		},
		{
			"buffer":0,
			"byteLength":2384,
			"byteOffset":91692,
			"target":34962
		},
		{
			"buffer":0,
			"byteLength":1236,
			"byteOffset":94076,
			"target":34963
		},
		{
			"buffer":0,
			"byteLength":10464,
			"byteOffset":95312,
			"target":34962
		},
		{
			"buffer":0,
			"byteLength":10464,
			"byteOffset":105776,
			"target":34962
		},
		{
			"buffer":0,
			"byteLength":6976,
			"byteOffset":116240,
			"target":34962
		},
		{
			"buffer":0,
			"byteLength":3576,
			"byteOffset":123216,
			"target":34963
		},
		{
			"buffer":0,
			"byteLength":2448,
			"byteOffset":126792,
			"target":34962
		},
		{
			"buffer":0,
			"byteLength":2448,
			"byteOffset":129240,
			"target":34962
		},
		{
			"buffer":0,
			"byteLength":1632,
			"byteOffset":131688,
			"target":34962
		},
		{
			"buffer":0,
			"byteLength":3264,
			"byteOffset":133320,
			"target":34962
		},
		{
			"buffer":0,
			"byteLength":288,
			"byteOffset":136584,
			"target":34962
		},
		{
			"buffer":0,
			"byteLength":288,
			"byteOffset":136872,
			"target":34962
		},
		{
			"buffer":0,
			"byteLength":192,
			"byteOffset":137160,
			"target":34962
		},
		{
			"buffer":0,
			"byteLength":384,
			"byteOffset":137352,
			"target":34962
		},
		{
			"buffer":0,
			"byteLength":72,
			"byteOffset":137736,
			"target":34963
		},
		{
			"buffer":0,
			"byteLength":2400,
			"byteOffset":137808,
			"target":34962
		},
		{
			"buffer":0,
			"byteLength":2400,
			"byteOffset":140208,
			"target":34962
		},
		{
			"buffer":0,
			"byteLength":1600,
			"byteOffset":142608,
			"target":34962
		},
		{
			"buffer":0,
			"byteLength":3200,
			"byteOffset":144208,
			"target":34962
		},
		{
			"buffer":0,
			"byteLength":2400,
			"byteOffset":147408,
			"target":34962
		},
		{
			"buffer":0,
			"byteLength":2400,
			"byteOffset":149808,
			"target":34962
		},
		{
			"buffer":0,
			"byteLength":1600,
			"byteOffset":152208,
			"target":34962
		},
		{
			"buffer":0,
			"byteLength":3200,
			"byteOffset":153808,
			"target":34962
		},
		{
			"buffer":0,
			"byteLength":10068,
			"byteOffset":157008,
			"target":34962
		},
		{
			"buffer":0,
			"byteLength":10068,
			"byteOffset":167076,
			"target":34962
		},
		{
			"buffer":0,
			"byteLength":6712,
			"byteOffset":177144,
			"target":34962
		},
		{
			"buffer":0,
			"byteLength":10068,
			"byteOffset":183856,
			"target":34962
		},
		{
			"buffer":0,
			"byteLength":10068,
			"byteOffset":193924,
			"target":34962
		},
		{
			"buffer":0,
			"byteLength":6712,
			"byteOffset":203992,
			"target":34962
		},
		{
			"buffer":0,
			"byteLength":2400,
			"byteOffset":210704,
			"target":34962
		},
		{
			"buffer":0,
			"byteLength":2400,
			"byteOffset":213104,
			"target":34962
		},
		{
			"buffer":0,
			"byteLength":1600,
			"byteOffset":215504,
			"target":34962
		},
		{
			"buffer":0,
			"byteLength":3200,
			"byteOffset":217104,
			"target":34962
		},
		{
			"buffer":0,
			"byteLength":2400,
			"byteOffset":220304,
			"target":34962
		},
		{
			"buffer":0,
			"byteLength":2400,
			"byteOffset":222704,
			"target":34962
		},
		{
			"buffer":0,
			"byteLength":1600,
			"byteOffset":225104,
			"target":34962
		},
		{
			"buffer":0,
			"byteLength":3200,
			"byteOffset":226704,
			"target":34962
		},
		{
			"buffer":0,
			"byteLength":2400,
			"byteOffset":229904,
			"target":34962
		},
		{
			"buffer":0,
			"byteLength":2400,
			"byteOffset":232304,
			"target":34962
		},
		{
			"buffer":0,
			"byteLength":1600,
			"byteOffset":234704,
			"target":34962
		},
		{
			"buffer":0,
			"byteLength":3200,
			"byteOffset":236304,
			"target":34962
		},
		{
			"buffer":0,
			"byteLength":10068,
			"byteOffset":239504,
			"target":34962
		},
		{
			"buffer":0,
			"byteLength":10068,
			"byteOffset":249572,
			"target":34962
		},
		{
			"buffer":0,
			"byteLength":6712,
			"byteOffset":259640,
			"target":34962
		},
		{
			"buffer":0,
			"byteLength":28392,
			"byteOffset":266352,
			"target":34962
		},
		{
			"buffer":0,
			"byteLength":28392,
			"byteOffset":294744,
			"target":34962
		},
		{
			"buffer":0,
			"byteLength":18928,
			"byteOffset":323136,
			"target":34962
		},
		{
			"buffer":0,
			"byteLength":10404,
			"byteOffset":342064,
			"target":34963
		}
	],
	"buffers":[
		{
			"byteLength":352468,
			"uri":"arches_1-450865ad8e4a6e66744846493a2bf57a.bin"
		}
	]
}
