{
	"asset":{
		"generator":"Khronos glTF Blender I/O v4.5.47",
		"version":"2.0"
	},
	"extensionsUsed":[
		"KHR_lights_punctual",
		"KHR_texture_transform"
	],
	"extensionsRequired":[
		"KHR_lights_punctual",
		"KHR_texture_transform"
	],
	"extensions":{
		"KHR_lights_punctual":{
			"lights":[
				{
					"color":[
						1,
						1,
						1
					],
					"intensity":79.57747154594767,
					"type":"point",
					"name":"Light"
				}
			]
		}
	},
	"scene":0,
	"scenes":[
		{
			"extras":{
				"ps_scene_data":{},
				"univ_settings":{},
				"wfc_props":{
					"auto_save":1,
					"copy_modifiers":0,
					"remove_target_collection":1,
					"link_objects":1,
					"render_delay":0.0,
					"prefs_migrated":1,
					"collection_obj":{}
				},
				"td":{
					"units":0,
					"uv_space":"37.5000",
					"density":"0.729",
					"texture_size":0,
					"selected_faces":1,
					"checker_method":1,
					"checker_type":0,
					"checker_uv_scale":"1.0",
					"density_set":"1.28",
					"set_method":0,
					"rescale_anchor":0,
					"select_mode":0,
					"select_type":0,
					"select_value":"1.0",
					"select_threshold":"0.1",
					"bake_vc_mode":0,
					"bake_vc_auto_min_max":1,
					"bake_vc_min_td":"0.64",
					"bake_vc_max_td":"10.24",
					"bake_vc_show_gradient":0,
					"initialized":1
				}
			},
			"name":"Scene",
			"nodes":[
				0,
				1,
				2,
				3,
				4,
				5,
				6,
				7,
				8,
				9
			]
		}
	],
	"nodes":[
		{
			"mesh":0,
			"name":"Cube",
			"scale":[
				1.0180745124816895,
				0.31949248909950256,
				0.9441836476325989
			],
			"translation":[
				0.07419294118881226,
				-1.3195445537567139,
				14.622275352478027
			]
		},
		{
			"extensions":{
				"KHR_lights_punctual":{
					"light":0
				}
			},
			"name":"Light",
			"rotation":[
				-0.28416627645492554,
				0.7269423007965088,
				0.34203392267227173,
				0.5232754945755005
			],
			"translation":[
				4.076245307922363,
				5.903861999511719,
				-13.005454063415527
			]
		},
		{
			"camera":0,
			"name":"Camera",
			"rotation":[
				-0.20997299253940582,
				0.3857799470424652,
				0.09062844514846802,
				0.8937962055206299
			],
			"translation":[
				7.358891487121582,
				4.958309173583984,
				13.400247573852539
			]
		},
		{
			"mesh":1,
			"name":"missile",
			"rotation":[
				0,
				-0.3826834261417389,
				0,
				0.9238795638084412
			],
			"translation":[
				0.3725738525390625,
				0.9800785779953003,
				13.477270126342773
			]
		},
		{
			"mesh":2,
			"name":"shells",
			"scale":[
				0.3198622465133667,
				2.3979225158691406,
				2.8916194438934326
			],
			"translation":[
				-0.5260803699493408,
				0.5253698229789734,
				10.415409088134766
			]
		},
		{
			"mesh":3,
			"name":"wall_4m.001",
			"translation":[
				0,
				0,
				-15.917491912841797
			]
		},
		{
			"mesh":4,
			"name":"wall_4m.002",
			"translation":[
				0,
				0,
				-20
			]
		},
		{
			"mesh":5,
			"name":"wall_4m.003",
			"translation":[
				0,
				0,
				-24
			]
		},
		{
			"mesh":6,
			"name":"barricade",
			"scale":[
				0.5073615312576294,
				0.5073615312576294,
				1.9665088653564453
			],
			"translation":[
				0,
				0,
				-10.950750350952148
			]
		},
		{
			"mesh":7,
			"name":"concrete_floor",
			"scale":[
				2,
				0.23524677753448486,
				2
			],
			"translation":[
				0,
				0,
				-7.557219505310059
			]
		}
	],
	"cameras":[
		{
			"name":"Camera",
			"perspective":{
				"aspectRatio":1.7777777777777777,
				"yfov":0.39959652046304894,
				"zfar":100,
				"znear":0.10000000149011612
			},
			"type":"perspective"
		}
	],
	"materials":[
		{
			"doubleSided":true,
			"extras":{
				"ps_mat_data":{}
			},
			"name":"shell_casing",
			"pbrMetallicRoughness":{
				"metallicFactor":0.4399999976158142,
				"roughnessFactor":0.5
			}
		},
		{
			"doubleSided":true,
			"extras":{
				"ps_mat_data":{}
			},
			"name":"missile",
			"pbrMetallicRoughness":{
				"metallicFactor":0.7927272915840149
			}
		},
		{
			"doubleSided":true,
			"name":"shell",
			"pbrMetallicRoughness":{
				"metallicFactor":0
			}
		},
		{
			"doubleSided":true,
			"extras":{
				"ps_mat_data":{}
			},
			"name":"concrete_paneled",
			"pbrMetallicRoughness":{
				"baseColorTexture":{
					"extensions":{
						"KHR_texture_transform":{
							"offset":[
								8.099999904632561,
								1.00000026226834
							],
							"rotation":-1.5707963705062866,
							"scale":[
								6,
								6
							]
						}
					},
					"index":0
				},
				"metallicFactor":0,
				"roughnessFactor":0.692727267742157
			}
		},
		{
			"doubleSided":true,
			"extras":{
				"ps_mat_data":{}
			},
			"name":"concrete",
			"pbrMetallicRoughness":{
				"baseColorTexture":{
					"extensions":{
						"KHR_texture_transform":{
							"offset":[
								8.099999904632561,
								1.00000026226834
							],
							"rotation":-1.5707963705062866,
							"scale":[
								6,
								6
							]
						}
					},
					"index":1
				},
				"metallicFactor":0,
				"roughnessFactor":0.692727267742157
			}
		},
		{
			"doubleSided":true,
			"extras":{
				"ps_mat_data":{}
			},
			"name":"wall_cast_iron",
			"pbrMetallicRoughness":{
				"baseColorFactor":[
					0.14800971746444702,
					0.14800971746444702,
					0.14800971746444702,
					1
				],
				"metallicFactor":0,
				"roughnessFactor":0.9636363387107849
			}
		},
		{
			"doubleSided":true,
			"extras":{
				"ps_mat_data":{}
			},
			"name":"concrete_barrier",
			"pbrMetallicRoughness":{
				"baseColorTexture":{
					"extensions":{
						"KHR_texture_transform":{
							"offset":[
								8.099999904632561,
								1.00000026226834
							],
							"rotation":-1.5707963705062866,
							"scale":[
								6,
								6
							]
						}
					},
					"index":2
				},
				"metallicFactor":0,
				"roughnessFactor":0.692727267742157
			}
		},
		{
			"doubleSided":true,
			"extras":{
				"ps_mat_data":{}
			},
			"name":"floor_panel",
			"pbrMetallicRoughness":{
				"baseColorTexture":{
					"extensions":{
						"KHR_texture_transform":{
							"offset":[
								8.099999904632561,
								1.00000026226834
							],
							"rotation":-1.5707963705062866,
							"scale":[
								6,
								6
							]
						}
					},
					"index":3
				},
				"metallicFactor":0,
				"roughnessFactor":0.692727267742157
			}
		}
	],
	"meshes":[
		{
			"name":"Cube",
			"primitives":[
				{
					"attributes":{
						"POSITION":0,
						"NORMAL":1,
						"TEXCOORD_0":2,
						"TANGENT":3
					},
					"indices":4,
					"material":0
				}
			]
		},
		{
			"name":"Cylinder",
			"primitives":[
				{
					"attributes":{
						"POSITION":5,
						"NORMAL":6,
						"TEXCOORD_0":7
					},
					"indices":8,
					"material":1
				}
			]
		},
		{
			"name":"Cube.003",
			"primitives":[
				{
					"attributes":{
						"POSITION":9,
						"NORMAL":10,
						"TEXCOORD_0":11
					},
					"indices":12,
					"material":2
				},
				{
					"attributes":{
						"POSITION":13,
						"NORMAL":14,
						"TEXCOORD_0":15
					},
					"indices":16,
					"material":0
				}
			]
		},
		{
			"name":"Cube.014",
			"primitives":[
				{
					"attributes":{
						"POSITION":17,
						"NORMAL":18,
						"TEXCOORD_0":19
					},
					"indices":20,
					"material":3
				},
				{
					"attributes":{
						"POSITION":21,
						"NORMAL":22,
						"TEXCOORD_0":23
					},
					"indices":24,
					"material":4
				},
				{
					"attributes":{
						"POSITION":25,
						"NORMAL":26,
						"TEXCOORD_0":27
					},
					"indices":28,
					"material":5
				}
			]
		},
		{
			"name":"Cube.015",
			"primitives":[
				{
					"attributes":{
						"POSITION":29,
						"NORMAL":30,
						"TEXCOORD_0":31
					},
					"indices":20,
					"material":3
				},
				{
					"attributes":{
						"POSITION":32,
						"NORMAL":33,
						"TEXCOORD_0":34
					},
					"indices":24,
					"material":4
				},
				{
					"attributes":{
						"POSITION":35,
						"NORMAL":36,
						"TEXCOORD_0":37
					},
					"indices":28,
					"material":5
				}
			]
		},
		{
			"name":"Cube.016",
			"primitives":[
				{
					"attributes":{
						"POSITION":38,
						"NORMAL":39,
						"TEXCOORD_0":40
					},
					"indices":20,
					"material":3
				},
				{
					"attributes":{
						"POSITION":41,
						"NORMAL":42,
						"TEXCOORD_0":43
					},
					"indices":24,
					"material":4
				},
				{
					"attributes":{
						"POSITION":44,
						"NORMAL":45,
						"TEXCOORD_0":46
					},
					"indices":28,
					"material":5
				}
			]
		},
		{
			"name":"Cube.017",
			"primitives":[
				{
					"attributes":{
						"POSITION":47,
						"NORMAL":48,
						"TEXCOORD_0":49
					},
					"indices":50,
					"material":6
				}
			]
		},
		{
			"name":"Cube.001",
			"primitives":[
				{
					"attributes":{
						"POSITION":51,
						"NORMAL":52,
						"TEXCOORD_0":53,
						"TANGENT":54
					},
					"indices":55,
					"material":7
				}
			]
		}
	],
	"textures":[
		{
			"sampler":0,
			"source":0
		},
		{
			"sampler":0,
			"source":0
		},
		{
			"sampler":0,
			"source":0
		},
		{
			"sampler":0,
			"source":0
		}
	],
	"images":[
		{
			"mimeType":"image/jpeg",
			"name":"Texturelabs_Grunge_126M.jpg",
			"uri":"../../models/scenery/textures/Texturelabs_Grunge_126M.jpg"
		}
	],
	"accessors":[
		{
			"bufferView":0,
			"componentType":5126,
			"count":24,
			"max":[
				1,
				1,
				1
			],
			"min":[
				-1,
				-1,
				-1
			],
			"type":"VEC3"
		},
		{
			"bufferView":1,
			"componentType":5126,
			"count":24,
			"type":"VEC3"
		},
		{
			"bufferView":2,
			"componentType":5126,
			"count":24,
			"type":"VEC2"
		},
		{
			"bufferView":3,
			"componentType":5126,
			"count":24,
			"type":"VEC4"
		},
		{
			"bufferView":4,
			"componentType":5123,
			"count":36,
			"type":"SCALAR"
		},
		{
			"bufferView":5,
			"componentType":5126,
			"count":464,
			"max":[
				0.674170732498169,
				2.183119058609009,
				0.6741706728935242
			],
			"min":[
				-0.6741706132888794,
				-1,
				-0.6741706728935242
			],
			"type":"VEC3"
		},
		{
			"bufferView":6,
			"componentType":5126,
			"count":464,
			"type":"VEC3"
		},
		{
			"bufferView":7,
			"componentType":5126,
			"count":464,
			"type":"VEC2"
		},
		{
			"bufferView":8,
			"componentType":5123,
			"count":1524,
			"type":"SCALAR"
		},
		{
			"bufferView":9,
			"componentType":5126,
			"count":1516,
			"max":[
				6.677597522735596,
				0.3363434672355652,
				0.2984107434749603
			],
			"min":[
				-2.1767349243164062,
				-0.30558663606643677,
				-0.2984107434749603
			],
			"type":"VEC3"
		},
		{
			"bufferView":10,
			"componentType":5126,
			"count":1516,
			"type":"VEC3"
		},
		{
			"bufferView":11,
			"componentType":5126,
			"count":1516,
			"type":"VEC2"
		},
		{
			"bufferView":12,
			"componentType":5123,
			"count":6795,
			"type":"SCALAR"
		},
		{
			"bufferView":13,
			"componentType":5126,
			"count":385,
			"max":[
				3.640000343322754,
				0.36252620816230774,
				0.31233832240104675
			],
			"min":[
				-0.2800000309944153,
				-0.32555997371673584,
				-0.31233832240104675
			],
			"type":"VEC3"
		},
		{
			"bufferView":14,
			"componentType":5126,
			"count":385,
			"type":"VEC3"
		},
		{
			"bufferView":15,
			"componentType":5126,
			"count":385,
			"type":"VEC2"
		},
		{
			"bufferView":16,
			"componentType":5123,
			"count":963,
			"type":"SCALAR"
		},
		{
			"bufferView":17,
			"componentType":5126,
			"count":144,
			"max":[
				0.5757336020469666,
				3.758476495742798,
				2
			],
			"min":[
				-0.5,
				-0.5,
				-2
			],
			"type":"VEC3"
		},
		{
			"bufferView":18,
			"componentType":5126,
			"count":144,
			"type":"VEC3"
		},
		{
			"bufferView":19,
			"componentType":5126,
			"count":144,
			"type":"VEC2"
		},
		{
			"bufferView":20,
			"componentType":5123,
			"count":297,
			"type":"SCALAR"
		},
		{
			"bufferView":21,
			"componentType":5126,
			"count":56,
			"max":[
				0.5757336020469666,
				3.758476495742798,
				2
			],
			"min":[
				-0.22172421216964722,
				3.144986152648926,
				-1.5038979053497314
			],
			"type":"VEC3"
		},
		{
			"bufferView":22,
			"componentType":5126,
			"count":56,
			"type":"VEC3"
		},
		{
			"bufferView":23,
			"componentType":5126,
			"count":56,
			"type":"VEC2"
		},
		{
			"bufferView":24,
			"componentType":5123,
			"count":84,
			"type":"SCALAR"
		},
		{
			"bufferView":25,
			"componentType":5126,
			"count":237,
			"max":[
				0.6631305813789368,
				3.8226051330566406,
				1.9038982391357422
			],
			"min":[
				-0.5873969793319702,
				-0.5,
				-1.903898000717163
			],
			"type":"VEC3"
		},
		{
			"bufferView":26,
			"componentType":5126,
			"count":237,
			"type":"VEC3"
		},
		{
			"bufferView":27,
			"componentType":5126,
			"count":237,
			"type":"VEC2"
		},
		{
			"bufferView":28,
			"componentType":5123,
			"count":507,
			"type":"SCALAR"
		},
		{
			"bufferView":29,
			"componentType":5126,
			"count":144,
			"max":[
				0.5757336020469666,
				3.758476495742798,
				2
			],
			"min":[
				-0.5,
				-0.5,
				-2
			],
			"type":"VEC3"
		},
		{
			"bufferView":30,
			"componentType":5126,
			"count":144,
			"type":"VEC3"
		},
		{
			"bufferView":31,
			"componentType":5126,
			"count":144,
			"type":"VEC2"
		},
		{
			"bufferView":32,
			"componentType":5126,
			"count":56,
			"max":[
				0.5757336020469666,
				3.758476495742798,
				2
			],
			"min":[
				-0.22172421216964722,
				3.144986152648926,
				-1.5038979053497314
			],
			"type":"VEC3"
		},
		{
			"bufferView":33,
			"componentType":5126,
			"count":56,
			"type":"VEC3"
		},
		{
			"bufferView":34,
			"componentType":5126,
			"count":56,
			"type":"VEC2"
		},
		{
			"bufferView":35,
			"componentType":5126,
			"count":237,
			"max":[
				0.6631305813789368,
				3.8226051330566406,
				1.9038982391357422
			],
			"min":[
				-0.5873969793319702,
				-0.5,
				-1.903898000717163
			],
			"type":"VEC3"
		},
		{
			"bufferView":36,
			"componentType":5126,
			"count":237,
			"type":"VEC3"
		},
		{
			"bufferView":37,
			"componentType":5126,
			"count":237,
			"type":"VEC2"
		},
		{
			"bufferView":38,
			"componentType":5126,
			"count":144,
			"max":[
				0.5757336020469666,
				3.758476495742798,
				2
			],
			"min":[
				-0.5,
				-0.5,
				-2
			],
			"type":"VEC3"
		},
		{
			"bufferView":39,
			"componentType":5126,
			"count":144,
			"type":"VEC3"
		},
		{
			"bufferView":40,
			"componentType":5126,
			"count":144,
			"type":"VEC2"
		},
		{
			"bufferView":41,
			"componentType":5126,
			"count":56,
			"max":[
				0.5757336020469666,
				3.758476495742798,
				2
			],
			"min":[
				-0.22172421216964722,
				3.144986152648926,
				-1.5038979053497314
			],
			"type":"VEC3"
		},
		{
			"bufferView":42,
			"componentType":5126,
			"count":56,
			"type":"VEC3"
		},
		{
			"bufferView":43,
			"componentType":5126,
			"count":56,
			"type":"VEC2"
		},
		{
			"bufferView":44,
			"componentType":5126,
			"count":237,
			"max":[
				0.6631305813789368,
				3.8226051330566406,
				1.9038982391357422
			],
			"min":[
				-0.5873969793319702,
				-0.5,
				-1.903898000717163
			],
			"type":"VEC3"
		},
		{
			"bufferView":45,
			"componentType":5126,
			"count":237,
			"type":"VEC3"
		},
		{
			"bufferView":46,
			"componentType":5126,
			"count":237,
			"type":"VEC2"
		},
		{
			"bufferView":47,
			"componentType":5126,
			"count":128,
			"max":[
				0.5399674773216248,
				1.3295482397079468,
				0.4999999403953552
			],
			"min":[
				-0.5399674773216248,
				-0.6854109168052673,
				-0.4999999403953552
			],
			"type":"VEC3"
		},
		{
			"bufferView":48,
			"componentType":5126,
			"count":128,
			"type":"VEC3"
		},
		{
			"bufferView":49,
			"componentType":5126,
			"count":128,
			"type":"VEC2"
		},
		{
			"bufferView":50,
			"componentType":5123,
			"count":228,
			"type":"SCALAR"
		},
		{
			"bufferView":51,
			"componentType":5126,
			"count":24,
			"max":[
				1,
				1,
				1
			],
			"min":[
				-1,
				-1,
				-1
			],
			"type":"VEC3"
		},
		{
			"bufferView":52,
			"componentType":5126,
			"count":24,
			"type":"VEC3"
		},
		{
			"bufferView":53,
			"componentType":5126,
			"count":24,
			"type":"VEC2"
		},
		{
			"bufferView":54,
			"componentType":5126,
			"count":24,
			"type":"VEC4"
		},
		{
			"bufferView":55,
			"componentType":5123,
			"count":36,
			"type":"SCALAR"
		}
	],
	"bufferViews":[
		{
			"buffer":0,
			"byteLength":288,
			"byteOffset":0,
			"target":34962
		},
		{
			"buffer":0,
			"byteLength":288,
			"byteOffset":288,
			"target":34962
		},
		{
			"buffer":0,
			"byteLength":192,
			"byteOffset":576,
			"target":34962
		},
		{
			"buffer":0,
			"byteLength":384,
			"byteOffset":768,
			"target":34962
		},
		{
			"buffer":0,
			"byteLength":72,
			"byteOffset":1152,
			"target":34963
		},
		{
			"buffer":0,
			"byteLength":5568,
			"byteOffset":1224,
			"target":34962
		},
		{
			"buffer":0,
			"byteLength":5568,
			"byteOffset":6792,
			"target":34962
		},
		{
			"buffer":0,
			"byteLength":3712,
			"byteOffset":12360,
			"target":34962
		},
		{
			"buffer":0,
			"byteLength":3048,
			"byteOffset":16072,
			"target":34963
		},
		{
			"buffer":0,
			"byteLength":18192,
			"byteOffset":19120,
			"target":34962
		},
		{
			"buffer":0,
			"byteLength":18192,
			"byteOffset":37312,
			"target":34962
		},
		{
			"buffer":0,
			"byteLength":12128,
			"byteOffset":55504,
			"target":34962
		},
		{
			"buffer":0,
			"byteLength":13590,
			"byteOffset":67632,
			"target":34963
		},
		{
			"buffer":0,
			"byteLength":4620,
			"byteOffset":81224,
			"target":34962
		},
		{
			"buffer":0,
			"byteLength":4620,
			"byteOffset":85844,
			"target":34962
		},
		{
			"buffer":0,
			"byteLength":3080,
			"byteOffset":90464,
			"target":34962
		},
		{
			"buffer":0,
			"byteLength":1926,
			"byteOffset":93544,
			"target":34963
		},
		{
			"buffer":0,
			"byteLength":1728,
			"byteOffset":95472,
			"target":34962
		},
		{
			"buffer":0,
			"byteLength":1728,
			"byteOffset":97200,
			"target":34962
		},
		{
			"buffer":0,
			"byteLength":1152,
			"byteOffset":98928,
			"target":34962
		},
		{
			"buffer":0,
			"byteLength":594,
			"byteOffset":100080,
			"target":34963
		},
		{
			"buffer":0,
			"byteLength":672,
			"byteOffset":100676,
			"target":34962
		},
		{
			"buffer":0,
			"byteLength":672,
			"byteOffset":101348,
			"target":34962
		},
		{
			"buffer":0,
			"byteLength":448,
			"byteOffset":102020,
			"target":34962
		},
		{
			"buffer":0,
			"byteLength":168,
			"byteOffset":102468,
			"target":34963
		},
		{
			"buffer":0,
			"byteLength":2844,
			"byteOffset":102636,
			"target":34962
		},
		{
			"buffer":0,
			"byteLength":2844,
			"byteOffset":105480,
			"target":34962
		},
		{
			"buffer":0,
			"byteLength":1896,
			"byteOffset":108324,
			"target":34962
		},
		{
			"buffer":0,
			"byteLength":1014,
			"byteOffset":110220,
			"target":34963
		},
		{
			"buffer":0,
			"byteLength":1728,
			"byteOffset":111236,
			"target":34962
		},
		{
			"buffer":0,
			"byteLength":1728,
			"byteOffset":112964,
			"target":34962
		},
		{
			"buffer":0,
			"byteLength":1152,
			"byteOffset":114692,
			"target":34962
		},
		{
			"buffer":0,
			"byteLength":672,
			"byteOffset":115844,
			"target":34962
		},
		{
			"buffer":0,
			"byteLength":672,
			"byteOffset":116516,
			"target":34962
		},
		{
			"buffer":0,
			"byteLength":448,
			"byteOffset":117188,
			"target":34962
		},
		{
			"buffer":0,
			"byteLength":2844,
			"byteOffset":117636,
			"target":34962
		},
		{
			"buffer":0,
			"byteLength":2844,
			"byteOffset":120480,
			"target":34962
		},
		{
			"buffer":0,
			"byteLength":1896,
			"byteOffset":123324,
			"target":34962
		},
		{
			"buffer":0,
			"byteLength":1728,
			"byteOffset":125220,
			"target":34962
		},
		{
			"buffer":0,
			"byteLength":1728,
			"byteOffset":126948,
			"target":34962
		},
		{
			"buffer":0,
			"byteLength":1152,
			"byteOffset":128676,
			"target":34962
		},
		{
			"buffer":0,
			"byteLength":672,
			"byteOffset":129828,
			"target":34962
		},
		{
			"buffer":0,
			"byteLength":672,
			"byteOffset":130500,
			"target":34962
		},
		{
			"buffer":0,
			"byteLength":448,
			"byteOffset":131172,
			"target":34962
		},
		{
			"buffer":0,
			"byteLength":2844,
			"byteOffset":131620,
			"target":34962
		},
		{
			"buffer":0,
			"byteLength":2844,
			"byteOffset":134464,
			"target":34962
		},
		{
			"buffer":0,
			"byteLength":1896,
			"byteOffset":137308,
			"target":34962
		},
		{
			"buffer":0,
			"byteLength":1536,
			"byteOffset":139204,
			"target":34962
		},
		{
			"buffer":0,
			"byteLength":1536,
			"byteOffset":140740,
			"target":34962
		},
		{
			"buffer":0,
			"byteLength":1024,
			"byteOffset":142276,
			"target":34962
		},
		{
			"buffer":0,
			"byteLength":456,
			"byteOffset":143300,
			"target":34963
		},
		{
			"buffer":0,
			"byteLength":288,
			"byteOffset":143756,
			"target":34962
		},
		{
			"buffer":0,
			"byteLength":288,
			"byteOffset":144044,
			"target":34962
		},
		{
			"buffer":0,
			"byteLength":192,
			"byteOffset":144332,
			"target":34962
		},
		{
			"buffer":0,
			"byteLength":384,
			"byteOffset":144524,
			"target":34962
		},
		{
			"buffer":0,
			"byteLength":72,
			"byteOffset":144908,
			"target":34963
		}
	],
	"samplers":[
		{
			"magFilter":9729,
			"minFilter":9987
		}
	],
	"buffers":[
		{
			"byteLength":144980,
			"uri":"base_assets-9e4c85316008b18d936a4fec4dc371cf.bin"
		}
	]
}
