{
	"asset":{
		"generator":"Khronos glTF Blender I/O v4.5.47",
		"version":"2.0"
	},
	"scene":0,
	"scenes":[
		{
			"extras":{
				"ps_scene_data":{},
				"univ_settings":{}
			},
			"name":"Scene",
			"nodes":[
				0
			]
		}
	],
	"nodes":[
		{
			"mesh":0,
			"name":"wall_4m"
		}
	],
	"materials":[
		{
			"doubleSided":true,
			"extras":{
				"ps_mat_data":{}
			},
			"name":"wall_mat",
			"pbrMetallicRoughness":{
				"metallicFactor":0,
				"roughnessFactor":0.6418181657791138
			}
		}
	],
	"meshes":[
		{
			"name":"Cube.005",
			"primitives":[
				{
					"attributes":{
						"POSITION":0,
						"NORMAL":1,
						"TEXCOORD_0":2
					},
					"indices":3,
					"material":0
				}
			]
		}
	],
	"accessors":[
		{
			"bufferView":0,
			"componentType":5126,
			"count":437,
			"max":[
				0.6631305813789368,
				4.322605133056641,
				2
			],
			"min":[
				-0.5873969793319702,
				0,
				-2
			],
			"type":"VEC3"
		},
		{
			"bufferView":1,
			"componentType":5126,
			"count":437,
			"type":"VEC3"
		},
		{
			"bufferView":2,
			"componentType":5126,
			"count":437,
			"type":"VEC2"
		},
		{
			"bufferView":3,
			"componentType":5123,
			"count":888,
			"type":"SCALAR"
		}
	],
	"bufferViews":[
		{
			"buffer":0,
			"byteLength":5244,
			"byteOffset":0,
			"target":34962
		},
		{
			"buffer":0,
			"byteLength":5244,
			"byteOffset":5244,
			"target":34962
		},
		{
			"buffer":0,
			"byteLength":3496,
			"byteOffset":10488,
			"target":34962
		},
		{
			"buffer":0,
			"byteLength":1776,
			"byteOffset":13984,
			"target":34963
		}
	],
	"buffers":[
		{
			"byteLength":15760,
			"uri":"base_wall-274de2628913713bc0cb4a82fa8bc272.bin"
		}
	]
}
