{
	"asset":{
		"generator":"Khronos glTF Blender I/O v4.5.47",
		"version":"2.0"
	},
	"scene":0,
	"scenes":[
		{
			"extras":{
				"ps_scene_data":{},
				"univ_settings":{},
				"wfc_props":{
					"auto_save":1,
					"copy_modifiers":0,
					"remove_target_collection":1,
					"link_objects":1,
					"render_delay":0.0,
					"prefs_migrated":1,
					"collection_obj":{}
				},
				"td":{
					"units":0,
					"uv_space":"0",
					"density":"0",
					"texture_size":0,
					"selected_faces":1,
					"checker_method":1,
					"checker_type":0,
					"checker_uv_scale":"1.0",
					"density_set":"1.28",
					"set_method":0,
					"rescale_anchor":0,
					"select_mode":0,
					"select_type":0,
					"select_value":"1.0",
					"select_threshold":"0.1",
					"bake_vc_mode":0,
					"bake_vc_auto_min_max":1,
					"bake_vc_min_td":"0.64",
					"bake_vc_max_td":"10.24",
					"bake_vc_show_gradient":0,
					"initialized":1
				}
			},
			"name":"Scene",
			"nodes":[
				0,
				1,
				2
			]
		}
	],
	"nodes":[
		{
			"mesh":0,
			"name":"_base"
		},
		{
			"mesh":1,
			"name":"_gun"
		},
		{
			"mesh":2,
			"name":"_support"
		}
	],
	"meshes":[
		{
			"name":"Untitled",
			"primitives":[
				{
					"attributes":{
						"POSITION":0,
						"NORMAL":1
					},
					"indices":2
				}
			]
		},
		{
			"name":"Untitled.001",
			"primitives":[
				{
					"attributes":{
						"POSITION":3,
						"NORMAL":4
					},
					"indices":5
				}
			]
		},
		{
			"name":"Untitled.003",
			"primitives":[
				{
					"attributes":{
						"POSITION":6,
						"NORMAL":7
					},
					"indices":8
				}
			]
		}
	],
	"accessors":[
		{
			"bufferView":0,
			"componentType":5126,
			"count":146,
			"max":[
				96,
				12,
				96
			],
			"min":[
				-96,
				0,
				-96
			],
			"type":"VEC3"
		},
		{
			"bufferView":1,
			"componentType":5126,
			"count":146,
			"type":"VEC3"
		},
		{
			"bufferView":2,
			"componentType":5123,
			"count":282,
			"type":"SCALAR"
		},
		{
			"bufferView":3,
			"componentType":5126,
			"count":1016,
			"max":[
				24,
				147.0993194580078,
				99.635009765625
			],
			"min":[
				-24,
				18.850261688232422,
				-202.4456024169922
			],
			"type":"VEC3"
		},
		{
			"bufferView":4,
			"componentType":5126,
			"count":1016,
			"type":"VEC3"
		},
		{
			"bufferView":5,
			"componentType":5123,
			"count":1989,
			"type":"SCALAR"
		},
		{
			"bufferView":6,
			"componentType":5126,
			"count":84,
			"max":[
				16,
				51.52461242675781,
				61.42719268798828
			],
			"min":[
				-16,
				9.518714904785156,
				-32.30219268798828
			],
			"type":"VEC3"
		},
		{
			"bufferView":7,
			"componentType":5126,
			"count":84,
			"type":"VEC3"
		},
		{
			"bufferView":8,
			"componentType":5123,
			"count":156,
			"type":"SCALAR"
		}
	],
	"bufferViews":[
		{
			"buffer":0,
			"byteLength":1752,
			"byteOffset":0,
			"target":34962
		},
		{
			"buffer":0,
			"byteLength":1752,
			"byteOffset":1752,
			"target":34962
		},
		{
			"buffer":0,
			"byteLength":564,
			"byteOffset":3504,
			"target":34963
		},
		{
			"buffer":0,
			"byteLength":12192,
			"byteOffset":4068,
			"target":34962
		},
		{
			"buffer":0,
			"byteLength":12192,
			"byteOffset":16260,
			"target":34962
		},
		{
			"buffer":0,
			"byteLength":3978,
			"byteOffset":28452,
			"target":34963
		},
		{
			"buffer":0,
			"byteLength":1008,
			"byteOffset":32432,
			"target":34962
		},
		{
			"buffer":0,
			"byteLength":1008,
			"byteOffset":33440,
			"target":34962
		},
		{
			"buffer":0,
			"byteLength":312,
			"byteOffset":34448,
			"target":34963
		}
	],
	"buffers":[
		{
			"byteLength":34760,
			"uri":"big_gun-f143f8eb37452105739289953429732b.bin"
		}
	]
}
