{
	"asset":{
		"generator":"Khronos glTF Blender I/O v4.5.47",
		"version":"2.0"
	},
	"extensionsUsed":[
		"KHR_lights_punctual"
	],
	"extensionsRequired":[
		"KHR_lights_punctual"
	],
	"extensions":{
		"KHR_lights_punctual":{
			"lights":[
				{
					"color":[
						1,
						1,
						1
					],
					"intensity":79.57747154594767,
					"type":"point",
					"name":"Light"
				}
			]
		}
	},
	"scene":0,
	"scenes":[
		{
			"extras":{
				"ps_scene_data":{}
			},
			"name":"Scene",
			"nodes":[
				0,
				1,
				2
			]
		}
	],
	"nodes":[
		{
			"extensions":{
				"KHR_lights_punctual":{
					"light":0
				}
			},
			"name":"Light",
			"rotation":[
				-0.28416627645492554,
				0.7269423007965088,
				0.34203392267227173,
				0.5232754945755005
			],
			"translation":[
				4.076245307922363,
				5.903861999511719,
				-1.0054539442062378
			]
		},
		{
			"camera":0,
			"name":"Camera",
			"rotation":[
				-0.20997299253940582,
				0.3857799470424652,
				0.09062844514846802,
				0.8937962055206299
			],
			"translation":[
				7.358891487121582,
				4.958309173583984,
				6.925790786743164
			]
		},
		{
			"mesh":0,
			"name":"Cylinder",
			"scale":[
				2.169121026992798,
				2.169121026992798,
				2.169121026992798
			]
		}
	],
	"cameras":[
		{
			"name":"Camera",
			"perspective":{
				"aspectRatio":1.7777777777777777,
				"yfov":0.39959652046304894,
				"zfar":100,
				"znear":0.10000000149011612
			},
			"type":"perspective"
		}
	],
	"materials":[
		{
			"doubleSided":true,
			"extras":{
				"ps_mat_data":{}
			},
			"name":"bricks",
			"pbrMetallicRoughness":{
				"metallicFactor":0,
				"roughnessFactor":0.9363636374473572
			}
		},
		{
			"doubleSided":true,
			"name":"black",
			"pbrMetallicRoughness":{
				"baseColorFactor":[
					0,
					0,
					0,
					1
				],
				"metallicFactor":0
			}
		}
	],
	"meshes":[
		{
			"name":"Cylinder",
			"primitives":[
				{
					"attributes":{
						"POSITION":0,
						"NORMAL":1,
						"TEXCOORD_0":2
					},
					"indices":3,
					"material":0
				},
				{
					"attributes":{
						"POSITION":4,
						"NORMAL":5,
						"TEXCOORD_0":6
					},
					"indices":7,
					"material":1
				}
			]
		}
	],
	"accessors":[
		{
			"bufferView":0,
			"componentType":5126,
			"count":1850,
			"max":[
				1.0097064971923828,
				6.92965841293335,
				1.0106167793273926
			],
			"min":[
				-1.009705901145935,
				-1,
				-1.0106167793273926
			],
			"type":"VEC3"
		},
		{
			"bufferView":1,
			"componentType":5126,
			"count":1850,
			"type":"VEC3"
		},
		{
			"bufferView":2,
			"componentType":5126,
			"count":1850,
			"type":"VEC2"
		},
		{
			"bufferView":3,
			"componentType":5123,
			"count":3324,
			"type":"SCALAR"
		},
		{
			"bufferView":4,
			"componentType":5126,
			"count":74,
			"max":[
				0.6746712923049927,
				5.250493049621582,
				0.6752781271934509
			],
			"min":[
				-0.6746680736541748,
				5.250493049621582,
				-0.6752781271934509
			],
			"type":"VEC3"
		},
		{
			"bufferView":5,
			"componentType":5126,
			"count":74,
			"type":"VEC3"
		},
		{
			"bufferView":6,
			"componentType":5126,
			"count":74,
			"type":"VEC2"
		},
		{
			"bufferView":7,
			"componentType":5123,
			"count":216,
			"type":"SCALAR"
		}
	],
	"bufferViews":[
		{
			"buffer":0,
			"byteLength":22200,
			"byteOffset":0,
			"target":34962
		},
		{
			"buffer":0,
			"byteLength":22200,
			"byteOffset":22200,
			"target":34962
		},
		{
			"buffer":0,
			"byteLength":14800,
			"byteOffset":44400,
			"target":34962
		},
		{
			"buffer":0,
			"byteLength":6648,
			"byteOffset":59200,
			"target":34963
		},
		{
			"buffer":0,
			"byteLength":888,
			"byteOffset":65848,
			"target":34962
		},
		{
			"buffer":0,
			"byteLength":888,
			"byteOffset":66736,
			"target":34962
		},
		{
			"buffer":0,
			"byteLength":592,
			"byteOffset":67624,
			"target":34962
		},
		{
			"buffer":0,
			"byteLength":432,
			"byteOffset":68216,
			"target":34963
		}
	],
	"buffers":[
		{
			"byteLength":68648,
			"uri":"factory_parts-c29d1acd5d840107a0824249998e247d.bin"
		}
	]
}
