{
	"asset":{
		"generator":"Khronos glTF Blender I/O v4.5.47",
		"version":"2.0"
	},
	"scene":0,
	"scenes":[
		{
			"extras":{
				"ps_scene_data":{}
			},
			"name":"Scene",
			"nodes":[
				2,
				6,
				9,
				11,
				13,
				17,
				20,
				24,
				26,
				28,
				29
			]
		}
	],
	"nodes":[
		{
			"mesh":0,
			"name":"Cube.001",
			"translation":[
				0,
				4.700000286102295,
				0
			]
		},
		{
			"mesh":1,
			"name":"Cube.002",
			"translation":[
				7.501223564147949,
				4.6668853759765625,
				-0.0013904571533203125
			]
		},
		{
			"children":[
				0,
				1
			],
			"mesh":2,
			"name":"tec9"
		},
		{
			"mesh":3,
			"name":"compensator",
			"translation":[
				19,
				0.09999999403953552,
				0
			]
		},
		{
			"mesh":4,
			"name":"Cube.003",
			"translation":[
				12,
				0.09999924898147583,
				0
			]
		},
		{
			"mesh":5,
			"name":"MAG",
			"translation":[
				1,
				-1.5,
				0
			]
		},
		{
			"children":[
				3,
				4,
				5
			],
			"mesh":6,
			"name":"FALcon4"
		},
		{
			"mesh":7,
			"name":"base",
			"translation":[
				0,
				0.40000009536743164,
				0
			]
		},
		{
			"mesh":8,
			"name":"fin",
			"translation":[
				3,
				-3,
				0
			]
		},
		{
			"children":[
				7,
				8
			],
			"mesh":9,
			"name":"piledriver"
		},
		{
			"mesh":10,
			"name":"Cube"
		},
		{
			"children":[
				10
			],
			"mesh":11,
			"name":"magnetohammer"
		},
		{
			"mesh":12,
			"name":"panel.002",
			"translation":[
				0,
				1.5,
				-4.199999809265137
			]
		},
		{
			"children":[
				12
			],
			"mesh":13,
			"name":"oildrum",
			"translation":[
				0,
				0,
				18
			]
		},
		{
			"mesh":14,
			"name":"panel.001",
			"translation":[
				2.969848394393921,
				1.5,
				-2.9698486328125
			]
		},
		{
			"mesh":15,
			"name":"panel.003",
			"translation":[
				2.969848394393921,
				-1.5,
				2.9698486328125
			]
		},
		{
			"mesh":16,
			"name":"ring",
			"translation":[
				0,
				-7,
				0
			]
		},
		{
			"children":[
				14,
				15,
				16
			],
			"mesh":17,
			"name":"drone",
			"translation":[
				0,
				0,
				18
			]
		},
		{
			"mesh":18,
			"name":"core.001",
			"translation":[
				7,
				0,
				0
			]
		},
		{
			"mesh":19,
			"name":"lasik2.001",
			"translation":[
				9.199999809265137,
				0,
				0
			]
		},
		{
			"children":[
				18,
				19
			],
			"mesh":20,
			"name":"lasik2"
		},
		{
			"mesh":21,
			"name":"core",
			"translation":[
				21,
				0,
				0
			]
		},
		{
			"mesh":22,
			"name":"lasik5.001",
			"translation":[
				11.199999809265137,
				0,
				0
			]
		},
		{
			"mesh":23,
			"name":"lasik5end",
			"translation":[
				25.19999885559082,
				0,
				0
			]
		},
		{
			"children":[
				21,
				22,
				23
			],
			"mesh":24,
			"name":"lasik5"
		},
		{
			"mesh":25,
			"name":"leads",
			"translation":[
				0,
				2.5999999046325684,
				0.5
			]
		},
		{
			"children":[
				25
			],
			"mesh":26,
			"name":"capacitor"
		},
		{
			"mesh":27,
			"name":"missile",
			"translation":[
				-1,
				4,
				-1.100000023841858
			]
		},
		{
			"children":[
				27
			],
			"mesh":28,
			"name":"missileRack"
		},
		{
			"mesh":29,
			"name":"arm",
			"scale":[
				0.19999998807907104,
				1,
				1
			]
		}
	],
	"materials":[
		{
			"alphaMode":"BLEND",
			"doubleSided":true,
			"extras":{
				"ps_mat_data":{}
			},
			"name":"metal",
			"pbrMetallicRoughness":{
				"metallicFactor":0.20000000298023224,
				"roughnessFactor":0.5
			}
		},
		{
			"doubleSided":true,
			"name":"plastic",
			"pbrMetallicRoughness":{
				"metallicFactor":0.20000000298023224,
				"roughnessFactor":0.800000011920929
			}
		},
		{
			"doubleSided":true,
			"name":"rubber",
			"pbrMetallicRoughness":{
				"metallicFactor":0.800000011920929,
				"roughnessFactor":0.15000000596046448
			}
		}
	],
	"meshes":[
		{
			"name":"Cube.003",
			"primitives":[
				{
					"attributes":{
						"POSITION":0,
						"NORMAL":1,
						"TEXCOORD_0":2
					},
					"indices":3,
					"material":0
				}
			]
		},
		{
			"name":"Cube.004",
			"primitives":[
				{
					"attributes":{
						"POSITION":4,
						"NORMAL":5,
						"TEXCOORD_0":6
					},
					"indices":7,
					"material":0
				}
			]
		},
		{
			"name":"Cube",
			"primitives":[
				{
					"attributes":{
						"POSITION":8,
						"NORMAL":9,
						"TEXCOORD_0":10
					},
					"indices":11,
					"material":0
				}
			]
		},
		{
			"name":"Cube.014",
			"primitives":[
				{
					"attributes":{
						"POSITION":12,
						"NORMAL":13,
						"TEXCOORD_0":14,
						"TANGENT":15
					},
					"indices":16,
					"material":0
				}
			]
		},
		{
			"name":"Cube.002",
			"primitives":[
				{
					"attributes":{
						"POSITION":17,
						"NORMAL":18,
						"TEXCOORD_0":19
					},
					"indices":20,
					"material":0
				}
			]
		},
		{
			"name":"Cube.013",
			"primitives":[
				{
					"attributes":{
						"POSITION":21,
						"NORMAL":22,
						"TEXCOORD_0":23,
						"TANGENT":24
					},
					"indices":25,
					"material":0
				}
			]
		},
		{
			"name":"Cube.001",
			"primitives":[
				{
					"attributes":{
						"POSITION":26,
						"NORMAL":27,
						"TEXCOORD_0":28
					},
					"indices":29,
					"material":1
				}
			]
		},
		{
			"name":"Cube.006",
			"primitives":[
				{
					"attributes":{
						"POSITION":30,
						"NORMAL":31,
						"TEXCOORD_0":32
					},
					"indices":33,
					"material":0
				}
			]
		},
		{
			"name":"Cube.007",
			"primitives":[
				{
					"attributes":{
						"POSITION":34,
						"NORMAL":35,
						"TEXCOORD_0":36,
						"TANGENT":37
					},
					"indices":38,
					"material":1
				}
			]
		},
		{
			"name":"Cube.005",
			"primitives":[
				{
					"attributes":{
						"POSITION":39,
						"NORMAL":40,
						"TEXCOORD_0":41
					},
					"indices":42,
					"material":0
				}
			]
		},
		{
			"name":"Cube.009",
			"primitives":[
				{
					"attributes":{
						"POSITION":43,
						"NORMAL":44,
						"TEXCOORD_0":45
					},
					"indices":46,
					"material":0
				}
			]
		},
		{
			"name":"Icosphere",
			"primitives":[
				{
					"attributes":{
						"POSITION":47,
						"NORMAL":48,
						"TEXCOORD_0":49
					},
					"indices":50,
					"material":1
				}
			]
		},
		{
			"name":"Cube.020",
			"primitives":[
				{
					"attributes":{
						"POSITION":51,
						"NORMAL":52,
						"TEXCOORD_0":53,
						"TANGENT":54
					},
					"indices":55,
					"material":0
				}
			]
		},
		{
			"name":"Cube.019",
			"primitives":[
				{
					"attributes":{
						"POSITION":56,
						"NORMAL":57,
						"TEXCOORD_0":58
					},
					"indices":59,
					"material":0
				}
			]
		},
		{
			"name":"Cube.010",
			"primitives":[
				{
					"attributes":{
						"POSITION":60,
						"NORMAL":61,
						"TEXCOORD_0":62,
						"TANGENT":63
					},
					"indices":64,
					"material":0
				}
			]
		},
		{
			"name":"Cube.012",
			"primitives":[
				{
					"attributes":{
						"POSITION":65,
						"NORMAL":66,
						"TEXCOORD_0":67,
						"TANGENT":68
					},
					"indices":69,
					"material":0
				}
			]
		},
		{
			"name":"Cube.022",
			"primitives":[
				{
					"attributes":{
						"POSITION":70,
						"NORMAL":71,
						"TEXCOORD_0":72,
						"TANGENT":73
					},
					"indices":74,
					"material":0
				}
			]
		},
		{
			"name":"Cube.021",
			"primitives":[
				{
					"attributes":{
						"POSITION":75,
						"NORMAL":76,
						"TEXCOORD_0":77
					},
					"indices":78,
					"material":0
				}
			]
		},
		{
			"name":"Cube.035",
			"primitives":[
				{
					"attributes":{
						"POSITION":79,
						"NORMAL":80,
						"TEXCOORD_0":81,
						"TANGENT":82
					},
					"indices":55,
					"material":0
				}
			]
		},
		{
			"name":"Cube.029",
			"primitives":[
				{
					"attributes":{
						"POSITION":83,
						"NORMAL":84,
						"TEXCOORD_0":85
					},
					"indices":86,
					"material":1
				}
			]
		},
		{
			"name":"Cube.028",
			"primitives":[
				{
					"attributes":{
						"POSITION":87,
						"NORMAL":88,
						"TEXCOORD_0":89
					},
					"indices":90,
					"material":1
				}
			]
		},
		{
			"name":"Cube.036",
			"primitives":[
				{
					"attributes":{
						"POSITION":91,
						"NORMAL":92,
						"TEXCOORD_0":93,
						"TANGENT":94
					},
					"indices":55,
					"material":0
				}
			]
		},
		{
			"name":"Cube.031",
			"primitives":[
				{
					"attributes":{
						"POSITION":95,
						"NORMAL":96,
						"TEXCOORD_0":97
					},
					"indices":98,
					"material":1
				}
			]
		},
		{
			"name":"Cube.032",
			"primitives":[
				{
					"attributes":{
						"POSITION":99,
						"NORMAL":100,
						"TEXCOORD_0":101
					},
					"indices":102,
					"material":1
				}
			]
		},
		{
			"name":"Cube.030",
			"primitives":[
				{
					"attributes":{
						"POSITION":103,
						"NORMAL":104,
						"TEXCOORD_0":105
					},
					"indices":106,
					"material":1
				}
			]
		},
		{
			"name":"Cube.040",
			"primitives":[
				{
					"attributes":{
						"POSITION":107,
						"NORMAL":108,
						"TEXCOORD_0":109,
						"TANGENT":110
					},
					"indices":111,
					"material":0
				}
			]
		},
		{
			"name":"Cube.039",
			"primitives":[
				{
					"attributes":{
						"POSITION":112,
						"NORMAL":113,
						"TEXCOORD_0":114
					},
					"indices":115,
					"material":2
				}
			]
		},
		{
			"name":"Cube.011",
			"primitives":[
				{
					"attributes":{
						"POSITION":116,
						"NORMAL":117,
						"TEXCOORD_0":118
					},
					"indices":119,
					"material":2
				}
			]
		},
		{
			"name":"Cube.008",
			"primitives":[
				{
					"attributes":{
						"POSITION":120,
						"NORMAL":121,
						"TEXCOORD_0":122
					},
					"indices":123,
					"material":1
				}
			]
		},
		{
			"name":"Cube.015",
			"primitives":[
				{
					"attributes":{
						"POSITION":124,
						"NORMAL":125,
						"TEXCOORD_0":126
					},
					"indices":127,
					"material":0
				}
			]
		}
	],
	"accessors":[
		{
			"bufferView":0,
			"componentType":5126,
			"count":102,
			"max":[
				12.20000171661377,
				0.8500001430511475,
				0.8500000238418579
			],
			"min":[
				-1.0000001192092896,
				-0.8500001430511475,
				-0.8500000238418579
			],
			"type":"VEC3"
		},
		{
			"bufferView":1,
			"componentType":5126,
			"count":102,
			"type":"VEC3"
		},
		{
			"bufferView":2,
			"componentType":5126,
			"count":102,
			"type":"VEC2"
		},
		{
			"bufferView":3,
			"componentType":5123,
			"count":276,
			"type":"SCALAR"
		},
		{
			"bufferView":4,
			"componentType":5126,
			"count":66,
			"max":[
				5.500000476837158,
				0.42500007152557373,
				0.42500001192092896
			],
			"min":[
				-0.5000000596046448,
				-0.42500007152557373,
				-0.42500001192092896
			],
			"type":"VEC3"
		},
		{
			"bufferView":5,
			"componentType":5126,
			"count":66,
			"type":"VEC3"
		},
		{
			"bufferView":6,
			"componentType":5126,
			"count":66,
			"type":"VEC2"
		},
		{
			"bufferView":7,
			"componentType":5123,
			"count":180,
			"type":"SCALAR"
		},
		{
			"bufferView":8,
			"componentType":5126,
			"count":270,
			"max":[
				8.148212432861328,
				5.2345991134643555,
				0.972000002861023
			],
			"min":[
				-2.1741626262664795,
				-5.665400981903076,
				-0.972000002861023
			],
			"type":"VEC3"
		},
		{
			"bufferView":9,
			"componentType":5126,
			"count":270,
			"type":"VEC3"
		},
		{
			"bufferView":10,
			"componentType":5126,
			"count":270,
			"type":"VEC2"
		},
		{
			"bufferView":11,
			"componentType":5123,
			"count":462,
			"type":"SCALAR"
		},
		{
			"bufferView":12,
			"componentType":5126,
			"count":120,
			"max":[
				3.559999942779541,
				0.800000011920929,
				1.2799999713897705
			],
			"min":[
				-1.0000001192092896,
				-0.800000011920929,
				-1.2800003290176392
			],
			"type":"VEC3"
		},
		{
			"bufferView":13,
			"componentType":5126,
			"count":120,
			"type":"VEC3"
		},
		{
			"bufferView":14,
			"componentType":5126,
			"count":120,
			"type":"VEC2"
		},
		{
			"bufferView":15,
			"componentType":5126,
			"count":120,
			"type":"VEC4"
		},
		{
			"bufferView":16,
			"componentType":5123,
			"count":264,
			"type":"SCALAR"
		},
		{
			"bufferView":17,
			"componentType":5126,
			"count":66,
			"max":[
				6.199999809265137,
				0.6800000071525574,
				0.6800000667572021
			],
			"min":[
				-1.0000001192092896,
				-0.6800000071525574,
				-0.680000364780426
			],
			"type":"VEC3"
		},
		{
			"bufferView":18,
			"componentType":5126,
			"count":66,
			"type":"VEC3"
		},
		{
			"bufferView":19,
			"componentType":5126,
			"count":66,
			"type":"VEC2"
		},
		{
			"bufferView":20,
			"componentType":5123,
			"count":180,
			"type":"SCALAR"
		},
		{
			"bufferView":21,
			"componentType":5126,
			"count":24,
			"max":[
				2,
				1,
				0.5000001788139343
			],
			"min":[
				-2,
				-2,
				-0.5000001788139343
			],
			"type":"VEC3"
		},
		{
			"bufferView":22,
			"componentType":5126,
			"count":24,
			"type":"VEC3"
		},
		{
			"bufferView":23,
			"componentType":5126,
			"count":24,
			"type":"VEC2"
		},
		{
			"bufferView":24,
			"componentType":5126,
			"count":24,
			"type":"VEC4"
		},
		{
			"bufferView":25,
			"componentType":5123,
			"count":36,
			"type":"SCALAR"
		},
		{
			"bufferView":26,
			"componentType":5126,
			"count":272,
			"max":[
				11,
				1,
				1.3000004291534424
			],
			"min":[
				-12.872282028198242,
				-5.3240742683410645,
				-1.300000548362732
			],
			"type":"VEC3"
		},
		{
			"bufferView":27,
			"componentType":5126,
			"count":272,
			"type":"VEC3"
		},
		{
			"bufferView":28,
			"componentType":5126,
			"count":272,
			"type":"VEC2"
		},
		{
			"bufferView":29,
			"componentType":5123,
			"count":468,
			"type":"SCALAR"
		},
		{
			"bufferView":30,
			"componentType":5126,
			"count":36,
			"max":[
				0.699999988079071,
				16.700000762939453,
				0.699999988079071
			],
			"min":[
				-0.699999988079071,
				-0.699999988079071,
				-0.699999988079071
			],
			"type":"VEC3"
		},
		{
			"bufferView":31,
			"componentType":5126,
			"count":36,
			"type":"VEC3"
		},
		{
			"bufferView":32,
			"componentType":5126,
			"count":36,
			"type":"VEC2"
		},
		{
			"bufferView":33,
			"componentType":5123,
			"count":90,
			"type":"SCALAR"
		},
		{
			"bufferView":34,
			"componentType":5126,
			"count":88,
			"max":[
				0.310260534286499,
				7.854148864746094,
				2.0999999046325684
			],
			"min":[
				-1.7229281663894653,
				-1.0299561023712158,
				-2.0999999046325684
			],
			"type":"VEC3"
		},
		{
			"bufferView":35,
			"componentType":5126,
			"count":88,
			"type":"VEC3"
		},
		{
			"bufferView":36,
			"componentType":5126,
			"count":88,
			"type":"VEC2"
		},
		{
			"bufferView":37,
			"componentType":5126,
			"count":88,
			"type":"VEC4"
		},
		{
			"bufferView":38,
			"componentType":5123,
			"count":132,
			"type":"SCALAR"
		},
		{
			"bufferView":39,
			"componentType":5126,
			"count":176,
			"max":[
				1.600000023841858,
				1,
				1.600000023841858
			],
			"min":[
				-1.600000023841858,
				-4.599999904632568,
				-1.600000023841858
			],
			"type":"VEC3"
		},
		{
			"bufferView":40,
			"componentType":5126,
			"count":176,
			"type":"VEC3"
		},
		{
			"bufferView":41,
			"componentType":5126,
			"count":176,
			"type":"VEC2"
		},
		{
			"bufferView":42,
			"componentType":5123,
			"count":276,
			"type":"SCALAR"
		},
		{
			"bufferView":43,
			"componentType":5126,
			"count":132,
			"max":[
				3,
				0,
				0
			],
			"min":[
				0,
				-2,
				-2
			],
			"type":"VEC3"
		},
		{
			"bufferView":44,
			"componentType":5126,
			"count":132,
			"type":"VEC3"
		},
		{
			"bufferView":45,
			"componentType":5126,
			"count":132,
			"type":"VEC2"
		},
		{
			"bufferView":46,
			"componentType":5123,
			"count":222,
			"type":"SCALAR"
		},
		{
			"bufferView":47,
			"componentType":5126,
			"count":640,
			"max":[
				1.5216926336288452,
				1.600000023841858,
				1.5999999046325684
			],
			"min":[
				-1.5216926336288452,
				-13.364997863769531,
				-1.5999999046325684
			],
			"type":"VEC3"
		},
		{
			"bufferView":48,
			"componentType":5126,
			"count":640,
			"type":"VEC3"
		},
		{
			"bufferView":49,
			"componentType":5126,
			"count":640,
			"type":"VEC2"
		},
		{
			"bufferView":50,
			"componentType":5123,
			"count":834,
			"type":"SCALAR"
		},
		{
			"bufferView":51,
			"componentType":5126,
			"count":24,
			"max":[
				1,
				1,
				0.19999998807907104
			],
			"min":[
				-1,
				-1,
				-0.19999998807907104
			],
			"type":"VEC3"
		},
		{
			"bufferView":52,
			"componentType":5126,
			"count":24,
			"type":"VEC3"
		},
		{
			"bufferView":53,
			"componentType":5126,
			"count":24,
			"type":"VEC2"
		},
		{
			"bufferView":54,
			"componentType":5126,
			"count":24,
			"type":"VEC4"
		},
		{
			"bufferView":55,
			"componentType":5123,
			"count":36,
			"type":"SCALAR"
		},
		{
			"bufferView":56,
			"componentType":5126,
			"count":66,
			"max":[
				4,
				5.400000095367432,
				4
			],
			"min":[
				-4,
				-5.400000095367432,
				-4
			],
			"type":"VEC3"
		},
		{
			"bufferView":57,
			"componentType":5126,
			"count":66,
			"type":"VEC3"
		},
		{
			"bufferView":58,
			"componentType":5126,
			"count":66,
			"type":"VEC2"
		},
		{
			"bufferView":59,
			"componentType":5123,
			"count":180,
			"type":"SCALAR"
		},
		{
			"bufferView":60,
			"componentType":5126,
			"count":24,
			"max":[
				0.8485280275344849,
				1,
				0.8485280275344849
			],
			"min":[
				-0.8485280275344849,
				-1,
				-0.8485280275344849
			],
			"type":"VEC3"
		},
		{
			"bufferView":61,
			"componentType":5126,
			"count":24,
			"type":"VEC3"
		},
		{
			"bufferView":62,
			"componentType":5126,
			"count":24,
			"type":"VEC2"
		},
		{
			"bufferView":63,
			"componentType":5126,
			"count":24,
			"type":"VEC4"
		},
		{
			"bufferView":64,
			"componentType":5123,
			"count":36,
			"type":"SCALAR"
		},
		{
			"bufferView":65,
			"componentType":5126,
			"count":24,
			"max":[
				0.8485280275344849,
				1,
				0.8485280275344849
			],
			"min":[
				-0.8485280275344849,
				-1,
				-0.8485280275344849
			],
			"type":"VEC3"
		},
		{
			"bufferView":66,
			"componentType":5126,
			"count":24,
			"type":"VEC3"
		},
		{
			"bufferView":67,
			"componentType":5126,
			"count":24,
			"type":"VEC2"
		},
		{
			"bufferView":68,
			"componentType":5126,
			"count":24,
			"type":"VEC4"
		},
		{
			"bufferView":69,
			"componentType":5123,
			"count":36,
			"type":"SCALAR"
		},
		{
			"bufferView":70,
			"componentType":5126,
			"count":160,
			"max":[
				4.800000190734863,
				0.23999996483325958,
				4.800000190734863
			],
			"min":[
				-4.800000190734863,
				-0.1600000262260437,
				-4.800000190734863
			],
			"type":"VEC3"
		},
		{
			"bufferView":71,
			"componentType":5126,
			"count":160,
			"type":"VEC3"
		},
		{
			"bufferView":72,
			"componentType":5126,
			"count":160,
			"type":"VEC2"
		},
		{
			"bufferView":73,
			"componentType":5126,
			"count":160,
			"type":"VEC4"
		},
		{
			"bufferView":74,
			"componentType":5123,
			"count":384,
			"type":"SCALAR"
		},
		{
			"bufferView":75,
			"componentType":5126,
			"count":66,
			"max":[
				4,
				5.400000095367432,
				4
			],
			"min":[
				-4,
				-5.400000095367432,
				-4
			],
			"type":"VEC3"
		},
		{
			"bufferView":76,
			"componentType":5126,
			"count":66,
			"type":"VEC3"
		},
		{
			"bufferView":77,
			"componentType":5126,
			"count":66,
			"type":"VEC2"
		},
		{
			"bufferView":78,
			"componentType":5123,
			"count":180,
			"type":"SCALAR"
		},
		{
			"bufferView":79,
			"componentType":5126,
			"count":24,
			"max":[
				1.5999999046325684,
				0.7999999523162842,
				0.7999999523162842
			],
			"min":[
				-1.5999999046325684,
				-0.7999999523162842,
				-0.7999999523162842
			],
			"type":"VEC3"
		},
		{
			"bufferView":80,
			"componentType":5126,
			"count":24,
			"type":"VEC3"
		},
		{
			"bufferView":81,
			"componentType":5126,
			"count":24,
			"type":"VEC2"
		},
		{
			"bufferView":82,
			"componentType":5126,
			"count":24,
			"type":"VEC4"
		},
		{
			"bufferView":83,
			"componentType":5126,
			"count":100,
			"max":[
				2,
				1.200000524520874,
				1.200000524520874
			],
			"min":[
				-2.799999952316284,
				-1.200000524520874,
				-1.200000524520874
			],
			"type":"VEC3"
		},
		{
			"bufferView":84,
			"componentType":5126,
			"count":100,
			"type":"VEC3"
		},
		{
			"bufferView":85,
			"componentType":5126,
			"count":100,
			"type":"VEC2"
		},
		{
			"bufferView":86,
			"componentType":5123,
			"count":180,
			"type":"SCALAR"
		},
		{
			"bufferView":87,
			"componentType":5126,
			"count":100,
			"max":[
				6.800000190734863,
				1.2000004053115845,
				1.2000004053115845
			],
			"min":[
				-2,
				-1.2000004053115845,
				-1.2000004053115845
			],
			"type":"VEC3"
		},
		{
			"bufferView":88,
			"componentType":5126,
			"count":100,
			"type":"VEC3"
		},
		{
			"bufferView":89,
			"componentType":5126,
			"count":100,
			"type":"VEC2"
		},
		{
			"bufferView":90,
			"componentType":5123,
			"count":180,
			"type":"SCALAR"
		},
		{
			"bufferView":91,
			"componentType":5126,
			"count":24,
			"max":[
				2.0999999046325684,
				1.399999976158142,
				1.399999976158142
			],
			"min":[
				-2.0999999046325684,
				-1.399999976158142,
				-1.399999976158142
			],
			"type":"VEC3"
		},
		{
			"bufferView":92,
			"componentType":5126,
			"count":24,
			"type":"VEC3"
		},
		{
			"bufferView":93,
			"componentType":5126,
			"count":24,
			"type":"VEC2"
		},
		{
			"bufferView":94,
			"componentType":5126,
			"count":24,
			"type":"VEC4"
		},
		{
			"bufferView":95,
			"componentType":5126,
			"count":72,
			"max":[
				2.5199999809265137,
				1.68000066280365,
				1.68000066280365
			],
			"min":[
				-2.5199999809265137,
				-1.68000066280365,
				-1.68000066280365
			],
			"type":"VEC3"
		},
		{
			"bufferView":96,
			"componentType":5126,
			"count":72,
			"type":"VEC3"
		},
		{
			"bufferView":97,
			"componentType":5126,
			"count":72,
			"type":"VEC2"
		},
		{
			"bufferView":98,
			"componentType":5123,
			"count":132,
			"type":"SCALAR"
		},
		{
			"bufferView":99,
			"componentType":5126,
			"count":104,
			"max":[
				2.799999952316284,
				1.68000066280365,
				1.68000066280365
			],
			"min":[
				-3.919999837875366,
				-1.68000066280365,
				-1.68000066280365
			],
			"type":"VEC3"
		},
		{
			"bufferView":100,
			"componentType":5126,
			"count":104,
			"type":"VEC3"
		},
		{
			"bufferView":101,
			"componentType":5126,
			"count":104,
			"type":"VEC2"
		},
		{
			"bufferView":102,
			"componentType":5123,
			"count":180,
			"type":"SCALAR"
		},
		{
			"bufferView":103,
			"componentType":5126,
			"count":128,
			"max":[
				9.520000457763672,
				1.6800005435943604,
				1.6800005435943604
			],
			"min":[
				-2.799999952316284,
				-1.6800005435943604,
				-1.6800005435943604
			],
			"type":"VEC3"
		},
		{
			"bufferView":104,
			"componentType":5126,
			"count":128,
			"type":"VEC3"
		},
		{
			"bufferView":105,
			"componentType":5126,
			"count":128,
			"type":"VEC2"
		},
		{
			"bufferView":106,
			"componentType":5123,
			"count":216,
			"type":"SCALAR"
		},
		{
			"bufferView":107,
			"componentType":5126,
			"count":48,
			"max":[
				0.24000000953674316,
				0.24000000953674316,
				0.24000000953674316
			],
			"min":[
				-0.24000000953674316,
				-0.24000023305416107,
				-1.2400000095367432
			],
			"type":"VEC3"
		},
		{
			"bufferView":108,
			"componentType":5126,
			"count":48,
			"type":"VEC3"
		},
		{
			"bufferView":109,
			"componentType":5126,
			"count":48,
			"type":"VEC2"
		},
		{
			"bufferView":110,
			"componentType":5126,
			"count":48,
			"type":"VEC4"
		},
		{
			"bufferView":111,
			"componentType":5123,
			"count":72,
			"type":"SCALAR"
		},
		{
			"bufferView":112,
			"componentType":5126,
			"count":152,
			"max":[
				1.600000023841858,
				2.6000001430511475,
				1.600000023841858
			],
			"min":[
				-1.600000023841858,
				-1.600000023841858,
				-1.600000023841858
			],
			"type":"VEC3"
		},
		{
			"bufferView":113,
			"componentType":5126,
			"count":152,
			"type":"VEC3"
		},
		{
			"bufferView":114,
			"componentType":5126,
			"count":152,
			"type":"VEC2"
		},
		{
			"bufferView":115,
			"componentType":5123,
			"count":372,
			"type":"SCALAR"
		},
		{
			"bufferView":116,
			"componentType":5126,
			"count":35,
			"max":[
				0.5600000023841858,
				1.1200000047683716,
				0.5600000023841858
			],
			"min":[
				-0.5600000023841858,
				-0.5600000023841858,
				-0.5600000023841858
			],
			"type":"VEC3"
		},
		{
			"bufferView":117,
			"componentType":5126,
			"count":35,
			"type":"VEC3"
		},
		{
			"bufferView":118,
			"componentType":5126,
			"count":35,
			"type":"VEC2"
		},
		{
			"bufferView":119,
			"componentType":5123,
			"count":90,
			"type":"SCALAR"
		},
		{
			"bufferView":120,
			"componentType":5126,
			"count":599,
			"max":[
				4,
				4,
				6
			],
			"min":[
				-4,
				-4,
				-6
			],
			"type":"VEC3"
		},
		{
			"bufferView":121,
			"componentType":5126,
			"count":599,
			"type":"VEC3"
		},
		{
			"bufferView":122,
			"componentType":5126,
			"count":599,
			"type":"VEC2"
		},
		{
			"bufferView":123,
			"componentType":5123,
			"count":1254,
			"type":"SCALAR"
		},
		{
			"bufferView":124,
			"componentType":5126,
			"count":116,
			"max":[
				1,
				5,
				1
			],
			"min":[
				-1,
				-1,
				-1
			],
			"type":"VEC3"
		},
		{
			"bufferView":125,
			"componentType":5126,
			"count":116,
			"type":"VEC3"
		},
		{
			"bufferView":126,
			"componentType":5126,
			"count":116,
			"type":"VEC2"
		},
		{
			"bufferView":127,
			"componentType":5123,
			"count":228,
			"type":"SCALAR"
		}
	],
	"bufferViews":[
		{
			"buffer":0,
			"byteLength":1224,
			"byteOffset":0,
			"target":34962
		},
		{
			"buffer":0,
			"byteLength":1224,
			"byteOffset":1224,
			"target":34962
		},
		{
			"buffer":0,
			"byteLength":816,
			"byteOffset":2448,
			"target":34962
		},
		{
			"buffer":0,
			"byteLength":552,
			"byteOffset":3264,
			"target":34963
		},
		{
			"buffer":0,
			"byteLength":792,
			"byteOffset":3816,
			"target":34962
		},
		{
			"buffer":0,
			"byteLength":792,
			"byteOffset":4608,
			"target":34962
		},
		{
			"buffer":0,
			"byteLength":528,
			"byteOffset":5400,
			"target":34962
		},
		{
			"buffer":0,
			"byteLength":360,
			"byteOffset":5928,
			"target":34963
		},
		{
			"buffer":0,
			"byteLength":3240,
			"byteOffset":6288,
			"target":34962
		},
		{
			"buffer":0,
			"byteLength":3240,
			"byteOffset":9528,
			"target":34962
		},
		{
			"buffer":0,
			"byteLength":2160,
			"byteOffset":12768,
			"target":34962
		},
		{
			"buffer":0,
			"byteLength":924,
			"byteOffset":14928,
			"target":34963
		},
		{
			"buffer":0,
			"byteLength":1440,
			"byteOffset":15852,
			"target":34962
		},
		{
			"buffer":0,
			"byteLength":1440,
			"byteOffset":17292,
			"target":34962
		},
		{
			"buffer":0,
			"byteLength":960,
			"byteOffset":18732,
			"target":34962
		},
		{
			"buffer":0,
			"byteLength":1920,
			"byteOffset":19692,
			"target":34962
		},
		{
			"buffer":0,
			"byteLength":528,
			"byteOffset":21612,
			"target":34963
		},
		{
			"buffer":0,
			"byteLength":792,
			"byteOffset":22140,
			"target":34962
		},
		{
			"buffer":0,
			"byteLength":792,
			"byteOffset":22932,
			"target":34962
		},
		{
			"buffer":0,
			"byteLength":528,
			"byteOffset":23724,
			"target":34962
		},
		{
			"buffer":0,
			"byteLength":360,
			"byteOffset":24252,
			"target":34963
		},
		{
			"buffer":0,
			"byteLength":288,
			"byteOffset":24612,
			"target":34962
		},
		{
			"buffer":0,
			"byteLength":288,
			"byteOffset":24900,
			"target":34962
		},
		{
			"buffer":0,
			"byteLength":192,
			"byteOffset":25188,
			"target":34962
		},
		{
			"buffer":0,
			"byteLength":384,
			"byteOffset":25380,
			"target":34962
		},
		{
			"buffer":0,
			"byteLength":72,
			"byteOffset":25764,
			"target":34963
		},
		{
			"buffer":0,
			"byteLength":3264,
			"byteOffset":25836,
			"target":34962
		},
		{
			"buffer":0,
			"byteLength":3264,
			"byteOffset":29100,
			"target":34962
		},
		{
			"buffer":0,
			"byteLength":2176,
			"byteOffset":32364,
			"target":34962
		},
		{
			"buffer":0,
			"byteLength":936,
			"byteOffset":34540,
			"target":34963
		},
		{
			"buffer":0,
			"byteLength":432,
			"byteOffset":35476,
			"target":34962
		},
		{
			"buffer":0,
			"byteLength":432,
			"byteOffset":35908,
			"target":34962
		},
		{
			"buffer":0,
			"byteLength":288,
			"byteOffset":36340,
			"target":34962
		},
		{
			"buffer":0,
			"byteLength":180,
			"byteOffset":36628,
			"target":34963
		},
		{
			"buffer":0,
			"byteLength":1056,
			"byteOffset":36808,
			"target":34962
		},
		{
			"buffer":0,
			"byteLength":1056,
			"byteOffset":37864,
			"target":34962
		},
		{
			"buffer":0,
			"byteLength":704,
			"byteOffset":38920,
			"target":34962
		},
		{
			"buffer":0,
			"byteLength":1408,
			"byteOffset":39624,
			"target":34962
		},
		{
			"buffer":0,
			"byteLength":264,
			"byteOffset":41032,
			"target":34963
		},
		{
			"buffer":0,
			"byteLength":2112,
			"byteOffset":41296,
			"target":34962
		},
		{
			"buffer":0,
			"byteLength":2112,
			"byteOffset":43408,
			"target":34962
		},
		{
			"buffer":0,
			"byteLength":1408,
			"byteOffset":45520,
			"target":34962
		},
		{
			"buffer":0,
			"byteLength":552,
			"byteOffset":46928,
			"target":34963
		},
		{
			"buffer":0,
			"byteLength":1584,
			"byteOffset":47480,
			"target":34962
		},
		{
			"buffer":0,
			"byteLength":1584,
			"byteOffset":49064,
			"target":34962
		},
		{
			"buffer":0,
			"byteLength":1056,
			"byteOffset":50648,
			"target":34962
		},
		{
			"buffer":0,
			"byteLength":444,
			"byteOffset":51704,
			"target":34963
		},
		{
			"buffer":0,
			"byteLength":7680,
			"byteOffset":52148,
			"target":34962
		},
		{
			"buffer":0,
			"byteLength":7680,
			"byteOffset":59828,
			"target":34962
		},
		{
			"buffer":0,
			"byteLength":5120,
			"byteOffset":67508,
			"target":34962
		},
		{
			"buffer":0,
			"byteLength":1668,
			"byteOffset":72628,
			"target":34963
		},
		{
			"buffer":0,
			"byteLength":288,
			"byteOffset":74296,
			"target":34962
		},
		{
			"buffer":0,
			"byteLength":288,
			"byteOffset":74584,
			"target":34962
		},
		{
			"buffer":0,
			"byteLength":192,
			"byteOffset":74872,
			"target":34962
		},
		{
			"buffer":0,
			"byteLength":384,
			"byteOffset":75064,
			"target":34962
		},
		{
			"buffer":0,
			"byteLength":72,
			"byteOffset":75448,
			"target":34963
		},
		{
			"buffer":0,
			"byteLength":792,
			"byteOffset":75520,
			"target":34962
		},
		{
			"buffer":0,
			"byteLength":792,
			"byteOffset":76312,
			"target":34962
		},
		{
			"buffer":0,
			"byteLength":528,
			"byteOffset":77104,
			"target":34962
		},
		{
			"buffer":0,
			"byteLength":360,
			"byteOffset":77632,
			"target":34963
		},
		{
			"buffer":0,
			"byteLength":288,
			"byteOffset":77992,
			"target":34962
		},
		{
			"buffer":0,
			"byteLength":288,
			"byteOffset":78280,
			"target":34962
		},
		{
			"buffer":0,
			"byteLength":192,
			"byteOffset":78568,
			"target":34962
		},
		{
			"buffer":0,
			"byteLength":384,
			"byteOffset":78760,
			"target":34962
		},
		{
			"buffer":0,
			"byteLength":72,
			"byteOffset":79144,
			"target":34963
		},
		{
			"buffer":0,
			"byteLength":288,
			"byteOffset":79216,
			"target":34962
		},
		{
			"buffer":0,
			"byteLength":288,
			"byteOffset":79504,
			"target":34962
		},
		{
			"buffer":0,
			"byteLength":192,
			"byteOffset":79792,
			"target":34962
		},
		{
			"buffer":0,
			"byteLength":384,
			"byteOffset":79984,
			"target":34962
		},
		{
			"buffer":0,
			"byteLength":72,
			"byteOffset":80368,
			"target":34963
		},
		{
			"buffer":0,
			"byteLength":1920,
			"byteOffset":80440,
			"target":34962
		},
		{
			"buffer":0,
			"byteLength":1920,
			"byteOffset":82360,
			"target":34962
		},
		{
			"buffer":0,
			"byteLength":1280,
			"byteOffset":84280,
			"target":34962
		},
		{
			"buffer":0,
			"byteLength":2560,
			"byteOffset":85560,
			"target":34962
		},
		{
			"buffer":0,
			"byteLength":768,
			"byteOffset":88120,
			"target":34963
		},
		{
			"buffer":0,
			"byteLength":792,
			"byteOffset":88888,
			"target":34962
		},
		{
			"buffer":0,
			"byteLength":792,
			"byteOffset":89680,
			"target":34962
		},
		{
			"buffer":0,
			"byteLength":528,
			"byteOffset":90472,
			"target":34962
		},
		{
			"buffer":0,
			"byteLength":360,
			"byteOffset":91000,
			"target":34963
		},
		{
			"buffer":0,
			"byteLength":288,
			"byteOffset":91360,
			"target":34962
		},
		{
			"buffer":0,
			"byteLength":288,
			"byteOffset":91648,
			"target":34962
		},
		{
			"buffer":0,
			"byteLength":192,
			"byteOffset":91936,
			"target":34962
		},
		{
			"buffer":0,
			"byteLength":384,
			"byteOffset":92128,
			"target":34962
		},
		{
			"buffer":0,
			"byteLength":1200,
			"byteOffset":92512,
			"target":34962
		},
		{
			"buffer":0,
			"byteLength":1200,
			"byteOffset":93712,
			"target":34962
		},
		{
			"buffer":0,
			"byteLength":800,
			"byteOffset":94912,
			"target":34962
		},
		{
			"buffer":0,
			"byteLength":360,
			"byteOffset":95712,
			"target":34963
		},
		{
			"buffer":0,
			"byteLength":1200,
			"byteOffset":96072,
			"target":34962
		},
		{
			"buffer":0,
			"byteLength":1200,
			"byteOffset":97272,
			"target":34962
		},
		{
			"buffer":0,
			"byteLength":800,
			"byteOffset":98472,
			"target":34962
		},
		{
			"buffer":0,
			"byteLength":360,
			"byteOffset":99272,
			"target":34963
		},
		{
			"buffer":0,
			"byteLength":288,
			"byteOffset":99632,
			"target":34962
		},
		{
			"buffer":0,
			"byteLength":288,
			"byteOffset":99920,
			"target":34962
		},
		{
			"buffer":0,
			"byteLength":192,
			"byteOffset":100208,
			"target":34962
		},
		{
			"buffer":0,
			"byteLength":384,
			"byteOffset":100400,
			"target":34962
		},
		{
			"buffer":0,
			"byteLength":864,
			"byteOffset":100784,
			"target":34962
		},
		{
			"buffer":0,
			"byteLength":864,
			"byteOffset":101648,
			"target":34962
		},
		{
			"buffer":0,
			"byteLength":576,
			"byteOffset":102512,
			"target":34962
		},
		{
			"buffer":0,
			"byteLength":264,
			"byteOffset":103088,
			"target":34963
		},
		{
			"buffer":0,
			"byteLength":1248,
			"byteOffset":103352,
			"target":34962
		},
		{
			"buffer":0,
			"byteLength":1248,
			"byteOffset":104600,
			"target":34962
		},
		{
			"buffer":0,
			"byteLength":832,
			"byteOffset":105848,
			"target":34962
		},
		{
			"buffer":0,
			"byteLength":360,
			"byteOffset":106680,
			"target":34963
		},
		{
			"buffer":0,
			"byteLength":1536,
			"byteOffset":107040,
			"target":34962
		},
		{
			"buffer":0,
			"byteLength":1536,
			"byteOffset":108576,
			"target":34962
		},
		{
			"buffer":0,
			"byteLength":1024,
			"byteOffset":110112,
			"target":34962
		},
		{
			"buffer":0,
			"byteLength":432,
			"byteOffset":111136,
			"target":34963
		},
		{
			"buffer":0,
			"byteLength":576,
			"byteOffset":111568,
			"target":34962
		},
		{
			"buffer":0,
			"byteLength":576,
			"byteOffset":112144,
			"target":34962
		},
		{
			"buffer":0,
			"byteLength":384,
			"byteOffset":112720,
			"target":34962
		},
		{
			"buffer":0,
			"byteLength":768,
			"byteOffset":113104,
			"target":34962
		},
		{
			"buffer":0,
			"byteLength":144,
			"byteOffset":113872,
			"target":34963
		},
		{
			"buffer":0,
			"byteLength":1824,
			"byteOffset":114016,
			"target":34962
		},
		{
			"buffer":0,
			"byteLength":1824,
			"byteOffset":115840,
			"target":34962
		},
		{
			"buffer":0,
			"byteLength":1216,
			"byteOffset":117664,
			"target":34962
		},
		{
			"buffer":0,
			"byteLength":744,
			"byteOffset":118880,
			"target":34963
		},
		{
			"buffer":0,
			"byteLength":420,
			"byteOffset":119624,
			"target":34962
		},
		{
			"buffer":0,
			"byteLength":420,
			"byteOffset":120044,
			"target":34962
		},
		{
			"buffer":0,
			"byteLength":280,
			"byteOffset":120464,
			"target":34962
		},
		{
			"buffer":0,
			"byteLength":180,
			"byteOffset":120744,
			"target":34963
		},
		{
			"buffer":0,
			"byteLength":7188,
			"byteOffset":120924,
			"target":34962
		},
		{
			"buffer":0,
			"byteLength":7188,
			"byteOffset":128112,
			"target":34962
		},
		{
			"buffer":0,
			"byteLength":4792,
			"byteOffset":135300,
			"target":34962
		},
		{
			"buffer":0,
			"byteLength":2508,
			"byteOffset":140092,
			"target":34963
		},
		{
			"buffer":0,
			"byteLength":1392,
			"byteOffset":142600,
			"target":34962
		},
		{
			"buffer":0,
			"byteLength":1392,
			"byteOffset":143992,
			"target":34962
		},
		{
			"buffer":0,
			"byteLength":928,
			"byteOffset":145384,
			"target":34962
		},
		{
			"buffer":0,
			"byteLength":456,
			"byteOffset":146312,
			"target":34963
		}
	],
	"buffers":[
		{
			"byteLength":146768,
			"uri":"guns-e291694df6a22757fb205b7e69a32d0d.bin"
		}
	]
}
