{
	"asset":{
		"generator":"Khronos glTF Blender I/O v4.5.47",
		"version":"2.0"
	},
	"scene":0,
	"scenes":[
		{
			"extras":{
				"ps_scene_data":{}
			},
			"name":"Scene",
			"nodes":[
				0,
				9,
				33
			]
		}
	],
	"nodes":[
		{
			"camera":0,
			"name":"Camera",
			"translation":[
				-10,
				4,
				40
			]
		},
		{
			"name":"palm",
			"translation":[
				0,
				5.799999713897705,
				0
			]
		},
		{
			"children":[
				1
			],
			"name":"forearm",
			"scale":[
				1,
				0.9999999403953552,
				1
			],
			"translation":[
				0,
				6,
				0
			]
		},
		{
			"children":[
				2
			],
			"name":"bicep",
			"rotation":[
				-0.7071067690849304,
				0,
				0,
				0.7071067690849304
			]
		},
		{
			"mesh":0,
			"name":"a",
			"skin":0
		},
		{
			"mesh":1,
			"name":"bicep",
			"skin":0
		},
		{
			"mesh":2,
			"name":"forearm",
			"skin":0
		},
		{
			"extras":{
				"ant_landscape":{}
			},
			"mesh":3,
			"name":"joint.006",
			"skin":0
		},
		{
			"extras":{
				"ant_landscape":{}
			},
			"mesh":4,
			"name":"joint.007",
			"skin":0
		},
		{
			"children":[
				4,
				5,
				6,
				7,
				8,
				3
			],
			"name":"arm"
		},
		{
			"name":"thumb.002",
			"rotation":[
				1.4349296274686127e-42,
				7.105428204633949e-15,
				1.0097417781269628e-28,
				1
			],
			"translation":[
				-8.470331088130137e-21,
				2.200000047683716,
				-9.5367431640625e-07
			]
		},
		{
			"children":[
				10
			],
			"name":"thumb.001",
			"rotation":[
				4.2351642314005224e-22,
				-1.1920928244535389e-07,
				-3.552713678800501e-15,
				1
			],
			"translation":[
				3.552713678800501e-15,
				1.7000000476837158,
				-9.5367431640625e-07
			]
		},
		{
			"children":[
				11
			],
			"name":"thumb",
			"rotation":[
				0.5847102999687195,
				9.670759482105495e-08,
				6.970288524144053e-08,
				0.8112422227859497
			],
			"scale":[
				1,
				0.9999999403953552,
				0.9999999403953552
			],
			"translation":[
				0,
				1.5811389684677124,
				0
			]
		},
		{
			"name":"index.002",
			"translation":[
				0,
				2.200000762939453,
				0
			]
		},
		{
			"children":[
				13
			],
			"name":"index.001",
			"rotation":[
				-0.19794517755508423,
				0,
				0,
				0.9802131056785583
			],
			"translation":[
				0,
				2.0615522861480713,
				-3.5762786865234375e-07
			]
		},
		{
			"children":[
				14
			],
			"name":"index",
			"rotation":[
				0.03837649151682854,
				0,
				0,
				0.999263346195221
			],
			"translation":[
				0,
				1.5811389684677124,
				0
			]
		},
		{
			"name":"ring.002",
			"translation":[
				0,
				2.2000017166137695,
				0
			]
		},
		{
			"children":[
				16
			],
			"name":"ring.001",
			"rotation":[
				0.19794517755508423,
				0,
				0,
				0.9802131056785583
			],
			"translation":[
				0,
				2.0615532398223877,
				-3.5762786865234375e-07
			]
		},
		{
			"children":[
				17
			],
			"name":"ring",
			"rotation":[
				-0.3524019122123718,
				0,
				0,
				0.9358487725257874
			],
			"scale":[
				1,
				0.9999998807907104,
				1
			],
			"translation":[
				0,
				1.5811389684677124,
				0
			]
		},
		{
			"children":[
				12,
				15,
				18
			],
			"name":"palm",
			"rotation":[
				-0.5847103595733643,
				0,
				0,
				0.8112421631813049
			],
			"scale":[
				1,
				0.9999999403953552,
				1
			]
		},
		{
			"mesh":5,
			"name":"joint.001",
			"skin":1
		},
		{
			"mesh":6,
			"name":"joint.002",
			"skin":1
		},
		{
			"mesh":7,
			"name":"joint.003",
			"skin":1
		},
		{
			"mesh":8,
			"name":"joint.004",
			"skin":1
		},
		{
			"mesh":9,
			"name":"joint.005",
			"skin":1
		},
		{
			"mesh":10,
			"name":"joint.008",
			"skin":1
		},
		{
			"mesh":11,
			"name":"palm",
			"skin":1
		},
		{
			"mesh":12,
			"name":"section.001",
			"skin":1
		},
		{
			"mesh":13,
			"name":"section.002",
			"skin":1
		},
		{
			"mesh":14,
			"name":"section.003",
			"skin":1
		},
		{
			"mesh":15,
			"name":"section.004",
			"skin":1
		},
		{
			"mesh":16,
			"name":"section.005",
			"skin":1
		},
		{
			"mesh":17,
			"name":"section.006",
			"skin":1
		},
		{
			"children":[
				20,
				21,
				22,
				23,
				24,
				25,
				26,
				27,
				28,
				29,
				30,
				31,
				32,
				19
			],
			"name":"hand",
			"translation":[
				0,
				0,
				-12.300000190734863
			]
		}
	],
	"cameras":[
		{
			"name":"Camera",
			"perspective":{
				"aspectRatio":1.7777777777777777,
				"yfov":0.39959652046304894,
				"zfar":1000,
				"znear":0.10000000149011612
			},
			"type":"perspective"
		}
	],
	"animations":[
		{
			"channels":[
				{
					"sampler":0,
					"target":{
						"node":3,
						"path":"translation"
					}
				},
				{
					"sampler":1,
					"target":{
						"node":3,
						"path":"rotation"
					}
				},
				{
					"sampler":2,
					"target":{
						"node":3,
						"path":"scale"
					}
				},
				{
					"sampler":3,
					"target":{
						"node":2,
						"path":"translation"
					}
				},
				{
					"sampler":4,
					"target":{
						"node":2,
						"path":"rotation"
					}
				},
				{
					"sampler":5,
					"target":{
						"node":2,
						"path":"scale"
					}
				},
				{
					"sampler":6,
					"target":{
						"node":1,
						"path":"translation"
					}
				},
				{
					"sampler":7,
					"target":{
						"node":1,
						"path":"rotation"
					}
				},
				{
					"sampler":8,
					"target":{
						"node":1,
						"path":"scale"
					}
				}
			],
			"name":"Action",
			"samplers":[
				{
					"input":114,
					"interpolation":"STEP",
					"output":115
				},
				{
					"input":116,
					"interpolation":"LINEAR",
					"output":117
				},
				{
					"input":114,
					"interpolation":"STEP",
					"output":118
				},
				{
					"input":114,
					"interpolation":"STEP",
					"output":119
				},
				{
					"input":116,
					"interpolation":"LINEAR",
					"output":120
				},
				{
					"input":114,
					"interpolation":"STEP",
					"output":121
				},
				{
					"input":114,
					"interpolation":"LINEAR",
					"output":122
				},
				{
					"input":116,
					"interpolation":"LINEAR",
					"output":123
				},
				{
					"input":114,
					"interpolation":"STEP",
					"output":118
				}
			]
		},
		{
			"channels":[
				{
					"sampler":0,
					"target":{
						"node":19,
						"path":"translation"
					}
				},
				{
					"sampler":1,
					"target":{
						"node":19,
						"path":"rotation"
					}
				},
				{
					"sampler":2,
					"target":{
						"node":19,
						"path":"scale"
					}
				},
				{
					"sampler":3,
					"target":{
						"node":12,
						"path":"translation"
					}
				},
				{
					"sampler":4,
					"target":{
						"node":12,
						"path":"rotation"
					}
				},
				{
					"sampler":5,
					"target":{
						"node":12,
						"path":"scale"
					}
				},
				{
					"sampler":6,
					"target":{
						"node":11,
						"path":"translation"
					}
				},
				{
					"sampler":7,
					"target":{
						"node":11,
						"path":"rotation"
					}
				},
				{
					"sampler":8,
					"target":{
						"node":11,
						"path":"scale"
					}
				},
				{
					"sampler":9,
					"target":{
						"node":10,
						"path":"translation"
					}
				},
				{
					"sampler":10,
					"target":{
						"node":10,
						"path":"rotation"
					}
				},
				{
					"sampler":11,
					"target":{
						"node":10,
						"path":"scale"
					}
				},
				{
					"sampler":12,
					"target":{
						"node":15,
						"path":"translation"
					}
				},
				{
					"sampler":13,
					"target":{
						"node":15,
						"path":"rotation"
					}
				},
				{
					"sampler":14,
					"target":{
						"node":15,
						"path":"scale"
					}
				},
				{
					"sampler":15,
					"target":{
						"node":14,
						"path":"translation"
					}
				},
				{
					"sampler":16,
					"target":{
						"node":14,
						"path":"rotation"
					}
				},
				{
					"sampler":17,
					"target":{
						"node":14,
						"path":"scale"
					}
				},
				{
					"sampler":18,
					"target":{
						"node":13,
						"path":"translation"
					}
				},
				{
					"sampler":19,
					"target":{
						"node":13,
						"path":"rotation"
					}
				},
				{
					"sampler":20,
					"target":{
						"node":13,
						"path":"scale"
					}
				},
				{
					"sampler":21,
					"target":{
						"node":18,
						"path":"translation"
					}
				},
				{
					"sampler":22,
					"target":{
						"node":18,
						"path":"rotation"
					}
				},
				{
					"sampler":23,
					"target":{
						"node":18,
						"path":"scale"
					}
				},
				{
					"sampler":24,
					"target":{
						"node":17,
						"path":"translation"
					}
				},
				{
					"sampler":25,
					"target":{
						"node":17,
						"path":"rotation"
					}
				},
				{
					"sampler":26,
					"target":{
						"node":17,
						"path":"scale"
					}
				},
				{
					"sampler":27,
					"target":{
						"node":16,
						"path":"translation"
					}
				},
				{
					"sampler":28,
					"target":{
						"node":16,
						"path":"rotation"
					}
				},
				{
					"sampler":29,
					"target":{
						"node":16,
						"path":"scale"
					}
				}
			],
			"name":"Action2",
			"samplers":[
				{
					"input":124,
					"interpolation":"STEP",
					"output":115
				},
				{
					"input":124,
					"interpolation":"STEP",
					"output":125
				},
				{
					"input":124,
					"interpolation":"STEP",
					"output":126
				},
				{
					"input":124,
					"interpolation":"STEP",
					"output":127
				},
				{
					"input":128,
					"interpolation":"LINEAR",
					"output":129
				},
				{
					"input":124,
					"interpolation":"STEP",
					"output":130
				},
				{
					"input":124,
					"interpolation":"LINEAR",
					"output":131
				},
				{
					"input":128,
					"interpolation":"LINEAR",
					"output":132
				},
				{
					"input":124,
					"interpolation":"STEP",
					"output":133
				},
				{
					"input":124,
					"interpolation":"LINEAR",
					"output":134
				},
				{
					"input":128,
					"interpolation":"LINEAR",
					"output":135
				},
				{
					"input":124,
					"interpolation":"STEP",
					"output":136
				},
				{
					"input":124,
					"interpolation":"STEP",
					"output":137
				},
				{
					"input":128,
					"interpolation":"LINEAR",
					"output":138
				},
				{
					"input":124,
					"interpolation":"STEP",
					"output":139
				},
				{
					"input":124,
					"interpolation":"LINEAR",
					"output":140
				},
				{
					"input":128,
					"interpolation":"LINEAR",
					"output":141
				},
				{
					"input":124,
					"interpolation":"STEP",
					"output":142
				},
				{
					"input":124,
					"interpolation":"LINEAR",
					"output":143
				},
				{
					"input":128,
					"interpolation":"LINEAR",
					"output":144
				},
				{
					"input":124,
					"interpolation":"STEP",
					"output":145
				},
				{
					"input":124,
					"interpolation":"STEP",
					"output":146
				},
				{
					"input":128,
					"interpolation":"LINEAR",
					"output":147
				},
				{
					"input":124,
					"interpolation":"STEP",
					"output":148
				},
				{
					"input":124,
					"interpolation":"LINEAR",
					"output":149
				},
				{
					"input":128,
					"interpolation":"LINEAR",
					"output":150
				},
				{
					"input":124,
					"interpolation":"STEP",
					"output":133
				},
				{
					"input":124,
					"interpolation":"LINEAR",
					"output":151
				},
				{
					"input":128,
					"interpolation":"LINEAR",
					"output":152
				},
				{
					"input":124,
					"interpolation":"STEP",
					"output":118
				}
			]
		}
	],
	"materials":[
		{
			"doubleSided":true,
			"name":"Material",
			"pbrMetallicRoughness":{
				"baseColorTexture":{
					"index":0
				},
				"metallicFactor":0,
				"roughnessFactor":0.5
			}
		}
	],
	"meshes":[
		{
			"name":"Cube",
			"primitives":[
				{
					"attributes":{
						"POSITION":0,
						"NORMAL":1,
						"TEXCOORD_0":2,
						"TANGENT":3,
						"JOINTS_0":4,
						"WEIGHTS_0":5
					},
					"indices":6
				}
			]
		},
		{
			"name":"Cube.004",
			"primitives":[
				{
					"attributes":{
						"POSITION":8,
						"NORMAL":9,
						"TEXCOORD_0":10,
						"TANGENT":11,
						"JOINTS_0":12,
						"WEIGHTS_0":13
					},
					"indices":14,
					"material":0
				}
			]
		},
		{
			"name":"Cube.023",
			"primitives":[
				{
					"attributes":{
						"POSITION":15,
						"NORMAL":16,
						"TEXCOORD_0":17,
						"JOINTS_0":18,
						"WEIGHTS_0":19
					},
					"indices":20,
					"material":0
				}
			]
		},
		{
			"name":"Cube.022",
			"primitives":[
				{
					"attributes":{
						"POSITION":21,
						"NORMAL":22,
						"TEXCOORD_0":23,
						"TANGENT":24,
						"JOINTS_0":25,
						"WEIGHTS_0":26
					},
					"indices":27,
					"material":0
				}
			]
		},
		{
			"name":"Cube.003",
			"primitives":[
				{
					"attributes":{
						"POSITION":28,
						"NORMAL":29,
						"TEXCOORD_0":30,
						"TANGENT":31,
						"JOINTS_0":32,
						"WEIGHTS_0":33
					},
					"indices":27,
					"material":0
				}
			]
		},
		{
			"name":"Cube.013",
			"primitives":[
				{
					"attributes":{
						"POSITION":34,
						"NORMAL":35,
						"TEXCOORD_0":36,
						"TANGENT":37,
						"JOINTS_0":38,
						"WEIGHTS_0":39
					},
					"indices":27,
					"material":0
				}
			]
		},
		{
			"name":"Cube.008",
			"primitives":[
				{
					"attributes":{
						"POSITION":41,
						"NORMAL":42,
						"TEXCOORD_0":43,
						"TANGENT":44,
						"JOINTS_0":45,
						"WEIGHTS_0":46
					},
					"indices":27,
					"material":0
				}
			]
		},
		{
			"name":"Cube.015",
			"primitives":[
				{
					"attributes":{
						"POSITION":47,
						"NORMAL":48,
						"TEXCOORD_0":49,
						"TANGENT":50,
						"JOINTS_0":51,
						"WEIGHTS_0":52
					},
					"indices":27,
					"material":0
				}
			]
		},
		{
			"name":"Cube.017",
			"primitives":[
				{
					"attributes":{
						"POSITION":53,
						"NORMAL":54,
						"TEXCOORD_0":55,
						"TANGENT":56,
						"JOINTS_0":57,
						"WEIGHTS_0":58
					},
					"indices":27,
					"material":0
				}
			]
		},
		{
			"name":"Cube.019",
			"primitives":[
				{
					"attributes":{
						"POSITION":59,
						"NORMAL":60,
						"TEXCOORD_0":61,
						"TANGENT":62,
						"JOINTS_0":63,
						"WEIGHTS_0":64
					},
					"indices":27,
					"material":0
				}
			]
		},
		{
			"name":"Cube.021",
			"primitives":[
				{
					"attributes":{
						"POSITION":65,
						"NORMAL":66,
						"TEXCOORD_0":67,
						"TANGENT":68,
						"JOINTS_0":69,
						"WEIGHTS_0":70
					},
					"indices":27,
					"material":0
				}
			]
		},
		{
			"name":"Cube.001",
			"primitives":[
				{
					"attributes":{
						"POSITION":71,
						"NORMAL":72,
						"TEXCOORD_0":73,
						"JOINTS_0":74,
						"WEIGHTS_0":75
					},
					"indices":76,
					"material":0
				}
			]
		},
		{
			"name":"Cube.012",
			"primitives":[
				{
					"attributes":{
						"POSITION":77,
						"NORMAL":78,
						"TEXCOORD_0":79,
						"TANGENT":80,
						"JOINTS_0":81,
						"WEIGHTS_0":82
					},
					"indices":14,
					"material":0
				}
			]
		},
		{
			"name":"Cube.007",
			"primitives":[
				{
					"attributes":{
						"POSITION":83,
						"NORMAL":84,
						"TEXCOORD_0":85,
						"TANGENT":86,
						"JOINTS_0":87,
						"WEIGHTS_0":88
					},
					"indices":14,
					"material":0
				}
			]
		},
		{
			"name":"Cube.014",
			"primitives":[
				{
					"attributes":{
						"POSITION":89,
						"NORMAL":90,
						"TEXCOORD_0":91,
						"TANGENT":92,
						"JOINTS_0":93,
						"WEIGHTS_0":94
					},
					"indices":14,
					"material":0
				}
			]
		},
		{
			"name":"Cube.016",
			"primitives":[
				{
					"attributes":{
						"POSITION":95,
						"NORMAL":96,
						"TEXCOORD_0":97,
						"TANGENT":98,
						"JOINTS_0":99,
						"WEIGHTS_0":100
					},
					"indices":14,
					"material":0
				}
			]
		},
		{
			"name":"Cube.018",
			"primitives":[
				{
					"attributes":{
						"POSITION":101,
						"NORMAL":102,
						"TEXCOORD_0":103,
						"TANGENT":104,
						"JOINTS_0":105,
						"WEIGHTS_0":106
					},
					"indices":107,
					"material":0
				}
			]
		},
		{
			"name":"Cube.020",
			"primitives":[
				{
					"attributes":{
						"POSITION":108,
						"NORMAL":109,
						"TEXCOORD_0":110,
						"TANGENT":111,
						"JOINTS_0":112,
						"WEIGHTS_0":113
					},
					"indices":107,
					"material":0
				}
			]
		}
	],
	"textures":[
		{
			"sampler":0,
			"source":0
		}
	],
	"images":[
		{
			"mimeType":"image/png",
			"name":"hand",
			"uri":"../../models/viewmodels/hand.png"
		}
	],
	"skins":[
		{
			"inverseBindMatrices":7,
			"joints":[
				3,
				2,
				1
			],
			"name":"arm"
		},
		{
			"inverseBindMatrices":40,
			"joints":[
				19,
				12,
				11,
				10,
				15,
				14,
				13,
				18,
				17,
				16
			],
			"name":"hand"
		}
	],
	"accessors":[
		{
			"bufferView":0,
			"componentType":5126,
			"count":24,
			"max":[
				0.5,
				9.199999809265137,
				-12.5
			],
			"min":[
				-0.5,
				-0.7999998927116394,
				-14.5
			],
			"type":"VEC3"
		},
		{
			"bufferView":1,
			"componentType":5126,
			"count":24,
			"type":"VEC3"
		},
		{
			"bufferView":2,
			"componentType":5126,
			"count":24,
			"type":"VEC2"
		},
		{
			"bufferView":3,
			"componentType":5126,
			"count":24,
			"type":"VEC4"
		},
		{
			"bufferView":4,
			"componentType":5121,
			"count":24,
			"type":"VEC4"
		},
		{
			"bufferView":5,
			"componentType":5126,
			"count":24,
			"type":"VEC4"
		},
		{
			"bufferView":6,
			"componentType":5123,
			"count":36,
			"type":"SCALAR"
		},
		{
			"bufferView":7,
			"componentType":5126,
			"count":3,
			"type":"MAT4"
		},
		{
			"bufferView":8,
			"componentType":5126,
			"count":56,
			"max":[
				0.4000000059604645,
				1.079999566078186,
				1.999998927116394
			],
			"min":[
				-0.5999999642372131,
				-1.0799998044967651,
				-5.999999046325684
			],
			"type":"VEC3"
		},
		{
			"bufferView":9,
			"componentType":5126,
			"count":56,
			"type":"VEC3"
		},
		{
			"bufferView":10,
			"componentType":5126,
			"count":56,
			"type":"VEC2"
		},
		{
			"bufferView":11,
			"componentType":5126,
			"count":56,
			"type":"VEC4"
		},
		{
			"bufferView":12,
			"componentType":5121,
			"count":56,
			"type":"VEC4"
		},
		{
			"bufferView":13,
			"componentType":5126,
			"count":56,
			"type":"VEC4"
		},
		{
			"bufferView":14,
			"componentType":5123,
			"count":84,
			"type":"SCALAR"
		},
		{
			"bufferView":15,
			"componentType":5126,
			"count":120,
			"max":[
				1.3340898752212524,
				1.0800000429153442,
				-5.361112117767334
			],
			"min":[
				-0.9000000357627869,
				-1.079999566078186,
				-12.099998474121094
			],
			"type":"VEC3"
		},
		{
			"bufferView":16,
			"componentType":5126,
			"count":120,
			"type":"VEC3"
		},
		{
			"bufferView":17,
			"componentType":5126,
			"count":120,
			"type":"VEC2"
		},
		{
			"bufferView":18,
			"componentType":5121,
			"count":120,
			"type":"VEC4"
		},
		{
			"bufferView":19,
			"componentType":5126,
			"count":120,
			"type":"VEC4"
		},
		{
			"bufferView":20,
			"componentType":5123,
			"count":192,
			"type":"SCALAR"
		},
		{
			"bufferView":21,
			"componentType":5126,
			"count":14,
			"max":[
				0.11999998986721039,
				0.8500001430511475,
				-11.751999855041504
			],
			"min":[
				-0.11999998986721039,
				-0.7499998807907104,
				-12.64799976348877
			],
			"type":"VEC3"
		},
		{
			"bufferView":22,
			"componentType":5126,
			"count":14,
			"type":"VEC3"
		},
		{
			"bufferView":23,
			"componentType":5126,
			"count":14,
			"type":"VEC2"
		},
		{
			"bufferView":24,
			"componentType":5126,
			"count":14,
			"type":"VEC4"
		},
		{
			"bufferView":25,
			"componentType":5121,
			"count":14,
			"type":"VEC4"
		},
		{
			"bufferView":26,
			"componentType":5126,
			"count":14,
			"type":"VEC4"
		},
		{
			"bufferView":27,
			"componentType":5123,
			"count":36,
			"type":"SCALAR"
		},
		{
			"bufferView":28,
			"componentType":5126,
			"count":14,
			"max":[
				0.11999998986721039,
				0.8500003814697266,
				-5.451999664306641
			],
			"min":[
				-0.11999998986721039,
				-0.7499996423721313,
				-6.347999572753906
			],
			"type":"VEC3"
		},
		{
			"bufferView":29,
			"componentType":5126,
			"count":14,
			"type":"VEC3"
		},
		{
			"bufferView":30,
			"componentType":5126,
			"count":14,
			"type":"VEC2"
		},
		{
			"bufferView":31,
			"componentType":5126,
			"count":14,
			"type":"VEC4"
		},
		{
			"bufferView":32,
			"componentType":5121,
			"count":14,
			"type":"VEC4"
		},
		{
			"bufferView":33,
			"componentType":5126,
			"count":14,
			"type":"VEC4"
		},
		{
			"bufferView":34,
			"componentType":5126,
			"count":14,
			"max":[
				0.11999998986721039,
				1.7000000476837158,
				-17.48000144958496
			],
			"min":[
				-0.11999998986721039,
				0.9000000953674316,
				-18.1200008392334
			],
			"type":"VEC3"
		},
		{
			"bufferView":35,
			"componentType":5126,
			"count":14,
			"type":"VEC3"
		},
		{
			"bufferView":36,
			"componentType":5126,
			"count":14,
			"type":"VEC2"
		},
		{
			"bufferView":37,
			"componentType":5126,
			"count":14,
			"type":"VEC4"
		},
		{
			"bufferView":38,
			"componentType":5121,
			"count":14,
			"type":"VEC4"
		},
		{
			"bufferView":39,
			"componentType":5126,
			"count":14,
			"type":"VEC4"
		},
		{
			"bufferView":40,
			"componentType":5126,
			"count":10,
			"type":"MAT4"
		},
		{
			"bufferView":41,
			"componentType":5126,
			"count":14,
			"max":[
				0.11999998986721039,
				1.7000000476837158,
				-15.280000686645508
			],
			"min":[
				-0.11999998986721039,
				0.9000000953674316,
				-15.920000076293945
			],
			"type":"VEC3"
		},
		{
			"bufferView":42,
			"componentType":5126,
			"count":14,
			"type":"VEC3"
		},
		{
			"bufferView":43,
			"componentType":5126,
			"count":14,
			"type":"VEC2"
		},
		{
			"bufferView":44,
			"componentType":5126,
			"count":14,
			"type":"VEC4"
		},
		{
			"bufferView":45,
			"componentType":5121,
			"count":14,
			"type":"VEC4"
		},
		{
			"bufferView":46,
			"componentType":5126,
			"count":14,
			"type":"VEC4"
		},
		{
			"bufferView":47,
			"componentType":5126,
			"count":14,
			"max":[
				0.11999998986721039,
				0.1000000536441803,
				-15.280000686645508
			],
			"min":[
				-0.11999998986721039,
				-0.6999999284744263,
				-15.920000076293945
			],
			"type":"VEC3"
		},
		{
			"bufferView":48,
			"componentType":5126,
			"count":14,
			"type":"VEC3"
		},
		{
			"bufferView":49,
			"componentType":5126,
			"count":14,
			"type":"VEC2"
		},
		{
			"bufferView":50,
			"componentType":5126,
			"count":14,
			"type":"VEC4"
		},
		{
			"bufferView":51,
			"componentType":5121,
			"count":14,
			"type":"VEC4"
		},
		{
			"bufferView":52,
			"componentType":5126,
			"count":14,
			"type":"VEC4"
		},
		{
			"bufferView":53,
			"componentType":5126,
			"count":14,
			"max":[
				0.11999998986721039,
				0.1000000536441803,
				-17.48000144958496
			],
			"min":[
				-0.11999998986721039,
				-0.6999999284744263,
				-18.1200008392334
			],
			"type":"VEC3"
		},
		{
			"bufferView":54,
			"componentType":5126,
			"count":14,
			"type":"VEC3"
		},
		{
			"bufferView":55,
			"componentType":5126,
			"count":14,
			"type":"VEC2"
		},
		{
			"bufferView":56,
			"componentType":5126,
			"count":14,
			"type":"VEC4"
		},
		{
			"bufferView":57,
			"componentType":5121,
			"count":14,
			"type":"VEC4"
		},
		{
			"bufferView":58,
			"componentType":5126,
			"count":14,
			"type":"VEC4"
		},
		{
			"bufferView":59,
			"componentType":5126,
			"count":14,
			"max":[
				0.11999998986721039,
				2.4200003147125244,
				-13.40000057220459
			],
			"min":[
				-0.11999998986721039,
				1.7800003290176392,
				-14.199999809265137
			],
			"type":"VEC3"
		},
		{
			"bufferView":60,
			"componentType":5126,
			"count":14,
			"type":"VEC3"
		},
		{
			"bufferView":61,
			"componentType":5126,
			"count":14,
			"type":"VEC2"
		},
		{
			"bufferView":62,
			"componentType":5126,
			"count":14,
			"type":"VEC4"
		},
		{
			"bufferView":63,
			"componentType":5121,
			"count":14,
			"type":"VEC4"
		},
		{
			"bufferView":64,
			"componentType":5126,
			"count":14,
			"type":"VEC4"
		},
		{
			"bufferView":65,
			"componentType":5126,
			"count":14,
			"max":[
				0.11999998986721039,
				4.620001316070557,
				-13.40000057220459
			],
			"min":[
				-0.11999998986721039,
				3.980001211166382,
				-14.199999809265137
			],
			"type":"VEC3"
		},
		{
			"bufferView":66,
			"componentType":5126,
			"count":14,
			"type":"VEC3"
		},
		{
			"bufferView":67,
			"componentType":5126,
			"count":14,
			"type":"VEC2"
		},
		{
			"bufferView":68,
			"componentType":5126,
			"count":14,
			"type":"VEC4"
		},
		{
			"bufferView":69,
			"componentType":5121,
			"count":14,
			"type":"VEC4"
		},
		{
			"bufferView":70,
			"componentType":5126,
			"count":14,
			"type":"VEC4"
		},
		{
			"bufferView":71,
			"componentType":5126,
			"count":70,
			"max":[
				0.5000000596046448,
				2.1000003814697266,
				-12.399999618530273
			],
			"min":[
				-0.5000000596046448,
				-1.100000023841858,
				-15.600000381469727
			],
			"type":"VEC3"
		},
		{
			"bufferView":72,
			"componentType":5126,
			"count":70,
			"type":"VEC3"
		},
		{
			"bufferView":73,
			"componentType":5126,
			"count":70,
			"type":"VEC2"
		},
		{
			"bufferView":74,
			"componentType":5121,
			"count":70,
			"type":"VEC4"
		},
		{
			"bufferView":75,
			"componentType":5126,
			"count":70,
			"type":"VEC4"
		},
		{
			"bufferView":76,
			"componentType":5123,
			"count":108,
			"type":"SCALAR"
		},
		{
			"bufferView":77,
			"componentType":5126,
			"count":56,
			"max":[
				0.4000000059604645,
				1.9000000953674316,
				-18
			],
			"min":[
				-0.4000000059604645,
				0.7000002264976501,
				-20
			],
			"type":"VEC3"
		},
		{
			"bufferView":78,
			"componentType":5126,
			"count":56,
			"type":"VEC3"
		},
		{
			"bufferView":79,
			"componentType":5126,
			"count":56,
			"type":"VEC2"
		},
		{
			"bufferView":80,
			"componentType":5126,
			"count":56,
			"type":"VEC4"
		},
		{
			"bufferView":81,
			"componentType":5121,
			"count":56,
			"type":"VEC4"
		},
		{
			"bufferView":82,
			"componentType":5126,
			"count":56,
			"type":"VEC4"
		},
		{
			"bufferView":83,
			"componentType":5126,
			"count":56,
			"max":[
				0.4000000059604645,
				1.9000000953674316,
				-15.800000190734863
			],
			"min":[
				-0.4000000059604645,
				0.7000002264976501,
				-17.799999237060547
			],
			"type":"VEC3"
		},
		{
			"bufferView":84,
			"componentType":5126,
			"count":56,
			"type":"VEC3"
		},
		{
			"bufferView":85,
			"componentType":5126,
			"count":56,
			"type":"VEC2"
		},
		{
			"bufferView":86,
			"componentType":5126,
			"count":56,
			"type":"VEC4"
		},
		{
			"bufferView":87,
			"componentType":5121,
			"count":56,
			"type":"VEC4"
		},
		{
			"bufferView":88,
			"componentType":5126,
			"count":56,
			"type":"VEC4"
		},
		{
			"bufferView":89,
			"componentType":5126,
			"count":56,
			"max":[
				0.4000000059604645,
				0.30000007152557373,
				-15.800000190734863
			],
			"min":[
				-0.4000000059604645,
				-0.8999997973442078,
				-17.799999237060547
			],
			"type":"VEC3"
		},
		{
			"bufferView":90,
			"componentType":5126,
			"count":56,
			"type":"VEC3"
		},
		{
			"bufferView":91,
			"componentType":5126,
			"count":56,
			"type":"VEC2"
		},
		{
			"bufferView":92,
			"componentType":5126,
			"count":56,
			"type":"VEC4"
		},
		{
			"bufferView":93,
			"componentType":5121,
			"count":56,
			"type":"VEC4"
		},
		{
			"bufferView":94,
			"componentType":5126,
			"count":56,
			"type":"VEC4"
		},
		{
			"bufferView":95,
			"componentType":5126,
			"count":56,
			"max":[
				0.4000000059604645,
				0.30000007152557373,
				-18
			],
			"min":[
				-0.4000000059604645,
				-0.8999997973442078,
				-20
			],
			"type":"VEC3"
		},
		{
			"bufferView":96,
			"componentType":5126,
			"count":56,
			"type":"VEC3"
		},
		{
			"bufferView":97,
			"componentType":5126,
			"count":56,
			"type":"VEC2"
		},
		{
			"bufferView":98,
			"componentType":5126,
			"count":56,
			"type":"VEC4"
		},
		{
			"bufferView":99,
			"componentType":5121,
			"count":56,
			"type":"VEC4"
		},
		{
			"bufferView":100,
			"componentType":5126,
			"count":56,
			"type":"VEC4"
		},
		{
			"bufferView":101,
			"componentType":5126,
			"count":56,
			"max":[
				0.4000000059604645,
				4.299999713897705,
				-13.199999809265137
			],
			"min":[
				-0.4000000059604645,
				2.3000004291534424,
				-14.399999618530273
			],
			"type":"VEC3"
		},
		{
			"bufferView":102,
			"componentType":5126,
			"count":56,
			"type":"VEC3"
		},
		{
			"bufferView":103,
			"componentType":5126,
			"count":56,
			"type":"VEC2"
		},
		{
			"bufferView":104,
			"componentType":5126,
			"count":56,
			"type":"VEC4"
		},
		{
			"bufferView":105,
			"componentType":5121,
			"count":56,
			"type":"VEC4"
		},
		{
			"bufferView":106,
			"componentType":5126,
			"count":56,
			"type":"VEC4"
		},
		{
			"bufferView":107,
			"componentType":5123,
			"count":84,
			"type":"SCALAR"
		},
		{
			"bufferView":108,
			"componentType":5126,
			"count":56,
			"max":[
				0.4000000059604645,
				6.499999523162842,
				-13.199999809265137
			],
			"min":[
				-0.4000000059604645,
				4.500000476837158,
				-14.399999618530273
			],
			"type":"VEC3"
		},
		{
			"bufferView":109,
			"componentType":5126,
			"count":56,
			"type":"VEC3"
		},
		{
			"bufferView":110,
			"componentType":5126,
			"count":56,
			"type":"VEC2"
		},
		{
			"bufferView":111,
			"componentType":5126,
			"count":56,
			"type":"VEC4"
		},
		{
			"bufferView":112,
			"componentType":5121,
			"count":56,
			"type":"VEC4"
		},
		{
			"bufferView":113,
			"componentType":5126,
			"count":56,
			"type":"VEC4"
		},
		{
			"bufferView":114,
			"componentType":5126,
			"count":2,
			"max":[
				8.416666666666666
			],
			"min":[
				0.041666666666666664
			],
			"type":"SCALAR"
		},
		{
			"bufferView":115,
			"componentType":5126,
			"count":2,
			"type":"VEC3"
		},
		{
			"bufferView":116,
			"componentType":5126,
			"count":202,
			"max":[
				8.416666666666666
			],
			"min":[
				0.041666666666666664
			],
			"type":"SCALAR"
		},
		{
			"bufferView":117,
			"componentType":5126,
			"count":202,
			"type":"VEC4"
		},
		{
			"bufferView":118,
			"componentType":5126,
			"count":2,
			"type":"VEC3"
		},
		{
			"bufferView":119,
			"componentType":5126,
			"count":2,
			"type":"VEC3"
		},
		{
			"bufferView":120,
			"componentType":5126,
			"count":202,
			"type":"VEC4"
		},
		{
			"bufferView":121,
			"componentType":5126,
			"count":2,
			"type":"VEC3"
		},
		{
			"bufferView":122,
			"componentType":5126,
			"count":2,
			"type":"VEC3"
		},
		{
			"bufferView":123,
			"componentType":5126,
			"count":202,
			"type":"VEC4"
		},
		{
			"bufferView":124,
			"componentType":5126,
			"count":2,
			"max":[
				1.5
			],
			"min":[
				0.041666666666666664
			],
			"type":"SCALAR"
		},
		{
			"bufferView":125,
			"componentType":5126,
			"count":2,
			"type":"VEC4"
		},
		{
			"bufferView":126,
			"componentType":5126,
			"count":2,
			"type":"VEC3"
		},
		{
			"bufferView":127,
			"componentType":5126,
			"count":2,
			"type":"VEC3"
		},
		{
			"bufferView":128,
			"componentType":5126,
			"count":36,
			"max":[
				1.5
			],
			"min":[
				0.041666666666666664
			],
			"type":"SCALAR"
		},
		{
			"bufferView":129,
			"componentType":5126,
			"count":36,
			"type":"VEC4"
		},
		{
			"bufferView":130,
			"componentType":5126,
			"count":2,
			"type":"VEC3"
		},
		{
			"bufferView":131,
			"componentType":5126,
			"count":2,
			"type":"VEC3"
		},
		{
			"bufferView":132,
			"componentType":5126,
			"count":36,
			"type":"VEC4"
		},
		{
			"bufferView":133,
			"componentType":5126,
			"count":2,
			"type":"VEC3"
		},
		{
			"bufferView":134,
			"componentType":5126,
			"count":2,
			"type":"VEC3"
		},
		{
			"bufferView":135,
			"componentType":5126,
			"count":36,
			"type":"VEC4"
		},
		{
			"bufferView":136,
			"componentType":5126,
			"count":2,
			"type":"VEC3"
		},
		{
			"bufferView":137,
			"componentType":5126,
			"count":2,
			"type":"VEC3"
		},
		{
			"bufferView":138,
			"componentType":5126,
			"count":36,
			"type":"VEC4"
		},
		{
			"bufferView":139,
			"componentType":5126,
			"count":2,
			"type":"VEC3"
		},
		{
			"bufferView":140,
			"componentType":5126,
			"count":2,
			"type":"VEC3"
		},
		{
			"bufferView":141,
			"componentType":5126,
			"count":36,
			"type":"VEC4"
		},
		{
			"bufferView":142,
			"componentType":5126,
			"count":2,
			"type":"VEC3"
		},
		{
			"bufferView":143,
			"componentType":5126,
			"count":2,
			"type":"VEC3"
		},
		{
			"bufferView":144,
			"componentType":5126,
			"count":36,
			"type":"VEC4"
		},
		{
			"bufferView":145,
			"componentType":5126,
			"count":2,
			"type":"VEC3"
		},
		{
			"bufferView":146,
			"componentType":5126,
			"count":2,
			"type":"VEC3"
		},
		{
			"bufferView":147,
			"componentType":5126,
			"count":36,
			"type":"VEC4"
		},
		{
			"bufferView":148,
			"componentType":5126,
			"count":2,
			"type":"VEC3"
		},
		{
			"bufferView":149,
			"componentType":5126,
			"count":2,
			"type":"VEC3"
		},
		{
			"bufferView":150,
			"componentType":5126,
			"count":36,
			"type":"VEC4"
		},
		{
			"bufferView":151,
			"componentType":5126,
			"count":2,
			"type":"VEC3"
		},
		{
			"bufferView":152,
			"componentType":5126,
			"count":36,
			"type":"VEC4"
		}
	],
	"bufferViews":[
		{
			"buffer":0,
			"byteLength":288,
			"byteOffset":0,
			"target":34962
		},
		{
			"buffer":0,
			"byteLength":288,
			"byteOffset":288,
			"target":34962
		},
		{
			"buffer":0,
			"byteLength":192,
			"byteOffset":576,
			"target":34962
		},
		{
			"buffer":0,
			"byteLength":384,
			"byteOffset":768,
			"target":34962
		},
		{
			"buffer":0,
			"byteLength":96,
			"byteOffset":1152,
			"target":34962
		},
		{
			"buffer":0,
			"byteLength":384,
			"byteOffset":1248,
			"target":34962
		},
		{
			"buffer":0,
			"byteLength":72,
			"byteOffset":1632,
			"target":34963
		},
		{
			"buffer":0,
			"byteLength":192,
			"byteOffset":1704
		},
		{
			"buffer":0,
			"byteLength":672,
			"byteOffset":1896,
			"target":34962
		},
		{
			"buffer":0,
			"byteLength":672,
			"byteOffset":2568,
			"target":34962
		},
		{
			"buffer":0,
			"byteLength":448,
			"byteOffset":3240,
			"target":34962
		},
		{
			"buffer":0,
			"byteLength":896,
			"byteOffset":3688,
			"target":34962
		},
		{
			"buffer":0,
			"byteLength":224,
			"byteOffset":4584,
			"target":34962
		},
		{
			"buffer":0,
			"byteLength":896,
			"byteOffset":4808,
			"target":34962
		},
		{
			"buffer":0,
			"byteLength":168,
			"byteOffset":5704,
			"target":34963
		},
		{
			"buffer":0,
			"byteLength":1440,
			"byteOffset":5872,
			"target":34962
		},
		{
			"buffer":0,
			"byteLength":1440,
			"byteOffset":7312,
			"target":34962
		},
		{
			"buffer":0,
			"byteLength":960,
			"byteOffset":8752,
			"target":34962
		},
		{
			"buffer":0,
			"byteLength":480,
			"byteOffset":9712,
			"target":34962
		},
		{
			"buffer":0,
			"byteLength":1920,
			"byteOffset":10192,
			"target":34962
		},
		{
			"buffer":0,
			"byteLength":384,
			"byteOffset":12112,
			"target":34963
		},
		{
			"buffer":0,
			"byteLength":168,
			"byteOffset":12496,
			"target":34962
		},
		{
			"buffer":0,
			"byteLength":168,
			"byteOffset":12664,
			"target":34962
		},
		{
			"buffer":0,
			"byteLength":112,
			"byteOffset":12832,
			"target":34962
		},
		{
			"buffer":0,
			"byteLength":224,
			"byteOffset":12944,
			"target":34962
		},
		{
			"buffer":0,
			"byteLength":56,
			"byteOffset":13168,
			"target":34962
		},
		{
			"buffer":0,
			"byteLength":224,
			"byteOffset":13224,
			"target":34962
		},
		{
			"buffer":0,
			"byteLength":72,
			"byteOffset":13448,
			"target":34963
		},
		{
			"buffer":0,
			"byteLength":168,
			"byteOffset":13520,
			"target":34962
		},
		{
			"buffer":0,
			"byteLength":168,
			"byteOffset":13688,
			"target":34962
		},
		{
			"buffer":0,
			"byteLength":112,
			"byteOffset":13856,
			"target":34962
		},
		{
			"buffer":0,
			"byteLength":224,
			"byteOffset":13968,
			"target":34962
		},
		{
			"buffer":0,
			"byteLength":56,
			"byteOffset":14192,
			"target":34962
		},
		{
			"buffer":0,
			"byteLength":224,
			"byteOffset":14248,
			"target":34962
		},
		{
			"buffer":0,
			"byteLength":168,
			"byteOffset":14472,
			"target":34962
		},
		{
			"buffer":0,
			"byteLength":168,
			"byteOffset":14640,
			"target":34962
		},
		{
			"buffer":0,
			"byteLength":112,
			"byteOffset":14808,
			"target":34962
		},
		{
			"buffer":0,
			"byteLength":224,
			"byteOffset":14920,
			"target":34962
		},
		{
			"buffer":0,
			"byteLength":56,
			"byteOffset":15144,
			"target":34962
		},
		{
			"buffer":0,
			"byteLength":224,
			"byteOffset":15200,
			"target":34962
		},
		{
			"buffer":0,
			"byteLength":640,
			"byteOffset":15424
		},
		{
			"buffer":0,
			"byteLength":168,
			"byteOffset":16064,
			"target":34962
		},
		{
			"buffer":0,
			"byteLength":168,
			"byteOffset":16232,
			"target":34962
		},
		{
			"buffer":0,
			"byteLength":112,
			"byteOffset":16400,
			"target":34962
		},
		{
			"buffer":0,
			"byteLength":224,
			"byteOffset":16512,
			"target":34962
		},
		{
			"buffer":0,
			"byteLength":56,
			"byteOffset":16736,
			"target":34962
		},
		{
			"buffer":0,
			"byteLength":224,
			"byteOffset":16792,
			"target":34962
		},
		{
			"buffer":0,
			"byteLength":168,
			"byteOffset":17016,
			"target":34962
		},
		{
			"buffer":0,
			"byteLength":168,
			"byteOffset":17184,
			"target":34962
		},
		{
			"buffer":0,
			"byteLength":112,
			"byteOffset":17352,
			"target":34962
		},
		{
			"buffer":0,
			"byteLength":224,
			"byteOffset":17464,
			"target":34962
		},
		{
			"buffer":0,
			"byteLength":56,
			"byteOffset":17688,
			"target":34962
		},
		{
			"buffer":0,
			"byteLength":224,
			"byteOffset":17744,
			"target":34962
		},
		{
			"buffer":0,
			"byteLength":168,
			"byteOffset":17968,
			"target":34962
		},
		{
			"buffer":0,
			"byteLength":168,
			"byteOffset":18136,
			"target":34962
		},
		{
			"buffer":0,
			"byteLength":112,
			"byteOffset":18304,
			"target":34962
		},
		{
			"buffer":0,
			"byteLength":224,
			"byteOffset":18416,
			"target":34962
		},
		{
			"buffer":0,
			"byteLength":56,
			"byteOffset":18640,
			"target":34962
		},
		{
			"buffer":0,
			"byteLength":224,
			"byteOffset":18696,
			"target":34962
		},
		{
			"buffer":0,
			"byteLength":168,
			"byteOffset":18920,
			"target":34962
		},
		{
			"buffer":0,
			"byteLength":168,
			"byteOffset":19088,
			"target":34962
		},
		{
			"buffer":0,
			"byteLength":112,
			"byteOffset":19256,
			"target":34962
		},
		{
			"buffer":0,
			"byteLength":224,
			"byteOffset":19368,
			"target":34962
		},
		{
			"buffer":0,
			"byteLength":56,
			"byteOffset":19592,
			"target":34962
		},
		{
			"buffer":0,
			"byteLength":224,
			"byteOffset":19648,
			"target":34962
		},
		{
			"buffer":0,
			"byteLength":168,
			"byteOffset":19872,
			"target":34962
		},
		{
			"buffer":0,
			"byteLength":168,
			"byteOffset":20040,
			"target":34962
		},
		{
			"buffer":0,
			"byteLength":112,
			"byteOffset":20208,
			"target":34962
		},
		{
			"buffer":0,
			"byteLength":224,
			"byteOffset":20320,
			"target":34962
		},
		{
			"buffer":0,
			"byteLength":56,
			"byteOffset":20544,
			"target":34962
		},
		{
			"buffer":0,
			"byteLength":224,
			"byteOffset":20600,
			"target":34962
		},
		{
			"buffer":0,
			"byteLength":840,
			"byteOffset":20824,
			"target":34962
		},
		{
			"buffer":0,
			"byteLength":840,
			"byteOffset":21664,
			"target":34962
		},
		{
			"buffer":0,
			"byteLength":560,
			"byteOffset":22504,
			"target":34962
		},
		{
			"buffer":0,
			"byteLength":280,
			"byteOffset":23064,
			"target":34962
		},
		{
			"buffer":0,
			"byteLength":1120,
			"byteOffset":23344,
			"target":34962
		},
		{
			"buffer":0,
			"byteLength":216,
			"byteOffset":24464,
			"target":34963
		},
		{
			"buffer":0,
			"byteLength":672,
			"byteOffset":24680,
			"target":34962
		},
		{
			"buffer":0,
			"byteLength":672,
			"byteOffset":25352,
			"target":34962
		},
		{
			"buffer":0,
			"byteLength":448,
			"byteOffset":26024,
			"target":34962
		},
		{
			"buffer":0,
			"byteLength":896,
			"byteOffset":26472,
			"target":34962
		},
		{
			"buffer":0,
			"byteLength":224,
			"byteOffset":27368,
			"target":34962
		},
		{
			"buffer":0,
			"byteLength":896,
			"byteOffset":27592,
			"target":34962
		},
		{
			"buffer":0,
			"byteLength":672,
			"byteOffset":28488,
			"target":34962
		},
		{
			"buffer":0,
			"byteLength":672,
			"byteOffset":29160,
			"target":34962
		},
		{
			"buffer":0,
			"byteLength":448,
			"byteOffset":29832,
			"target":34962
		},
		{
			"buffer":0,
			"byteLength":896,
			"byteOffset":30280,
			"target":34962
		},
		{
			"buffer":0,
			"byteLength":224,
			"byteOffset":31176,
			"target":34962
		},
		{
			"buffer":0,
			"byteLength":896,
			"byteOffset":31400,
			"target":34962
		},
		{
			"buffer":0,
			"byteLength":672,
			"byteOffset":32296,
			"target":34962
		},
		{
			"buffer":0,
			"byteLength":672,
			"byteOffset":32968,
			"target":34962
		},
		{
			"buffer":0,
			"byteLength":448,
			"byteOffset":33640,
			"target":34962
		},
		{
			"buffer":0,
			"byteLength":896,
			"byteOffset":34088,
			"target":34962
		},
		{
			"buffer":0,
			"byteLength":224,
			"byteOffset":34984,
			"target":34962
		},
		{
			"buffer":0,
			"byteLength":896,
			"byteOffset":35208,
			"target":34962
		},
		{
			"buffer":0,
			"byteLength":672,
			"byteOffset":36104,
			"target":34962
		},
		{
			"buffer":0,
			"byteLength":672,
			"byteOffset":36776,
			"target":34962
		},
		{
			"buffer":0,
			"byteLength":448,
			"byteOffset":37448,
			"target":34962
		},
		{
			"buffer":0,
			"byteLength":896,
			"byteOffset":37896,
			"target":34962
		},
		{
			"buffer":0,
			"byteLength":224,
			"byteOffset":38792,
			"target":34962
		},
		{
			"buffer":0,
			"byteLength":896,
			"byteOffset":39016,
			"target":34962
		},
		{
			"buffer":0,
			"byteLength":672,
			"byteOffset":39912,
			"target":34962
		},
		{
			"buffer":0,
			"byteLength":672,
			"byteOffset":40584,
			"target":34962
		},
		{
			"buffer":0,
			"byteLength":448,
			"byteOffset":41256,
			"target":34962
		},
		{
			"buffer":0,
			"byteLength":896,
			"byteOffset":41704,
			"target":34962
		},
		{
			"buffer":0,
			"byteLength":224,
			"byteOffset":42600,
			"target":34962
		},
		{
			"buffer":0,
			"byteLength":896,
			"byteOffset":42824,
			"target":34962
		},
		{
			"buffer":0,
			"byteLength":168,
			"byteOffset":43720,
			"target":34963
		},
		{
			"buffer":0,
			"byteLength":672,
			"byteOffset":43888,
			"target":34962
		},
		{
			"buffer":0,
			"byteLength":672,
			"byteOffset":44560,
			"target":34962
		},
		{
			"buffer":0,
			"byteLength":448,
			"byteOffset":45232,
			"target":34962
		},
		{
			"buffer":0,
			"byteLength":896,
			"byteOffset":45680,
			"target":34962
		},
		{
			"buffer":0,
			"byteLength":224,
			"byteOffset":46576,
			"target":34962
		},
		{
			"buffer":0,
			"byteLength":896,
			"byteOffset":46800,
			"target":34962
		},
		{
			"buffer":0,
			"byteLength":8,
			"byteOffset":47696
		},
		{
			"buffer":0,
			"byteLength":24,
			"byteOffset":47704
		},
		{
			"buffer":0,
			"byteLength":808,
			"byteOffset":47728
		},
		{
			"buffer":0,
			"byteLength":3232,
			"byteOffset":48536
		},
		{
			"buffer":0,
			"byteLength":24,
			"byteOffset":51768
		},
		{
			"buffer":0,
			"byteLength":24,
			"byteOffset":51792
		},
		{
			"buffer":0,
			"byteLength":3232,
			"byteOffset":51816
		},
		{
			"buffer":0,
			"byteLength":24,
			"byteOffset":55048
		},
		{
			"buffer":0,
			"byteLength":24,
			"byteOffset":55072
		},
		{
			"buffer":0,
			"byteLength":3232,
			"byteOffset":55096
		},
		{
			"buffer":0,
			"byteLength":8,
			"byteOffset":58328
		},
		{
			"buffer":0,
			"byteLength":32,
			"byteOffset":58336
		},
		{
			"buffer":0,
			"byteLength":24,
			"byteOffset":58368
		},
		{
			"buffer":0,
			"byteLength":24,
			"byteOffset":58392
		},
		{
			"buffer":0,
			"byteLength":144,
			"byteOffset":58416
		},
		{
			"buffer":0,
			"byteLength":576,
			"byteOffset":58560
		},
		{
			"buffer":0,
			"byteLength":24,
			"byteOffset":59136
		},
		{
			"buffer":0,
			"byteLength":24,
			"byteOffset":59160
		},
		{
			"buffer":0,
			"byteLength":576,
			"byteOffset":59184
		},
		{
			"buffer":0,
			"byteLength":24,
			"byteOffset":59760
		},
		{
			"buffer":0,
			"byteLength":24,
			"byteOffset":59784
		},
		{
			"buffer":0,
			"byteLength":576,
			"byteOffset":59808
		},
		{
			"buffer":0,
			"byteLength":24,
			"byteOffset":60384
		},
		{
			"buffer":0,
			"byteLength":24,
			"byteOffset":60408
		},
		{
			"buffer":0,
			"byteLength":576,
			"byteOffset":60432
		},
		{
			"buffer":0,
			"byteLength":24,
			"byteOffset":61008
		},
		{
			"buffer":0,
			"byteLength":24,
			"byteOffset":61032
		},
		{
			"buffer":0,
			"byteLength":576,
			"byteOffset":61056
		},
		{
			"buffer":0,
			"byteLength":24,
			"byteOffset":61632
		},
		{
			"buffer":0,
			"byteLength":24,
			"byteOffset":61656
		},
		{
			"buffer":0,
			"byteLength":576,
			"byteOffset":61680
		},
		{
			"buffer":0,
			"byteLength":24,
			"byteOffset":62256
		},
		{
			"buffer":0,
			"byteLength":24,
			"byteOffset":62280
		},
		{
			"buffer":0,
			"byteLength":576,
			"byteOffset":62304
		},
		{
			"buffer":0,
			"byteLength":24,
			"byteOffset":62880
		},
		{
			"buffer":0,
			"byteLength":24,
			"byteOffset":62904
		},
		{
			"buffer":0,
			"byteLength":576,
			"byteOffset":62928
		},
		{
			"buffer":0,
			"byteLength":24,
			"byteOffset":63504
		},
		{
			"buffer":0,
			"byteLength":576,
			"byteOffset":63528
		}
	],
	"samplers":[
		{
			"magFilter":9729,
			"minFilter":9987
		}
	],
	"buffers":[
		{
			"byteLength":64104,
			"uri":"hand2-961e19d78a9364451fb95b2764cb2a95.bin"
		}
	]
}
