{
	"asset":{
		"generator":"Khronos glTF Blender I/O v4.5.48",
		"version":"2.0"
	},
	"scene":0,
	"scenes":[
		{
			"name":"Scene",
			"nodes":[
				0,
				30
			]
		}
	],
	"nodes":[
		{
			"camera":0,
			"name":"Camera",
			"translation":[
				-10,
				4,
				40
			]
		},
		{
			"name":"thumb.002",
			"rotation":[
				8.470329472543003e-22,
				0,
				2.1175813583937922e-22,
				1
			],
			"translation":[
				0,
				2.200000047683716,
				0
			]
		},
		{
			"children":[
				1
			],
			"name":"thumb.001",
			"rotation":[
				1.4901161193847656e-08,
				1.7763568394002505e-14,
				3.5527132552840273e-15,
				1
			],
			"translation":[
				-1.5631937137403594e-14,
				1.7000000476837158,
				6.556511067401516e-08
			]
		},
		{
			"children":[
				2
			],
			"name":"thumb",
			"rotation":[
				0.6051265001296997,
				9.49059995036805e-08,
				7.213668595795752e-08,
				0.7961293458938599
			],
			"scale":[
				1,
				0.9999999403953552,
				1
			],
			"translation":[
				0,
				1.8681540489196777,
				-1.1920928955078125e-07
			]
		},
		{
			"name":"index.002",
			"translation":[
				0,
				2.2500009536743164,
				0
			]
		},
		{
			"children":[
				4
			],
			"name":"index.001",
			"rotation":[
				-0.21815280616283417,
				0,
				0,
				0.9759146571159363
			],
			"scale":[
				1,
				1,
				0.9999999403953552
			],
			"translation":[
				0,
				1.878828763961792,
				3.5762786865234375e-07
			]
		},
		{
			"children":[
				5
			],
			"name":"index",
			"rotation":[
				0.08434755355119705,
				0,
				0,
				0.9964364171028137
			],
			"scale":[
				1,
				0.9999998807907104,
				0.9999999403953552
			],
			"translation":[
				0,
				1.8681540489196777,
				-1.1920928955078125e-07
			]
		},
		{
			"name":"ring.002",
			"translation":[
				0,
				2.2500009536743164,
				0
			]
		},
		{
			"children":[
				7
			],
			"name":"ring.001",
			"rotation":[
				0.21815280616283417,
				0,
				0,
				0.9759146571159363
			],
			"translation":[
				0,
				1.8788281679153442,
				-2.980232238769531e-07
			]
		},
		{
			"children":[
				8
			],
			"name":"ring",
			"rotation":[
				-0.3479604423046112,
				0,
				0,
				0.9375092387199402
			],
			"translation":[
				0,
				1.8681540489196777,
				-1.1920928955078125e-07
			]
		},
		{
			"children":[
				3,
				6,
				9
			],
			"name":"palm",
			"rotation":[
				0.1350594013929367,
				0,
				0,
				0.9908375144004822
			],
			"translation":[
				0,
				6.199999809265137,
				0
			]
		},
		{
			"children":[
				10
			],
			"name":"forearm",
			"translation":[
				0,
				6,
				0
			]
		},
		{
			"children":[
				11
			],
			"name":"bicep",
			"rotation":[
				-0.7071067690849304,
				0,
				0,
				0.7071067690849304
			]
		},
		{
			"mesh":0,
			"name":"bicep",
			"skin":0
		},
		{
			"mesh":1,
			"name":"forearm",
			"skin":0
		},
		{
			"mesh":2,
			"name":"joint",
			"skin":0
		},
		{
			"mesh":3,
			"name":"joint.001",
			"skin":0
		},
		{
			"mesh":4,
			"name":"joint.002",
			"skin":0
		},
		{
			"mesh":5,
			"name":"joint.003",
			"skin":0
		},
		{
			"mesh":6,
			"name":"joint.004",
			"skin":0
		},
		{
			"mesh":7,
			"name":"joint.005",
			"skin":0
		},
		{
			"extras":{
				"ant_landscape":{}
			},
			"mesh":8,
			"name":"joint.006",
			"skin":0
		},
		{
			"extras":{
				"ant_landscape":{}
			},
			"mesh":9,
			"name":"joint.007",
			"skin":0
		},
		{
			"mesh":10,
			"name":"palm",
			"skin":0
		},
		{
			"mesh":11,
			"name":"section",
			"skin":0
		},
		{
			"mesh":12,
			"name":"section.001",
			"skin":0
		},
		{
			"mesh":13,
			"name":"section.002",
			"skin":0
		},
		{
			"mesh":14,
			"name":"section.003",
			"skin":0
		},
		{
			"mesh":15,
			"name":"section.004",
			"skin":0
		},
		{
			"mesh":16,
			"name":"section.005",
			"skin":0
		},
		{
			"children":[
				13,
				14,
				15,
				16,
				17,
				18,
				19,
				20,
				21,
				22,
				23,
				24,
				25,
				26,
				27,
				28,
				29,
				12
			],
			"name":"Armature"
		}
	],
	"cameras":[
		{
			"name":"Camera",
			"perspective":{
				"aspectRatio":1.7777777777777777,
				"yfov":0.39959652046304894,
				"zfar":1000,
				"znear":0.10000000149011612
			},
			"type":"perspective"
		}
	],
	"animations":[
		{
			"channels":[
				{
					"sampler":0,
					"target":{
						"node":12,
						"path":"translation"
					}
				},
				{
					"sampler":1,
					"target":{
						"node":12,
						"path":"rotation"
					}
				},
				{
					"sampler":2,
					"target":{
						"node":12,
						"path":"scale"
					}
				},
				{
					"sampler":3,
					"target":{
						"node":11,
						"path":"translation"
					}
				},
				{
					"sampler":4,
					"target":{
						"node":11,
						"path":"rotation"
					}
				},
				{
					"sampler":5,
					"target":{
						"node":11,
						"path":"scale"
					}
				},
				{
					"sampler":6,
					"target":{
						"node":10,
						"path":"translation"
					}
				},
				{
					"sampler":7,
					"target":{
						"node":10,
						"path":"rotation"
					}
				},
				{
					"sampler":8,
					"target":{
						"node":10,
						"path":"scale"
					}
				},
				{
					"sampler":9,
					"target":{
						"node":3,
						"path":"translation"
					}
				},
				{
					"sampler":10,
					"target":{
						"node":3,
						"path":"rotation"
					}
				},
				{
					"sampler":11,
					"target":{
						"node":3,
						"path":"scale"
					}
				},
				{
					"sampler":12,
					"target":{
						"node":2,
						"path":"translation"
					}
				},
				{
					"sampler":13,
					"target":{
						"node":2,
						"path":"rotation"
					}
				},
				{
					"sampler":14,
					"target":{
						"node":2,
						"path":"scale"
					}
				},
				{
					"sampler":15,
					"target":{
						"node":1,
						"path":"translation"
					}
				},
				{
					"sampler":16,
					"target":{
						"node":1,
						"path":"rotation"
					}
				},
				{
					"sampler":17,
					"target":{
						"node":1,
						"path":"scale"
					}
				},
				{
					"sampler":18,
					"target":{
						"node":6,
						"path":"translation"
					}
				},
				{
					"sampler":19,
					"target":{
						"node":6,
						"path":"rotation"
					}
				},
				{
					"sampler":20,
					"target":{
						"node":6,
						"path":"scale"
					}
				},
				{
					"sampler":21,
					"target":{
						"node":5,
						"path":"translation"
					}
				},
				{
					"sampler":22,
					"target":{
						"node":5,
						"path":"rotation"
					}
				},
				{
					"sampler":23,
					"target":{
						"node":5,
						"path":"scale"
					}
				},
				{
					"sampler":24,
					"target":{
						"node":4,
						"path":"translation"
					}
				},
				{
					"sampler":25,
					"target":{
						"node":4,
						"path":"rotation"
					}
				},
				{
					"sampler":26,
					"target":{
						"node":4,
						"path":"scale"
					}
				},
				{
					"sampler":27,
					"target":{
						"node":9,
						"path":"translation"
					}
				},
				{
					"sampler":28,
					"target":{
						"node":9,
						"path":"rotation"
					}
				},
				{
					"sampler":29,
					"target":{
						"node":9,
						"path":"scale"
					}
				},
				{
					"sampler":30,
					"target":{
						"node":8,
						"path":"translation"
					}
				},
				{
					"sampler":31,
					"target":{
						"node":8,
						"path":"rotation"
					}
				},
				{
					"sampler":32,
					"target":{
						"node":8,
						"path":"scale"
					}
				},
				{
					"sampler":33,
					"target":{
						"node":7,
						"path":"translation"
					}
				},
				{
					"sampler":34,
					"target":{
						"node":7,
						"path":"rotation"
					}
				},
				{
					"sampler":35,
					"target":{
						"node":7,
						"path":"scale"
					}
				}
			],
			"name":"ArmatureAction",
			"samplers":[
				{
					"input":106,
					"interpolation":"STEP",
					"output":107
				},
				{
					"input":108,
					"interpolation":"LINEAR",
					"output":109
				},
				{
					"input":106,
					"interpolation":"STEP",
					"output":110
				},
				{
					"input":106,
					"interpolation":"LINEAR",
					"output":111
				},
				{
					"input":108,
					"interpolation":"LINEAR",
					"output":112
				},
				{
					"input":106,
					"interpolation":"STEP",
					"output":110
				},
				{
					"input":106,
					"interpolation":"LINEAR",
					"output":113
				},
				{
					"input":108,
					"interpolation":"LINEAR",
					"output":114
				},
				{
					"input":106,
					"interpolation":"STEP",
					"output":110
				},
				{
					"input":106,
					"interpolation":"LINEAR",
					"output":115
				},
				{
					"input":108,
					"interpolation":"LINEAR",
					"output":116
				},
				{
					"input":106,
					"interpolation":"STEP",
					"output":117
				},
				{
					"input":106,
					"interpolation":"LINEAR",
					"output":118
				},
				{
					"input":108,
					"interpolation":"LINEAR",
					"output":119
				},
				{
					"input":106,
					"interpolation":"STEP",
					"output":120
				},
				{
					"input":106,
					"interpolation":"LINEAR",
					"output":121
				},
				{
					"input":108,
					"interpolation":"LINEAR",
					"output":122
				},
				{
					"input":106,
					"interpolation":"STEP",
					"output":110
				},
				{
					"input":106,
					"interpolation":"LINEAR",
					"output":123
				},
				{
					"input":108,
					"interpolation":"LINEAR",
					"output":124
				},
				{
					"input":106,
					"interpolation":"STEP",
					"output":125
				},
				{
					"input":106,
					"interpolation":"LINEAR",
					"output":126
				},
				{
					"input":108,
					"interpolation":"LINEAR",
					"output":127
				},
				{
					"input":106,
					"interpolation":"STEP",
					"output":128
				},
				{
					"input":106,
					"interpolation":"LINEAR",
					"output":129
				},
				{
					"input":108,
					"interpolation":"LINEAR",
					"output":130
				},
				{
					"input":106,
					"interpolation":"STEP",
					"output":110
				},
				{
					"input":106,
					"interpolation":"LINEAR",
					"output":131
				},
				{
					"input":108,
					"interpolation":"LINEAR",
					"output":132
				},
				{
					"input":106,
					"interpolation":"STEP",
					"output":110
				},
				{
					"input":106,
					"interpolation":"LINEAR",
					"output":133
				},
				{
					"input":108,
					"interpolation":"LINEAR",
					"output":134
				},
				{
					"input":106,
					"interpolation":"STEP",
					"output":110
				},
				{
					"input":106,
					"interpolation":"STEP",
					"output":135
				},
				{
					"input":108,
					"interpolation":"LINEAR",
					"output":136
				},
				{
					"input":106,
					"interpolation":"STEP",
					"output":110
				}
			]
		}
	],
	"materials":[
		{
			"doubleSided":true,
			"name":"Material",
			"pbrMetallicRoughness":{
				"baseColorTexture":{
					"index":0
				},
				"metallicFactor":0,
				"roughnessFactor":0.5
			}
		}
	],
	"meshes":[
		{
			"name":"Cube.004",
			"primitives":[
				{
					"attributes":{
						"POSITION":0,
						"NORMAL":1,
						"TEXCOORD_0":2,
						"TANGENT":3,
						"JOINTS_0":4,
						"WEIGHTS_0":5
					},
					"indices":6,
					"material":0
				}
			]
		},
		{
			"name":"Cube.023",
			"primitives":[
				{
					"attributes":{
						"POSITION":8,
						"NORMAL":9,
						"TEXCOORD_0":10,
						"JOINTS_0":11,
						"WEIGHTS_0":12
					},
					"indices":13,
					"material":0
				}
			]
		},
		{
			"name":"Cube.011",
			"primitives":[
				{
					"attributes":{
						"POSITION":14,
						"NORMAL":15,
						"TEXCOORD_0":16,
						"TANGENT":17,
						"JOINTS_0":18,
						"WEIGHTS_0":19
					},
					"indices":20,
					"material":0
				}
			]
		},
		{
			"name":"Cube.006",
			"primitives":[
				{
					"attributes":{
						"POSITION":21,
						"NORMAL":22,
						"TEXCOORD_0":23,
						"TANGENT":24,
						"JOINTS_0":25,
						"WEIGHTS_0":26
					},
					"indices":20,
					"material":0
				}
			]
		},
		{
			"name":"Cube.008",
			"primitives":[
				{
					"attributes":{
						"POSITION":27,
						"NORMAL":28,
						"TEXCOORD_0":29,
						"TANGENT":30,
						"JOINTS_0":31,
						"WEIGHTS_0":32
					},
					"indices":20,
					"material":0
				}
			]
		},
		{
			"name":"Cube.010",
			"primitives":[
				{
					"attributes":{
						"POSITION":33,
						"NORMAL":34,
						"TEXCOORD_0":35,
						"TANGENT":36,
						"JOINTS_0":37,
						"WEIGHTS_0":38
					},
					"indices":20,
					"material":0
				}
			]
		},
		{
			"name":"Cube.025",
			"primitives":[
				{
					"attributes":{
						"POSITION":39,
						"NORMAL":40,
						"TEXCOORD_0":41,
						"TANGENT":42,
						"JOINTS_0":43,
						"WEIGHTS_0":44
					},
					"indices":20,
					"material":0
				}
			]
		},
		{
			"name":"Cube.027",
			"primitives":[
				{
					"attributes":{
						"POSITION":45,
						"NORMAL":46,
						"TEXCOORD_0":47,
						"TANGENT":48,
						"JOINTS_0":49,
						"WEIGHTS_0":50
					},
					"indices":20,
					"material":0
				}
			]
		},
		{
			"name":"Cube.022",
			"primitives":[
				{
					"attributes":{
						"POSITION":51,
						"NORMAL":52,
						"TEXCOORD_0":53,
						"TANGENT":54,
						"JOINTS_0":55,
						"WEIGHTS_0":56
					},
					"indices":20,
					"material":0
				}
			]
		},
		{
			"name":"Cube.003",
			"primitives":[
				{
					"attributes":{
						"POSITION":57,
						"NORMAL":58,
						"TEXCOORD_0":59,
						"TANGENT":60,
						"JOINTS_0":61,
						"WEIGHTS_0":62
					},
					"indices":20,
					"material":0
				}
			]
		},
		{
			"name":"Cube.001",
			"primitives":[
				{
					"attributes":{
						"POSITION":63,
						"NORMAL":64,
						"TEXCOORD_0":65,
						"JOINTS_0":66,
						"WEIGHTS_0":67
					},
					"indices":68,
					"material":0
				}
			]
		},
		{
			"name":"Cube.002",
			"primitives":[
				{
					"attributes":{
						"POSITION":69,
						"NORMAL":70,
						"TEXCOORD_0":71,
						"TANGENT":72,
						"JOINTS_0":73,
						"WEIGHTS_0":74
					},
					"indices":6,
					"material":0
				}
			]
		},
		{
			"name":"Cube.005",
			"primitives":[
				{
					"attributes":{
						"POSITION":75,
						"NORMAL":76,
						"TEXCOORD_0":77,
						"TANGENT":78,
						"JOINTS_0":79,
						"WEIGHTS_0":80
					},
					"indices":6,
					"material":0
				}
			]
		},
		{
			"name":"Cube.007",
			"primitives":[
				{
					"attributes":{
						"POSITION":81,
						"NORMAL":82,
						"TEXCOORD_0":83,
						"TANGENT":84,
						"JOINTS_0":85,
						"WEIGHTS_0":86
					},
					"indices":6,
					"material":0
				}
			]
		},
		{
			"name":"Cube.009",
			"primitives":[
				{
					"attributes":{
						"POSITION":87,
						"NORMAL":88,
						"TEXCOORD_0":89,
						"TANGENT":90,
						"JOINTS_0":91,
						"WEIGHTS_0":92
					},
					"indices":6,
					"material":0
				}
			]
		},
		{
			"name":"Cube.024",
			"primitives":[
				{
					"attributes":{
						"POSITION":93,
						"NORMAL":94,
						"TEXCOORD_0":95,
						"TANGENT":96,
						"JOINTS_0":97,
						"WEIGHTS_0":98
					},
					"indices":99,
					"material":0
				}
			]
		},
		{
			"name":"Cube.026",
			"primitives":[
				{
					"attributes":{
						"POSITION":100,
						"NORMAL":101,
						"TEXCOORD_0":102,
						"TANGENT":103,
						"JOINTS_0":104,
						"WEIGHTS_0":105
					},
					"indices":99,
					"material":0
				}
			]
		}
	],
	"textures":[
		{
			"sampler":0,
			"source":0
		}
	],
	"images":[
		{
			"mimeType":"image/png",
			"name":"Untitled",
			"uri":"../../models/hand.png"
		}
	],
	"skins":[
		{
			"inverseBindMatrices":7,
			"joints":[
				12,
				11,
				10,
				3,
				2,
				1,
				6,
				5,
				4,
				9,
				8,
				7
			],
			"name":"Armature"
		}
	],
	"accessors":[
		{
			"bufferView":0,
			"componentType":5126,
			"count":56,
			"max":[
				0.4000000059604645,
				1.079999566078186,
				1.999998927116394
			],
			"min":[
				-0.5999999642372131,
				-1.0799998044967651,
				-5.999999046325684
			],
			"type":"VEC3"
		},
		{
			"bufferView":1,
			"componentType":5126,
			"count":56,
			"type":"VEC3"
		},
		{
			"bufferView":2,
			"componentType":5126,
			"count":56,
			"type":"VEC2"
		},
		{
			"bufferView":3,
			"componentType":5126,
			"count":56,
			"type":"VEC4"
		},
		{
			"bufferView":4,
			"componentType":5121,
			"count":56,
			"type":"VEC4"
		},
		{
			"bufferView":5,
			"componentType":5126,
			"count":56,
			"type":"VEC4"
		},
		{
			"bufferView":6,
			"componentType":5123,
			"count":84,
			"type":"SCALAR"
		},
		{
			"bufferView":7,
			"componentType":5126,
			"count":12,
			"type":"MAT4"
		},
		{
			"bufferView":8,
			"componentType":5126,
			"count":118,
			"max":[
				1.3340898752212524,
				1.0800000429153442,
				-5.361112117767334
			],
			"min":[
				-0.9000000357627869,
				-1.079999566078186,
				-12.099998474121094
			],
			"type":"VEC3"
		},
		{
			"bufferView":9,
			"componentType":5126,
			"count":118,
			"type":"VEC3"
		},
		{
			"bufferView":10,
			"componentType":5126,
			"count":118,
			"type":"VEC2"
		},
		{
			"bufferView":11,
			"componentType":5121,
			"count":118,
			"type":"VEC4"
		},
		{
			"bufferView":12,
			"componentType":5126,
			"count":118,
			"type":"VEC4"
		},
		{
			"bufferView":13,
			"componentType":5123,
			"count":192,
			"type":"SCALAR"
		},
		{
			"bufferView":14,
			"componentType":5126,
			"count":14,
			"max":[
				0.11999998986721039,
				0.1000000536441803,
				-15.280000686645508
			],
			"min":[
				-0.11999998986721039,
				-0.6999999284744263,
				-15.920000076293945
			],
			"type":"VEC3"
		},
		{
			"bufferView":15,
			"componentType":5126,
			"count":14,
			"type":"VEC3"
		},
		{
			"bufferView":16,
			"componentType":5126,
			"count":14,
			"type":"VEC2"
		},
		{
			"bufferView":17,
			"componentType":5126,
			"count":14,
			"type":"VEC4"
		},
		{
			"bufferView":18,
			"componentType":5121,
			"count":14,
			"type":"VEC4"
		},
		{
			"bufferView":19,
			"componentType":5126,
			"count":14,
			"type":"VEC4"
		},
		{
			"bufferView":20,
			"componentType":5123,
			"count":36,
			"type":"SCALAR"
		},
		{
			"bufferView":21,
			"componentType":5126,
			"count":14,
			"max":[
				0.11999998986721039,
				0.1000000536441803,
				-17.579999923706055
			],
			"min":[
				-0.11999998986721039,
				-0.6999999284744263,
				-18.219999313354492
			],
			"type":"VEC3"
		},
		{
			"bufferView":22,
			"componentType":5126,
			"count":14,
			"type":"VEC3"
		},
		{
			"bufferView":23,
			"componentType":5126,
			"count":14,
			"type":"VEC2"
		},
		{
			"bufferView":24,
			"componentType":5126,
			"count":14,
			"type":"VEC4"
		},
		{
			"bufferView":25,
			"componentType":5121,
			"count":14,
			"type":"VEC4"
		},
		{
			"bufferView":26,
			"componentType":5126,
			"count":14,
			"type":"VEC4"
		},
		{
			"bufferView":27,
			"componentType":5126,
			"count":14,
			"max":[
				0.11999998986721039,
				1.7000000476837158,
				-15.280000686645508
			],
			"min":[
				-0.11999998986721039,
				0.9000000953674316,
				-15.920000076293945
			],
			"type":"VEC3"
		},
		{
			"bufferView":28,
			"componentType":5126,
			"count":14,
			"type":"VEC3"
		},
		{
			"bufferView":29,
			"componentType":5126,
			"count":14,
			"type":"VEC2"
		},
		{
			"bufferView":30,
			"componentType":5126,
			"count":14,
			"type":"VEC4"
		},
		{
			"bufferView":31,
			"componentType":5121,
			"count":14,
			"type":"VEC4"
		},
		{
			"bufferView":32,
			"componentType":5126,
			"count":14,
			"type":"VEC4"
		},
		{
			"bufferView":33,
			"componentType":5126,
			"count":14,
			"max":[
				0.11999998986721039,
				1.7000000476837158,
				-17.579999923706055
			],
			"min":[
				-0.11999998986721039,
				0.9000000953674316,
				-18.219999313354492
			],
			"type":"VEC3"
		},
		{
			"bufferView":34,
			"componentType":5126,
			"count":14,
			"type":"VEC3"
		},
		{
			"bufferView":35,
			"componentType":5126,
			"count":14,
			"type":"VEC2"
		},
		{
			"bufferView":36,
			"componentType":5126,
			"count":14,
			"type":"VEC4"
		},
		{
			"bufferView":37,
			"componentType":5121,
			"count":14,
			"type":"VEC4"
		},
		{
			"bufferView":38,
			"componentType":5126,
			"count":14,
			"type":"VEC4"
		},
		{
			"bufferView":39,
			"componentType":5126,
			"count":14,
			"max":[
				0.11999998986721039,
				2.4200000762939453,
				-13.600000381469727
			],
			"min":[
				-0.11999998986721039,
				1.78000009059906,
				-14.399999618530273
			],
			"type":"VEC3"
		},
		{
			"bufferView":40,
			"componentType":5126,
			"count":14,
			"type":"VEC3"
		},
		{
			"bufferView":41,
			"componentType":5126,
			"count":14,
			"type":"VEC2"
		},
		{
			"bufferView":42,
			"componentType":5126,
			"count":14,
			"type":"VEC4"
		},
		{
			"bufferView":43,
			"componentType":5121,
			"count":14,
			"type":"VEC4"
		},
		{
			"bufferView":44,
			"componentType":5126,
			"count":14,
			"type":"VEC4"
		},
		{
			"bufferView":45,
			"componentType":5126,
			"count":14,
			"max":[
				0.11999998986721039,
				4.71999979019165,
				-13.600000381469727
			],
			"min":[
				-0.11999998986721039,
				4.0799994468688965,
				-14.399999618530273
			],
			"type":"VEC3"
		},
		{
			"bufferView":46,
			"componentType":5126,
			"count":14,
			"type":"VEC3"
		},
		{
			"bufferView":47,
			"componentType":5126,
			"count":14,
			"type":"VEC2"
		},
		{
			"bufferView":48,
			"componentType":5126,
			"count":14,
			"type":"VEC4"
		},
		{
			"bufferView":49,
			"componentType":5121,
			"count":14,
			"type":"VEC4"
		},
		{
			"bufferView":50,
			"componentType":5126,
			"count":14,
			"type":"VEC4"
		},
		{
			"bufferView":51,
			"componentType":5126,
			"count":14,
			"max":[
				0.11999998986721039,
				0.8500001430511475,
				-11.751999855041504
			],
			"min":[
				-0.11999998986721039,
				-0.7499998807907104,
				-12.64799976348877
			],
			"type":"VEC3"
		},
		{
			"bufferView":52,
			"componentType":5126,
			"count":14,
			"type":"VEC3"
		},
		{
			"bufferView":53,
			"componentType":5126,
			"count":14,
			"type":"VEC2"
		},
		{
			"bufferView":54,
			"componentType":5126,
			"count":14,
			"type":"VEC4"
		},
		{
			"bufferView":55,
			"componentType":5121,
			"count":14,
			"type":"VEC4"
		},
		{
			"bufferView":56,
			"componentType":5126,
			"count":14,
			"type":"VEC4"
		},
		{
			"bufferView":57,
			"componentType":5126,
			"count":14,
			"max":[
				0.11999998986721039,
				0.8500003814697266,
				-5.451999664306641
			],
			"min":[
				-0.11999998986721039,
				-0.7499996423721313,
				-6.347999572753906
			],
			"type":"VEC3"
		},
		{
			"bufferView":58,
			"componentType":5126,
			"count":14,
			"type":"VEC3"
		},
		{
			"bufferView":59,
			"componentType":5126,
			"count":14,
			"type":"VEC2"
		},
		{
			"bufferView":60,
			"componentType":5126,
			"count":14,
			"type":"VEC4"
		},
		{
			"bufferView":61,
			"componentType":5121,
			"count":14,
			"type":"VEC4"
		},
		{
			"bufferView":62,
			"componentType":5126,
			"count":14,
			"type":"VEC4"
		},
		{
			"bufferView":63,
			"componentType":5126,
			"count":70,
			"max":[
				0.5000000596046448,
				2.1000003814697266,
				-12.399999618530273
			],
			"min":[
				-0.5000000596046448,
				-1.100000023841858,
				-15.600000381469727
			],
			"type":"VEC3"
		},
		{
			"bufferView":64,
			"componentType":5126,
			"count":70,
			"type":"VEC3"
		},
		{
			"bufferView":65,
			"componentType":5126,
			"count":70,
			"type":"VEC2"
		},
		{
			"bufferView":66,
			"componentType":5121,
			"count":70,
			"type":"VEC4"
		},
		{
			"bufferView":67,
			"componentType":5126,
			"count":70,
			"type":"VEC4"
		},
		{
			"bufferView":68,
			"componentType":5123,
			"count":108,
			"type":"SCALAR"
		},
		{
			"bufferView":69,
			"componentType":5126,
			"count":56,
			"max":[
				0.4000000059604645,
				0.30000007152557373,
				-15.800000190734863
			],
			"min":[
				-0.4000000059604645,
				-0.8999997973442078,
				-17.799999237060547
			],
			"type":"VEC3"
		},
		{
			"bufferView":70,
			"componentType":5126,
			"count":56,
			"type":"VEC3"
		},
		{
			"bufferView":71,
			"componentType":5126,
			"count":56,
			"type":"VEC2"
		},
		{
			"bufferView":72,
			"componentType":5126,
			"count":56,
			"type":"VEC4"
		},
		{
			"bufferView":73,
			"componentType":5121,
			"count":56,
			"type":"VEC4"
		},
		{
			"bufferView":74,
			"componentType":5126,
			"count":56,
			"type":"VEC4"
		},
		{
			"bufferView":75,
			"componentType":5126,
			"count":56,
			"max":[
				0.4000000059604645,
				0.30000007152557373,
				-18.100000381469727
			],
			"min":[
				-0.4000000059604645,
				-0.8999997973442078,
				-20.100000381469727
			],
			"type":"VEC3"
		},
		{
			"bufferView":76,
			"componentType":5126,
			"count":56,
			"type":"VEC3"
		},
		{
			"bufferView":77,
			"componentType":5126,
			"count":56,
			"type":"VEC2"
		},
		{
			"bufferView":78,
			"componentType":5126,
			"count":56,
			"type":"VEC4"
		},
		{
			"bufferView":79,
			"componentType":5121,
			"count":56,
			"type":"VEC4"
		},
		{
			"bufferView":80,
			"componentType":5126,
			"count":56,
			"type":"VEC4"
		},
		{
			"bufferView":81,
			"componentType":5126,
			"count":56,
			"max":[
				0.4000000059604645,
				1.9000000953674316,
				-15.800000190734863
			],
			"min":[
				-0.4000000059604645,
				0.7000002264976501,
				-17.799999237060547
			],
			"type":"VEC3"
		},
		{
			"bufferView":82,
			"componentType":5126,
			"count":56,
			"type":"VEC3"
		},
		{
			"bufferView":83,
			"componentType":5126,
			"count":56,
			"type":"VEC2"
		},
		{
			"bufferView":84,
			"componentType":5126,
			"count":56,
			"type":"VEC4"
		},
		{
			"bufferView":85,
			"componentType":5121,
			"count":56,
			"type":"VEC4"
		},
		{
			"bufferView":86,
			"componentType":5126,
			"count":56,
			"type":"VEC4"
		},
		{
			"bufferView":87,
			"componentType":5126,
			"count":56,
			"max":[
				0.4000000059604645,
				1.9000000953674316,
				-18.100000381469727
			],
			"min":[
				-0.4000000059604645,
				0.7000002264976501,
				-20.100000381469727
			],
			"type":"VEC3"
		},
		{
			"bufferView":88,
			"componentType":5126,
			"count":56,
			"type":"VEC3"
		},
		{
			"bufferView":89,
			"componentType":5126,
			"count":56,
			"type":"VEC2"
		},
		{
			"bufferView":90,
			"componentType":5126,
			"count":56,
			"type":"VEC4"
		},
		{
			"bufferView":91,
			"componentType":5121,
			"count":56,
			"type":"VEC4"
		},
		{
			"bufferView":92,
			"componentType":5126,
			"count":56,
			"type":"VEC4"
		},
		{
			"bufferView":93,
			"componentType":5126,
			"count":56,
			"max":[
				0.4000000059604645,
				4.300000190734863,
				-13.399999618530273
			],
			"min":[
				-0.4000000059604645,
				2.3000006675720215,
				-14.59999942779541
			],
			"type":"VEC3"
		},
		{
			"bufferView":94,
			"componentType":5126,
			"count":56,
			"type":"VEC3"
		},
		{
			"bufferView":95,
			"componentType":5126,
			"count":56,
			"type":"VEC2"
		},
		{
			"bufferView":96,
			"componentType":5126,
			"count":56,
			"type":"VEC4"
		},
		{
			"bufferView":97,
			"componentType":5121,
			"count":56,
			"type":"VEC4"
		},
		{
			"bufferView":98,
			"componentType":5126,
			"count":56,
			"type":"VEC4"
		},
		{
			"bufferView":99,
			"componentType":5123,
			"count":84,
			"type":"SCALAR"
		},
		{
			"bufferView":100,
			"componentType":5126,
			"count":56,
			"max":[
				0.4000000059604645,
				6.599999904632568,
				-13.399999618530273
			],
			"min":[
				-0.4000000059604645,
				4.600000858306885,
				-14.59999942779541
			],
			"type":"VEC3"
		},
		{
			"bufferView":101,
			"componentType":5126,
			"count":56,
			"type":"VEC3"
		},
		{
			"bufferView":102,
			"componentType":5126,
			"count":56,
			"type":"VEC2"
		},
		{
			"bufferView":103,
			"componentType":5126,
			"count":56,
			"type":"VEC4"
		},
		{
			"bufferView":104,
			"componentType":5121,
			"count":56,
			"type":"VEC4"
		},
		{
			"bufferView":105,
			"componentType":5126,
			"count":56,
			"type":"VEC4"
		},
		{
			"bufferView":106,
			"componentType":5126,
			"count":2,
			"max":[
				5.166666666666667
			],
			"min":[
				0.041666666666666664
			],
			"type":"SCALAR"
		},
		{
			"bufferView":107,
			"componentType":5126,
			"count":2,
			"type":"VEC3"
		},
		{
			"bufferView":108,
			"componentType":5126,
			"count":124,
			"max":[
				5.166666666666667
			],
			"min":[
				0.041666666666666664
			],
			"type":"SCALAR"
		},
		{
			"bufferView":109,
			"componentType":5126,
			"count":124,
			"type":"VEC4"
		},
		{
			"bufferView":110,
			"componentType":5126,
			"count":2,
			"type":"VEC3"
		},
		{
			"bufferView":111,
			"componentType":5126,
			"count":2,
			"type":"VEC3"
		},
		{
			"bufferView":112,
			"componentType":5126,
			"count":124,
			"type":"VEC4"
		},
		{
			"bufferView":113,
			"componentType":5126,
			"count":2,
			"type":"VEC3"
		},
		{
			"bufferView":114,
			"componentType":5126,
			"count":124,
			"type":"VEC4"
		},
		{
			"bufferView":115,
			"componentType":5126,
			"count":2,
			"type":"VEC3"
		},
		{
			"bufferView":116,
			"componentType":5126,
			"count":124,
			"type":"VEC4"
		},
		{
			"bufferView":117,
			"componentType":5126,
			"count":2,
			"type":"VEC3"
		},
		{
			"bufferView":118,
			"componentType":5126,
			"count":2,
			"type":"VEC3"
		},
		{
			"bufferView":119,
			"componentType":5126,
			"count":124,
			"type":"VEC4"
		},
		{
			"bufferView":120,
			"componentType":5126,
			"count":2,
			"type":"VEC3"
		},
		{
			"bufferView":121,
			"componentType":5126,
			"count":2,
			"type":"VEC3"
		},
		{
			"bufferView":122,
			"componentType":5126,
			"count":124,
			"type":"VEC4"
		},
		{
			"bufferView":123,
			"componentType":5126,
			"count":2,
			"type":"VEC3"
		},
		{
			"bufferView":124,
			"componentType":5126,
			"count":124,
			"type":"VEC4"
		},
		{
			"bufferView":125,
			"componentType":5126,
			"count":2,
			"type":"VEC3"
		},
		{
			"bufferView":126,
			"componentType":5126,
			"count":2,
			"type":"VEC3"
		},
		{
			"bufferView":127,
			"componentType":5126,
			"count":124,
			"type":"VEC4"
		},
		{
			"bufferView":128,
			"componentType":5126,
			"count":2,
			"type":"VEC3"
		},
		{
			"bufferView":129,
			"componentType":5126,
			"count":2,
			"type":"VEC3"
		},
		{
			"bufferView":130,
			"componentType":5126,
			"count":124,
			"type":"VEC4"
		},
		{
			"bufferView":131,
			"componentType":5126,
			"count":2,
			"type":"VEC3"
		},
		{
			"bufferView":132,
			"componentType":5126,
			"count":124,
			"type":"VEC4"
		},
		{
			"bufferView":133,
			"componentType":5126,
			"count":2,
			"type":"VEC3"
		},
		{
			"bufferView":134,
			"componentType":5126,
			"count":124,
			"type":"VEC4"
		},
		{
			"bufferView":135,
			"componentType":5126,
			"count":2,
			"type":"VEC3"
		},
		{
			"bufferView":136,
			"componentType":5126,
			"count":124,
			"type":"VEC4"
		}
	],
	"bufferViews":[
		{
			"buffer":0,
			"byteLength":672,
			"byteOffset":0,
			"target":34962
		},
		{
			"buffer":0,
			"byteLength":672,
			"byteOffset":672,
			"target":34962
		},
		{
			"buffer":0,
			"byteLength":448,
			"byteOffset":1344,
			"target":34962
		},
		{
			"buffer":0,
			"byteLength":896,
			"byteOffset":1792,
			"target":34962
		},
		{
			"buffer":0,
			"byteLength":224,
			"byteOffset":2688,
			"target":34962
		},
		{
			"buffer":0,
			"byteLength":896,
			"byteOffset":2912,
			"target":34962
		},
		{
			"buffer":0,
			"byteLength":168,
			"byteOffset":3808,
			"target":34963
		},
		{
			"buffer":0,
			"byteLength":768,
			"byteOffset":3976
		},
		{
			"buffer":0,
			"byteLength":1416,
			"byteOffset":4744,
			"target":34962
		},
		{
			"buffer":0,
			"byteLength":1416,
			"byteOffset":6160,
			"target":34962
		},
		{
			"buffer":0,
			"byteLength":944,
			"byteOffset":7576,
			"target":34962
		},
		{
			"buffer":0,
			"byteLength":472,
			"byteOffset":8520,
			"target":34962
		},
		{
			"buffer":0,
			"byteLength":1888,
			"byteOffset":8992,
			"target":34962
		},
		{
			"buffer":0,
			"byteLength":384,
			"byteOffset":10880,
			"target":34963
		},
		{
			"buffer":0,
			"byteLength":168,
			"byteOffset":11264,
			"target":34962
		},
		{
			"buffer":0,
			"byteLength":168,
			"byteOffset":11432,
			"target":34962
		},
		{
			"buffer":0,
			"byteLength":112,
			"byteOffset":11600,
			"target":34962
		},
		{
			"buffer":0,
			"byteLength":224,
			"byteOffset":11712,
			"target":34962
		},
		{
			"buffer":0,
			"byteLength":56,
			"byteOffset":11936,
			"target":34962
		},
		{
			"buffer":0,
			"byteLength":224,
			"byteOffset":11992,
			"target":34962
		},
		{
			"buffer":0,
			"byteLength":72,
			"byteOffset":12216,
			"target":34963
		},
		{
			"buffer":0,
			"byteLength":168,
			"byteOffset":12288,
			"target":34962
		},
		{
			"buffer":0,
			"byteLength":168,
			"byteOffset":12456,
			"target":34962
		},
		{
			"buffer":0,
			"byteLength":112,
			"byteOffset":12624,
			"target":34962
		},
		{
			"buffer":0,
			"byteLength":224,
			"byteOffset":12736,
			"target":34962
		},
		{
			"buffer":0,
			"byteLength":56,
			"byteOffset":12960,
			"target":34962
		},
		{
			"buffer":0,
			"byteLength":224,
			"byteOffset":13016,
			"target":34962
		},
		{
			"buffer":0,
			"byteLength":168,
			"byteOffset":13240,
			"target":34962
		},
		{
			"buffer":0,
			"byteLength":168,
			"byteOffset":13408,
			"target":34962
		},
		{
			"buffer":0,
			"byteLength":112,
			"byteOffset":13576,
			"target":34962
		},
		{
			"buffer":0,
			"byteLength":224,
			"byteOffset":13688,
			"target":34962
		},
		{
			"buffer":0,
			"byteLength":56,
			"byteOffset":13912,
			"target":34962
		},
		{
			"buffer":0,
			"byteLength":224,
			"byteOffset":13968,
			"target":34962
		},
		{
			"buffer":0,
			"byteLength":168,
			"byteOffset":14192,
			"target":34962
		},
		{
			"buffer":0,
			"byteLength":168,
			"byteOffset":14360,
			"target":34962
		},
		{
			"buffer":0,
			"byteLength":112,
			"byteOffset":14528,
			"target":34962
		},
		{
			"buffer":0,
			"byteLength":224,
			"byteOffset":14640,
			"target":34962
		},
		{
			"buffer":0,
			"byteLength":56,
			"byteOffset":14864,
			"target":34962
		},
		{
			"buffer":0,
			"byteLength":224,
			"byteOffset":14920,
			"target":34962
		},
		{
			"buffer":0,
			"byteLength":168,
			"byteOffset":15144,
			"target":34962
		},
		{
			"buffer":0,
			"byteLength":168,
			"byteOffset":15312,
			"target":34962
		},
		{
			"buffer":0,
			"byteLength":112,
			"byteOffset":15480,
			"target":34962
		},
		{
			"buffer":0,
			"byteLength":224,
			"byteOffset":15592,
			"target":34962
		},
		{
			"buffer":0,
			"byteLength":56,
			"byteOffset":15816,
			"target":34962
		},
		{
			"buffer":0,
			"byteLength":224,
			"byteOffset":15872,
			"target":34962
		},
		{
			"buffer":0,
			"byteLength":168,
			"byteOffset":16096,
			"target":34962
		},
		{
			"buffer":0,
			"byteLength":168,
			"byteOffset":16264,
			"target":34962
		},
		{
			"buffer":0,
			"byteLength":112,
			"byteOffset":16432,
			"target":34962
		},
		{
			"buffer":0,
			"byteLength":224,
			"byteOffset":16544,
			"target":34962
		},
		{
			"buffer":0,
			"byteLength":56,
			"byteOffset":16768,
			"target":34962
		},
		{
			"buffer":0,
			"byteLength":224,
			"byteOffset":16824,
			"target":34962
		},
		{
			"buffer":0,
			"byteLength":168,
			"byteOffset":17048,
			"target":34962
		},
		{
			"buffer":0,
			"byteLength":168,
			"byteOffset":17216,
			"target":34962
		},
		{
			"buffer":0,
			"byteLength":112,
			"byteOffset":17384,
			"target":34962
		},
		{
			"buffer":0,
			"byteLength":224,
			"byteOffset":17496,
			"target":34962
		},
		{
			"buffer":0,
			"byteLength":56,
			"byteOffset":17720,
			"target":34962
		},
		{
			"buffer":0,
			"byteLength":224,
			"byteOffset":17776,
			"target":34962
		},
		{
			"buffer":0,
			"byteLength":168,
			"byteOffset":18000,
			"target":34962
		},
		{
			"buffer":0,
			"byteLength":168,
			"byteOffset":18168,
			"target":34962
		},
		{
			"buffer":0,
			"byteLength":112,
			"byteOffset":18336,
			"target":34962
		},
		{
			"buffer":0,
			"byteLength":224,
			"byteOffset":18448,
			"target":34962
		},
		{
			"buffer":0,
			"byteLength":56,
			"byteOffset":18672,
			"target":34962
		},
		{
			"buffer":0,
			"byteLength":224,
			"byteOffset":18728,
			"target":34962
		},
		{
			"buffer":0,
			"byteLength":840,
			"byteOffset":18952,
			"target":34962
		},
		{
			"buffer":0,
			"byteLength":840,
			"byteOffset":19792,
			"target":34962
		},
		{
			"buffer":0,
			"byteLength":560,
			"byteOffset":20632,
			"target":34962
		},
		{
			"buffer":0,
			"byteLength":280,
			"byteOffset":21192,
			"target":34962
		},
		{
			"buffer":0,
			"byteLength":1120,
			"byteOffset":21472,
			"target":34962
		},
		{
			"buffer":0,
			"byteLength":216,
			"byteOffset":22592,
			"target":34963
		},
		{
			"buffer":0,
			"byteLength":672,
			"byteOffset":22808,
			"target":34962
		},
		{
			"buffer":0,
			"byteLength":672,
			"byteOffset":23480,
			"target":34962
		},
		{
			"buffer":0,
			"byteLength":448,
			"byteOffset":24152,
			"target":34962
		},
		{
			"buffer":0,
			"byteLength":896,
			"byteOffset":24600,
			"target":34962
		},
		{
			"buffer":0,
			"byteLength":224,
			"byteOffset":25496,
			"target":34962
		},
		{
			"buffer":0,
			"byteLength":896,
			"byteOffset":25720,
			"target":34962
		},
		{
			"buffer":0,
			"byteLength":672,
			"byteOffset":26616,
			"target":34962
		},
		{
			"buffer":0,
			"byteLength":672,
			"byteOffset":27288,
			"target":34962
		},
		{
			"buffer":0,
			"byteLength":448,
			"byteOffset":27960,
			"target":34962
		},
		{
			"buffer":0,
			"byteLength":896,
			"byteOffset":28408,
			"target":34962
		},
		{
			"buffer":0,
			"byteLength":224,
			"byteOffset":29304,
			"target":34962
		},
		{
			"buffer":0,
			"byteLength":896,
			"byteOffset":29528,
			"target":34962
		},
		{
			"buffer":0,
			"byteLength":672,
			"byteOffset":30424,
			"target":34962
		},
		{
			"buffer":0,
			"byteLength":672,
			"byteOffset":31096,
			"target":34962
		},
		{
			"buffer":0,
			"byteLength":448,
			"byteOffset":31768,
			"target":34962
		},
		{
			"buffer":0,
			"byteLength":896,
			"byteOffset":32216,
			"target":34962
		},
		{
			"buffer":0,
			"byteLength":224,
			"byteOffset":33112,
			"target":34962
		},
		{
			"buffer":0,
			"byteLength":896,
			"byteOffset":33336,
			"target":34962
		},
		{
			"buffer":0,
			"byteLength":672,
			"byteOffset":34232,
			"target":34962
		},
		{
			"buffer":0,
			"byteLength":672,
			"byteOffset":34904,
			"target":34962
		},
		{
			"buffer":0,
			"byteLength":448,
			"byteOffset":35576,
			"target":34962
		},
		{
			"buffer":0,
			"byteLength":896,
			"byteOffset":36024,
			"target":34962
		},
		{
			"buffer":0,
			"byteLength":224,
			"byteOffset":36920,
			"target":34962
		},
		{
			"buffer":0,
			"byteLength":896,
			"byteOffset":37144,
			"target":34962
		},
		{
			"buffer":0,
			"byteLength":672,
			"byteOffset":38040,
			"target":34962
		},
		{
			"buffer":0,
			"byteLength":672,
			"byteOffset":38712,
			"target":34962
		},
		{
			"buffer":0,
			"byteLength":448,
			"byteOffset":39384,
			"target":34962
		},
		{
			"buffer":0,
			"byteLength":896,
			"byteOffset":39832,
			"target":34962
		},
		{
			"buffer":0,
			"byteLength":224,
			"byteOffset":40728,
			"target":34962
		},
		{
			"buffer":0,
			"byteLength":896,
			"byteOffset":40952,
			"target":34962
		},
		{
			"buffer":0,
			"byteLength":168,
			"byteOffset":41848,
			"target":34963
		},
		{
			"buffer":0,
			"byteLength":672,
			"byteOffset":42016,
			"target":34962
		},
		{
			"buffer":0,
			"byteLength":672,
			"byteOffset":42688,
			"target":34962
		},
		{
			"buffer":0,
			"byteLength":448,
			"byteOffset":43360,
			"target":34962
		},
		{
			"buffer":0,
			"byteLength":896,
			"byteOffset":43808,
			"target":34962
		},
		{
			"buffer":0,
			"byteLength":224,
			"byteOffset":44704,
			"target":34962
		},
		{
			"buffer":0,
			"byteLength":896,
			"byteOffset":44928,
			"target":34962
		},
		{
			"buffer":0,
			"byteLength":8,
			"byteOffset":45824
		},
		{
			"buffer":0,
			"byteLength":24,
			"byteOffset":45832
		},
		{
			"buffer":0,
			"byteLength":496,
			"byteOffset":45856
		},
		{
			"buffer":0,
			"byteLength":1984,
			"byteOffset":46352
		},
		{
			"buffer":0,
			"byteLength":24,
			"byteOffset":48336
		},
		{
			"buffer":0,
			"byteLength":24,
			"byteOffset":48360
		},
		{
			"buffer":0,
			"byteLength":1984,
			"byteOffset":48384
		},
		{
			"buffer":0,
			"byteLength":24,
			"byteOffset":50368
		},
		{
			"buffer":0,
			"byteLength":1984,
			"byteOffset":50392
		},
		{
			"buffer":0,
			"byteLength":24,
			"byteOffset":52376
		},
		{
			"buffer":0,
			"byteLength":1984,
			"byteOffset":52400
		},
		{
			"buffer":0,
			"byteLength":24,
			"byteOffset":54384
		},
		{
			"buffer":0,
			"byteLength":24,
			"byteOffset":54408
		},
		{
			"buffer":0,
			"byteLength":1984,
			"byteOffset":54432
		},
		{
			"buffer":0,
			"byteLength":24,
			"byteOffset":56416
		},
		{
			"buffer":0,
			"byteLength":24,
			"byteOffset":56440
		},
		{
			"buffer":0,
			"byteLength":1984,
			"byteOffset":56464
		},
		{
			"buffer":0,
			"byteLength":24,
			"byteOffset":58448
		},
		{
			"buffer":0,
			"byteLength":1984,
			"byteOffset":58472
		},
		{
			"buffer":0,
			"byteLength":24,
			"byteOffset":60456
		},
		{
			"buffer":0,
			"byteLength":24,
			"byteOffset":60480
		},
		{
			"buffer":0,
			"byteLength":1984,
			"byteOffset":60504
		},
		{
			"buffer":0,
			"byteLength":24,
			"byteOffset":62488
		},
		{
			"buffer":0,
			"byteLength":24,
			"byteOffset":62512
		},
		{
			"buffer":0,
			"byteLength":1984,
			"byteOffset":62536
		},
		{
			"buffer":0,
			"byteLength":24,
			"byteOffset":64520
		},
		{
			"buffer":0,
			"byteLength":1984,
			"byteOffset":64544
		},
		{
			"buffer":0,
			"byteLength":24,
			"byteOffset":66528
		},
		{
			"buffer":0,
			"byteLength":1984,
			"byteOffset":66552
		},
		{
			"buffer":0,
			"byteLength":24,
			"byteOffset":68536
		},
		{
			"buffer":0,
			"byteLength":1984,
			"byteOffset":68560
		}
	],
	"samplers":[
		{
			"magFilter":9729,
			"minFilter":9987
		}
	],
	"buffers":[
		{
			"byteLength":70544,
			"uri":"hand-407356c2ce6c56d9fa81f186a7b619ee.bin"
		}
	]
}
