{
	"asset":{
		"generator":"Khronos glTF Blender I/O v4.5.47",
		"version":"2.0"
	},
	"extensionsUsed":[
		"KHR_materials_specular",
		"KHR_materials_ior",
		"KHR_lights_punctual"
	],
	"extensionsRequired":[
		"KHR_lights_punctual"
	],
	"extensions":{
		"KHR_lights_punctual":{
			"lights":[
				{
					"color":[
						1,
						0.002033240394666791,
						0
					],
					"intensity":236.32121336438206,
					"type":"point",
					"name":"Point.017"
				},
				{
					"color":[
						1,
						0,
						0.006734008900821209
					],
					"intensity":68.75493541569878,
					"type":"point",
					"name":"Point.018"
				},
				{
					"color":[
						1,
						1,
						1
					],
					"intensity":1,
					"type":"directional",
					"name":"Sun.001"
				},
				{
					"color":[
						1,
						0,
						0.006734008900821209
					],
					"intensity":68.75493541569878,
					"type":"point",
					"name":"Point.001"
				}
			]
		}
	},
	"scene":0,
	"scenes":[
		{
			"extras":{
				"ps_scene_data":{},
				"zen_tex_chkr_props":{
					"prev_color_type":"TEXTURE"
				},
				"univ_settings":{}
			},
			"name":"Scene",
			"nodes":[
				0,
				19,
				20,
				21,
				22,
				23,
				24,
				25,
				26,
				27,
				28,
				29,
				30,
				31
			]
		}
	],
	"nodes":[
		{
			"camera":0,
			"extras":{
				"ant_landscape":{}
			},
			"name":"Camera",
			"rotation":[
				0.02970723994076252,
				0.9655206799507141,
				-0.1274564564228058,
				0.22503820061683655
			],
			"translation":[
				6.906952857971191,
				-1.3034648895263672,
				-14.154682159423828
			]
		},
		{
			"name":"L_cannon",
			"rotation":[
				-0.06858619302511215,
				-0.058439191430807114,
				-0.7056311964988708,
				0.7028267979621887
			],
			"scale":[
				0.9999999403953552,
				0.9999999403953552,
				1
			],
			"translation":[
				-2.60770320892334e-08,
				1.7427239418029785,
				3.3527612686157227e-08
			]
		},
		{
			"children":[
				1
			],
			"name":"L_arm",
			"rotation":[
				-0.7176521420478821,
				0.0011499213287606835,
				0.002303686225786805,
				0.6963970065116882
			],
			"translation":[
				-5.005858838558197e-09,
				0.5255767703056335,
				-2.2959829948376864e-07
			]
		},
		{
			"children":[
				2
			],
			"name":"L_shoulder",
			"rotation":[
				-0.6921343207359314,
				0.11858800798654556,
				-0.11055602878332138,
				0.7033237814903259
			],
			"scale":[
				0.9999999403953552,
				1,
				0.9999999403953552
			],
			"translation":[
				1.1799943422374781e-07,
				1.6174310445785522,
				-1.4913749694824219
			]
		},
		{
			"name":"R_cannon",
			"rotation":[
				-0.06858618557453156,
				0.05843918398022652,
				0.7056311964988708,
				0.7028267979621887
			],
			"scale":[
				0.9999999403953552,
				0.9999999403953552,
				1
			],
			"translation":[
				2.7939677238464355e-08,
				1.7427244186401367,
				2.60770320892334e-08
			]
		},
		{
			"children":[
				4
			],
			"name":"R_arm",
			"rotation":[
				-0.7176521420478821,
				-0.001149921678006649,
				-0.002303688321262598,
				0.6963970065116882
			],
			"translation":[
				-1.1350493878126144e-08,
				0.5255767107009888,
				-2.0789411792065948e-07
			]
		},
		{
			"children":[
				5
			],
			"name":"R_shoulder",
			"rotation":[
				0.11055590957403183,
				0.7033237814903259,
				0.6921343207359314,
				0.11858809739351273
			],
			"scale":[
				1,
				1,
				0.9999999403953552
			],
			"translation":[
				-2.968133685499197e-07,
				1.6174311637878418,
				1.4913749694824219
			]
		},
		{
			"children":[
				3,
				6
			],
			"name":"torso",
			"rotation":[
				-7.913148358795752e-09,
				4.818217647084566e-08,
				0.1620628535747528,
				0.9867804050445557
			],
			"translation":[
				0,
				3.668781280517578,
				0
			]
		},
		{
			"name":"L_foot",
			"rotation":[
				-0.11277012526988983,
				-6.097687244022154e-09,
				-0.04113189876079559,
				0.9927693605422974
			],
			"scale":[
				1,
				0.9999999403953552,
				1
			],
			"translation":[
				-1.5273690223693848e-07,
				1.2747501134872437,
				1.862645149230957e-09
			]
		},
		{
			"children":[
				8
			],
			"name":"L_lower_leg",
			"rotation":[
				0.48041290044784546,
				-3.037466811406375e-08,
				0.17933142185211182,
				0.8585125207901001
			],
			"scale":[
				0.9999998807907104,
				0.9999999403953552,
				0.9999999403953552
			],
			"translation":[
				1.2665987014770508e-07,
				0.8513723015785217,
				-1.6391277313232422e-07
			]
		},
		{
			"children":[
				9
			],
			"name":"L_middle_leg",
			"rotation":[
				-0.6027421355247498,
				-2.360660619160626e-05,
				-0.2112388163805008,
				0.7694674730300903
			],
			"scale":[
				1,
				0.9999999403953552,
				0.9999999403953552
			],
			"translation":[
				9.685754776000977e-08,
				0.8598116636276245,
				-8.940696716308594e-08
			]
		},
		{
			"children":[
				10
			],
			"name":"L_upper_leg",
			"rotation":[
				0.4523972272872925,
				0.15147311985492706,
				0.06677982211112976,
				0.8763179183006287
			],
			"scale":[
				1,
				0.9999998807907104,
				0.9999998807907104
			],
			"translation":[
				-1.1223076581954956,
				0.5916487574577332,
				-5.224594019637152e-07
			]
		},
		{
			"name":"R_foot",
			"rotation":[
				-0.11277012526988983,
				6.61364509824125e-08,
				0.04113190621137619,
				0.9927693605422974
			],
			"scale":[
				1,
				0.9999999403953552,
				1.0000001192092896
			],
			"translation":[
				-8.009374141693115e-08,
				1.274749755859375,
				7.450580596923828e-09
			]
		},
		{
			"children":[
				12
			],
			"name":"R_lower_leg",
			"rotation":[
				0.4804128408432007,
				-8.244552418545936e-08,
				-0.17933142185211182,
				0.8585125207901001
			],
			"scale":[
				0.9999998807907104,
				1.0000001192092896,
				1
			],
			"translation":[
				-2.2351741790771484e-08,
				0.8513723611831665,
				5.960464477539063e-08
			]
		},
		{
			"children":[
				13
			],
			"name":"R_middle_leg",
			"rotation":[
				-0.602742075920105,
				2.3625972971785814e-05,
				0.21123875677585602,
				0.7694674730300903
			],
			"translation":[
				8.940696716308594e-08,
				0.8598114848136902,
				2.8312206268310547e-07
			]
		},
		{
			"children":[
				14
			],
			"name":"R_upper_leg",
			"rotation":[
				0.4523972272872925,
				-0.1514735370874405,
				-0.06677959859371185,
				0.8763178586959839
			],
			"scale":[
				1,
				0.9999999403953552,
				1
			],
			"translation":[
				1.1223076581954956,
				0.5916473865509033,
				7.161744974837347e-07
			]
		},
		{
			"children":[
				11,
				15
			],
			"name":"pelvis",
			"rotation":[
				0.6959205269813538,
				-0.12527695298194885,
				0.6959209442138672,
				0.12527672946453094
			],
			"scale":[
				1.0000020265579224,
				1.000000238418579,
				1
			],
			"translation":[
				0,
				3.668781280517578,
				0
			]
		},
		{
			"children":[
				7,
				16
			],
			"name":"root",
			"rotation":[
				0,
				0.7071067690849304,
				0,
				0.7071067690849304
			],
			"scale":[
				1,
				0.9999999403953552,
				1
			]
		},
		{
			"extras":{
				"ant_landscape":{}
			},
			"mesh":0,
			"name":"body",
			"skin":0
		},
		{
			"children":[
				18,
				17
			],
			"extras":{
				"ant_landscape":{}
			},
			"name":"Armature"
		},
		{
			"extensions":{
				"KHR_lights_punctual":{
					"light":0
				}
			},
			"extras":{
				"ant_landscape":{}
			},
			"name":"red1",
			"rotation":[
				-0.7071068286895752,
				0,
				0,
				0.7071068286895752
			],
			"translation":[
				0,
				2.331386089324951,
				-5.944258689880371
			]
		},
		{
			"extras":{
				"ant_landscape":{
					"ant_terrain_name":"Landscape",
					"at_cursor":1,
					"smooth_mesh":1,
					"tri_face":0,
					"sphere_mesh":0,
					"land_material":"",
					"water_material":"",
					"texture_block":"",
					"subdivision_x":800,
					"subdivision_y":800,
					"mesh_size_x":2.0,
					"mesh_size_y":2.0,
					"mesh_size":2.0,
					"random_seed":5,
					"noise_offset_x":0.0,
					"noise_offset_y":-0.25,
					"noise_offset_z":0.0,
					"noise_size_x":1.0,
					"noise_size_y":1.25,
					"noise_size_z":1.0,
					"noise_size":1.5,
					"noise_type":7,
					"basis_type":0,
					"vl_basis_type":0,
					"distortion":2.0,
					"hard_noise":1,
					"noise_depth":12,
					"amplitude":0.5,
					"frequency":2.0,
					"dimension":1.0,
					"lacunarity":2.0,
					"offset":1.0,
					"gain":1.0,
					"marble_bias":0,
					"marble_sharp":0,
					"marble_shape":4,
					"height":0.6000000238418579,
					"height_invert":0,
					"height_offset":0.0,
					"maximum":0.5,
					"minimum":-0.20000000298023224,
					"edge_falloff":2,
					"edge_level":0.15000000596046448,
					"falloff_x":4.0,
					"falloff_y":4.0,
					"strata_type":2,
					"strata":6.0,
					"water_plane":0,
					"water_level":0.009999999776482582,
					"vert_group":"",
					"remove_double":0,
					"fx_mixfactor":0.0,
					"fx_mix_mode":8,
					"fx_type":20,
					"fx_bias":0,
					"fx_turb":0.0,
					"fx_depth":3,
					"fx_frequency":1.649999976158142,
					"fx_amplitude":0.5,
					"fx_size":1.5,
					"fx_loc_x":3.0,
					"fx_loc_y":2.0,
					"fx_height":0.25,
					"fx_offset":0.05000000074505806,
					"fx_invert":0
				}
			},
			"mesh":1,
			"name":"Landscape",
			"scale":[
				100,
				100,
				100
			],
			"translation":[
				-20.20648193359375,
				-5.844062805175781,
				2.360908269882202
			]
		},
		{
			"extensions":{
				"KHR_lights_punctual":{
					"light":1
				}
			},
			"extras":{
				"ant_landscape":{}
			},
			"name":"red",
			"rotation":[
				-0.7071068286895752,
				0,
				0,
				0.7071068286895752
			],
			"translation":[
				3.9294593334198,
				3.8874082565307617,
				-1.8909074068069458
			]
		},
		{
			"extras":{
				"ant_landscape":{}
			},
			"mesh":2,
			"name":"Plane",
			"rotation":[
				-0.7132802605628967,
				-0.19363096356391907,
				-0.2041521817445755,
				0.6419191360473633
			],
			"scale":[
				75,
				1,
				75.00000762939453
			],
			"translation":[
				-54.7164306640625,
				42.48308181762695,
				125.29182434082031
			]
		},
		{
			"extras":{
				"ant_landscape":{}
			},
			"name":"sky_light",
			"rotation":[
				-0.8993364572525024,
				0.3367040455341339,
				-0.26813068985939026,
				0.07700794190168381
			],
			"scale":[
				68.52591705322266,
				68.52590942382812,
				68.52590942382812
			],
			"translation":[
				-30.628864288330078,
				48.01813888549805,
				83.44340515136719
			]
		},
		{
			"extensions":{
				"KHR_lights_punctual":{
					"light":2
				}
			},
			"extras":{
				"ant_landscape":{}
			},
			"name":"ground_light",
			"rotation":[
				-0.7071068286895752,
				0,
				0,
				0.7071068286895752
			],
			"translation":[
				6.543299674987793,
				34.656715393066406,
				-4.722224712371826
			]
		},
		{
			"extensions":{
				"KHR_lights_punctual":{
					"light":3
				}
			},
			"extras":{
				"ant_landscape":{}
			},
			"name":"red.001",
			"rotation":[
				-0.7071068286895752,
				0,
				0,
				0.7071068286895752
			],
			"translation":[
				-1.5901501178741455,
				2.3183696269989014,
				-3.338932991027832
			]
		},
		{
			"extras":{
				"ant_landscape":{}
			},
			"mesh":3,
			"name":"Plane.001",
			"rotation":[
				-0.7380367517471313,
				-0.3535335958003998,
				0.10773875564336777,
				0.5645424723625183
			],
			"scale":[
				13.401283264160156,
				13.401285171508789,
				13.401283264160156
			],
			"translation":[
				-18.278474807739258,
				41.37479019165039,
				77.17937469482422
			]
		},
		{
			"extras":{
				"ant_landscape":{}
			},
			"mesh":4,
			"name":"Plane.002",
			"rotation":[
				-0.7380367517471313,
				-0.3535335958003998,
				0.10773875564336777,
				0.5645424723625183
			],
			"scale":[
				13.401283264160156,
				13.401285171508789,
				13.401283264160156
			],
			"translation":[
				-5.874140739440918,
				26.54837417602539,
				87.73529052734375
			]
		},
		{
			"extras":{
				"ant_landscape":{}
			},
			"mesh":5,
			"name":"Plane.003",
			"rotation":[
				-0.031185664236545563,
				0.4747714102268219,
				-0.8375837802886963,
				0.2684645652770996
			],
			"scale":[
				13.401283264160156,
				13.401284217834473,
				13.401283264160156
			],
			"translation":[
				-36.14765548706055,
				42.36794662475586,
				68.0737075805664
			]
		},
		{
			"extras":{
				"ant_landscape":{}
			},
			"mesh":6,
			"name":"Plane.004",
			"rotation":[
				-0.031185664236545563,
				0.4747714102268219,
				-0.8375837802886963,
				0.2684645652770996
			],
			"scale":[
				13.401283264160156,
				13.401284217834473,
				13.401283264160156
			],
			"translation":[
				-25.017406463623047,
				22.36292266845703,
				79.55294036865234
			]
		},
		{
			"extras":{
				"ant_landscape":{}
			},
			"mesh":7,
			"name":"Plane.005",
			"rotation":[
				-0.18210859596729279,
				0.4005538821220398,
				-0.812245786190033,
				0.3829489052295685
			],
			"scale":[
				13.401283264160156,
				13.401284217834473,
				13.401283264160156
			],
			"translation":[
				-24.056652069091797,
				30.450057983398438,
				77.60387420654297
			]
		}
	],
	"cameras":[
		{
			"name":"Camera",
			"perspective":{
				"aspectRatio":1.7777777777777777,
				"yfov":0.48616342851817856,
				"zfar":10000,
				"znear":0.10000000149011612
			},
			"type":"perspective"
		}
	],
	"materials":[
		{
			"doubleSided":true,
			"extras":{
				"ps_mat_data":{},
				"paint_system":{}
			},
			"name":"Material",
			"normalTexture":{
				"index":0
			},
			"pbrMetallicRoughness":{
				"baseColorTexture":{
					"index":1
				},
				"metallicRoughnessTexture":{
					"index":2
				}
			}
		},
		{
			"doubleSided":true,
			"extras":{
				"ps_mat_data":{}
			},
			"name":"Material.002",
			"pbrMetallicRoughness":{
				"metallicFactor":0
			}
		},
		{
			"doubleSided":true,
			"extensions":{
				"KHR_materials_specular":{
					"specularFactor":0
				},
				"KHR_materials_ior":{
					"ior":1.899999976158142
				}
			},
			"extras":{
				"ps_mat_data":{}
			},
			"name":"sky",
			"pbrMetallicRoughness":{
				"metallicFactor":0,
				"roughnessFactor":0.3400000035762787
			}
		},
		{
			"alphaMode":"BLEND",
			"doubleSided":true,
			"extras":{
				"ps_mat_data":{}
			},
			"name":"lightning_1",
			"pbrMetallicRoughness":{
				"metallicFactor":0,
				"roughnessFactor":0.5
			}
		}
	],
	"meshes":[
		{
			"name":"Cube",
			"primitives":[
				{
					"attributes":{
						"POSITION":0,
						"NORMAL":1,
						"TEXCOORD_0":2,
						"JOINTS_0":3,
						"WEIGHTS_0":4
					},
					"indices":5,
					"material":0
				}
			]
		},
		{
			"name":"Landscape",
			"primitives":[
				{
					"attributes":{
						"POSITION":7,
						"NORMAL":8
					},
					"indices":9,
					"material":1
				}
			]
		},
		{
			"name":"Plane",
			"primitives":[
				{
					"attributes":{
						"POSITION":10,
						"NORMAL":11,
						"TEXCOORD_0":12,
						"TANGENT":13
					},
					"indices":14,
					"material":2
				}
			]
		},
		{
			"name":"Plane.002",
			"primitives":[
				{
					"attributes":{
						"POSITION":15,
						"NORMAL":16,
						"TEXCOORD_0":17,
						"TANGENT":18
					},
					"indices":14,
					"material":3
				}
			]
		},
		{
			"name":"Plane.003",
			"primitives":[
				{
					"attributes":{
						"POSITION":19,
						"NORMAL":20,
						"TEXCOORD_0":21,
						"TANGENT":22
					},
					"indices":14,
					"material":3
				}
			]
		},
		{
			"name":"Plane.004",
			"primitives":[
				{
					"attributes":{
						"POSITION":23,
						"NORMAL":24,
						"TEXCOORD_0":25,
						"TANGENT":26
					},
					"indices":14,
					"material":3
				}
			]
		},
		{
			"name":"Plane.005",
			"primitives":[
				{
					"attributes":{
						"POSITION":27,
						"NORMAL":28,
						"TEXCOORD_0":29,
						"TANGENT":30
					},
					"indices":14,
					"material":3
				}
			]
		},
		{
			"name":"Plane.006",
			"primitives":[
				{
					"attributes":{
						"POSITION":31,
						"NORMAL":32,
						"TEXCOORD_0":33,
						"TANGENT":34
					},
					"indices":14,
					"material":3
				}
			]
		}
	],
	"textures":[
		{
			"sampler":0,
			"source":0
		},
		{
			"sampler":0,
			"source":1
		},
		{
			"sampler":0,
			"source":2
		}
	],
	"images":[
		{
			"mimeType":"image/png",
			"name":"Material Normal",
			"uri":"../../models/Large_mech/textures/Material%20Normal.png"
		},
		{
			"mimeType":"image/png",
			"name":"Material Base Color legal detailed",
			"uri":"../../models/Large_mech/goodBaseColor.png"
		},
		{
			"mimeType":"image/png",
			"name":"Material Roughness",
			"uri":"../../models/Large_mech/textures/Material%20Roughness.png"
		}
	],
	"skins":[
		{
			"inverseBindMatrices":6,
			"joints":[
				17,
				7,
				3,
				2,
				1,
				6,
				5,
				4,
				16,
				11,
				10,
				9,
				8,
				15,
				14,
				13,
				12
			],
			"name":"Armature"
		}
	],
	"accessors":[
		{
			"bufferView":0,
			"componentType":5126,
			"count":23507,
			"max":[
				2.479830265045166,
				6.795243263244629,
				1.5132179260253906
			],
			"min":[
				-2.479830503463745,
				-0.014798164367675781,
				-1.4205831289291382
			],
			"type":"VEC3"
		},
		{
			"bufferView":1,
			"componentType":5126,
			"count":23507,
			"type":"VEC3"
		},
		{
			"bufferView":2,
			"componentType":5126,
			"count":23507,
			"type":"VEC2"
		},
		{
			"bufferView":3,
			"componentType":5121,
			"count":23507,
			"type":"VEC4"
		},
		{
			"bufferView":4,
			"componentType":5126,
			"count":23507,
			"type":"VEC4"
		},
		{
			"bufferView":5,
			"componentType":5123,
			"count":45060,
			"type":"SCALAR"
		},
		{
			"bufferView":6,
			"componentType":5126,
			"count":17,
			"type":"MAT4"
		},
		{
			"bufferView":7,
			"componentType":5126,
			"count":170812,
			"max":[
				0.390653133392334,
				0.3380752503871918,
				1
			],
			"min":[
				-1,
				0.004584126640111208,
				-0.48650628328323364
			],
			"type":"VEC3"
		},
		{
			"bufferView":8,
			"componentType":5126,
			"count":170812,
			"type":"VEC3"
		},
		{
			"bufferView":9,
			"componentType":5125,
			"count":1013589,
			"type":"SCALAR"
		},
		{
			"bufferView":10,
			"componentType":5126,
			"count":4,
			"max":[
				1,
				0,
				1
			],
			"min":[
				-1,
				0,
				-1
			],
			"type":"VEC3"
		},
		{
			"bufferView":11,
			"componentType":5126,
			"count":4,
			"type":"VEC3"
		},
		{
			"bufferView":12,
			"componentType":5126,
			"count":4,
			"type":"VEC2"
		},
		{
			"bufferView":13,
			"componentType":5126,
			"count":4,
			"type":"VEC4"
		},
		{
			"bufferView":14,
			"componentType":5123,
			"count":6,
			"type":"SCALAR"
		},
		{
			"bufferView":15,
			"componentType":5126,
			"count":4,
			"max":[
				1,
				0,
				1
			],
			"min":[
				-1,
				0,
				-1
			],
			"type":"VEC3"
		},
		{
			"bufferView":16,
			"componentType":5126,
			"count":4,
			"type":"VEC3"
		},
		{
			"bufferView":17,
			"componentType":5126,
			"count":4,
			"type":"VEC2"
		},
		{
			"bufferView":18,
			"componentType":5126,
			"count":4,
			"type":"VEC4"
		},
		{
			"bufferView":19,
			"componentType":5126,
			"count":4,
			"max":[
				1,
				0,
				1
			],
			"min":[
				-1,
				0,
				-1
			],
			"type":"VEC3"
		},
		{
			"bufferView":20,
			"componentType":5126,
			"count":4,
			"type":"VEC3"
		},
		{
			"bufferView":21,
			"componentType":5126,
			"count":4,
			"type":"VEC2"
		},
		{
			"bufferView":22,
			"componentType":5126,
			"count":4,
			"type":"VEC4"
		},
		{
			"bufferView":23,
			"componentType":5126,
			"count":4,
			"max":[
				1,
				0,
				1
			],
			"min":[
				-1,
				0,
				-1
			],
			"type":"VEC3"
		},
		{
			"bufferView":24,
			"componentType":5126,
			"count":4,
			"type":"VEC3"
		},
		{
			"bufferView":25,
			"componentType":5126,
			"count":4,
			"type":"VEC2"
		},
		{
			"bufferView":26,
			"componentType":5126,
			"count":4,
			"type":"VEC4"
		},
		{
			"bufferView":27,
			"componentType":5126,
			"count":4,
			"max":[
				1,
				0,
				1
			],
			"min":[
				-1,
				0,
				-1
			],
			"type":"VEC3"
		},
		{
			"bufferView":28,
			"componentType":5126,
			"count":4,
			"type":"VEC3"
		},
		{
			"bufferView":29,
			"componentType":5126,
			"count":4,
			"type":"VEC2"
		},
		{
			"bufferView":30,
			"componentType":5126,
			"count":4,
			"type":"VEC4"
		},
		{
			"bufferView":31,
			"componentType":5126,
			"count":4,
			"max":[
				1,
				0,
				1
			],
			"min":[
				-1,
				0,
				-1
			],
			"type":"VEC3"
		},
		{
			"bufferView":32,
			"componentType":5126,
			"count":4,
			"type":"VEC3"
		},
		{
			"bufferView":33,
			"componentType":5126,
			"count":4,
			"type":"VEC2"
		},
		{
			"bufferView":34,
			"componentType":5126,
			"count":4,
			"type":"VEC4"
		}
	],
	"bufferViews":[
		{
			"buffer":0,
			"byteLength":282084,
			"byteOffset":0,
			"target":34962
		},
		{
			"buffer":0,
			"byteLength":282084,
			"byteOffset":282084,
			"target":34962
		},
		{
			"buffer":0,
			"byteLength":188056,
			"byteOffset":564168,
			"target":34962
		},
		{
			"buffer":0,
			"byteLength":94028,
			"byteOffset":752224,
			"target":34962
		},
		{
			"buffer":0,
			"byteLength":376112,
			"byteOffset":846252,
			"target":34962
		},
		{
			"buffer":0,
			"byteLength":90120,
			"byteOffset":1222364,
			"target":34963
		},
		{
			"buffer":0,
			"byteLength":1088,
			"byteOffset":1312484
		},
		{
			"buffer":0,
			"byteLength":2049744,
			"byteOffset":1313572,
			"target":34962
		},
		{
			"buffer":0,
			"byteLength":2049744,
			"byteOffset":3363316,
			"target":34962
		},
		{
			"buffer":0,
			"byteLength":4054356,
			"byteOffset":5413060,
			"target":34963
		},
		{
			"buffer":0,
			"byteLength":48,
			"byteOffset":9467416,
			"target":34962
		},
		{
			"buffer":0,
			"byteLength":48,
			"byteOffset":9467464,
			"target":34962
		},
		{
			"buffer":0,
			"byteLength":32,
			"byteOffset":9467512,
			"target":34962
		},
		{
			"buffer":0,
			"byteLength":64,
			"byteOffset":9467544,
			"target":34962
		},
		{
			"buffer":0,
			"byteLength":12,
			"byteOffset":9467608,
			"target":34963
		},
		{
			"buffer":0,
			"byteLength":48,
			"byteOffset":9467620,
			"target":34962
		},
		{
			"buffer":0,
			"byteLength":48,
			"byteOffset":9467668,
			"target":34962
		},
		{
			"buffer":0,
			"byteLength":32,
			"byteOffset":9467716,
			"target":34962
		},
		{
			"buffer":0,
			"byteLength":64,
			"byteOffset":9467748,
			"target":34962
		},
		{
			"buffer":0,
			"byteLength":48,
			"byteOffset":9467812,
			"target":34962
		},
		{
			"buffer":0,
			"byteLength":48,
			"byteOffset":9467860,
			"target":34962
		},
		{
			"buffer":0,
			"byteLength":32,
			"byteOffset":9467908,
			"target":34962
		},
		{
			"buffer":0,
			"byteLength":64,
			"byteOffset":9467940,
			"target":34962
		},
		{
			"buffer":0,
			"byteLength":48,
			"byteOffset":9468004,
			"target":34962
		},
		{
			"buffer":0,
			"byteLength":48,
			"byteOffset":9468052,
			"target":34962
		},
		{
			"buffer":0,
			"byteLength":32,
			"byteOffset":9468100,
			"target":34962
		},
		{
			"buffer":0,
			"byteLength":64,
			"byteOffset":9468132,
			"target":34962
		},
		{
			"buffer":0,
			"byteLength":48,
			"byteOffset":9468196,
			"target":34962
		},
		{
			"buffer":0,
			"byteLength":48,
			"byteOffset":9468244,
			"target":34962
		},
		{
			"buffer":0,
			"byteLength":32,
			"byteOffset":9468292,
			"target":34962
		},
		{
			"buffer":0,
			"byteLength":64,
			"byteOffset":9468324,
			"target":34962
		},
		{
			"buffer":0,
			"byteLength":48,
			"byteOffset":9468388,
			"target":34962
		},
		{
			"buffer":0,
			"byteLength":48,
			"byteOffset":9468436,
			"target":34962
		},
		{
			"buffer":0,
			"byteLength":32,
			"byteOffset":9468484,
			"target":34962
		},
		{
			"buffer":0,
			"byteLength":64,
			"byteOffset":9468516,
			"target":34962
		}
	],
	"samplers":[
		{
			"magFilter":9729,
			"minFilter":9987
		}
	],
	"buffers":[
		{
			"byteLength":9468580,
			"uri":"Large_mech_showoff-067e68f2a326aa75c72a9581d9d3a40f.bin"
		}
	]
}
