{
	"asset":{
		"generator":"Khronos glTF Blender I/O v4.5.47",
		"version":"2.0"
	},
	"scene":0,
	"scenes":[
		{
			"extras":{
				"ps_scene_data":{}
			},
			"name":"Scene",
			"nodes":[
				0,
				1,
				2,
				3,
				4,
				5,
				6,
				7,
				8,
				9,
				10,
				11
			]
		}
	],
	"nodes":[
		{
			"extras":{
				"ant_landscape":{}
			},
			"mesh":0,
			"name":"torso",
			"rotation":[
				0,
				0,
				-0.08273471891880035,
				0.9965716004371643
			],
			"translation":[
				0,
				2.224090099334717,
				0
			]
		},
		{
			"extras":{
				"ant_landscape":{}
			},
			"mesh":1,
			"name":"lower_arm",
			"scale":[
				6.61978816986084,
				6.61978816986084,
				6.61978816986084
			],
			"translation":[
				-0.4452666640281677,
				1.1238538026809692,
				-1.9893730878829956
			]
		},
		{
			"extras":{
				"ant_landscape":{}
			},
			"mesh":2,
			"name":"minigun",
			"rotation":[
				0,
				0,
				0.707106351852417,
				0.7071071863174438
			],
			"scale":[
				1.2049607038497925,
				1.2049607038497925,
				1.2049607038497925
			],
			"translation":[
				0.5646257400512695,
				0.9889060258865356,
				-1.9893730878829956
			]
		},
		{
			"extras":{
				"ant_landscape":{}
			},
			"mesh":3,
			"name":"shoulder_joint_L",
			"scale":[
				0.3285118341445923,
				0.3285118341445923,
				0.3285118341445923
			],
			"translation":[
				-0.5127272605895996,
				2.7200400829315186,
				-1.532105565071106
			]
		},
		{
			"extras":{
				"ant_landscape":{}
			},
			"mesh":4,
			"name":"pelvis",
			"rotation":[
				0,
				0,
				-0.12100855261087418,
				0.9926514625549316
			],
			"scale":[
				11.733495712280273,
				8.035016059875488,
				16.123332977294922
			],
			"translation":[
				-0.10505527257919312,
				0.6258676052093506,
				0
			]
		},
		{
			"extras":{
				"ant_landscape":{}
			},
			"mesh":5,
			"name":"middle_leg",
			"rotation":[
				0.7071068286895752,
				0,
				0,
				0.7071068286895752
			],
			"scale":[
				1,
				1.933534860610962,
				1
			],
			"translation":[
				0.2698301076889038,
				0.018913358449935913,
				-1.1201399564743042
			]
		},
		{
			"extras":{
				"ant_landscape":{}
			},
			"mesh":6,
			"name":"upper_leg_L",
			"rotation":[
				0.7071068286895752,
				0,
				0,
				0.7071068286895752
			],
			"scale":[
				1,
				1.933534860610962,
				1
			],
			"translation":[
				-0.20489436388015747,
				0.7250112295150757,
				-1.1201399564743042
			]
		},
		{
			"extras":{
				"ant_landscape":{}
			},
			"mesh":7,
			"name":"lower_leg",
			"rotation":[
				0.7071068286895752,
				0,
				0,
				0.7071068286895752
			],
			"scale":[
				1,
				1.933534860610962,
				1
			],
			"translation":[
				-0.3278311491012573,
				-0.5781174898147583,
				-1.1201398372650146
			]
		},
		{
			"extras":{
				"ant_landscape":{}
			},
			"mesh":8,
			"name":"Cube.011",
			"scale":[
				0.7264777421951294,
				0.1947239637374878,
				0.1947239637374878
			],
			"translation":[
				0.12102335691452026,
				-2.2122387886047363,
				-1.3992431163787842
			]
		},
		{
			"extras":{
				"ant_landscape":{}
			},
			"mesh":9,
			"name":"foot",
			"rotation":[
				0.7071068286895752,
				0,
				0,
				0.7071068286895752
			],
			"scale":[
				1,
				1.933534860610962,
				1
			],
			"translation":[
				0.03061586618423462,
				-1.7897533178329468,
				-1.1201395988464355
			]
		},
		{
			"extras":{
				"ant_landscape":{}
			},
			"mesh":10,
			"name":"upper_leg_R",
			"rotation":[
				0,
				-0.7071068286895752,
				-0.7071068286895752,
				0
			],
			"scale":[
				-1,
				-1.933534860610962,
				-1
			],
			"translation":[
				-0.20489436388015747,
				0.7250112295150757,
				1.1201399564743042
			]
		},
		{
			"extras":{
				"ant_landscape":{}
			},
			"mesh":11,
			"name":"shoulder_joint_R",
			"rotation":[
				0,
				0,
				-1,
				0
			],
			"scale":[
				-0.3285118341445923,
				-0.3285118341445923,
				-0.3285118341445923
			],
			"translation":[
				-0.5127272605895996,
				2.7200400829315186,
				1.5321099758148193
			]
		}
	],
	"materials":[
		{
			"doubleSided":true,
			"extras":{
				"ps_mat_data":{}
			},
			"name":"Material",
			"pbrMetallicRoughness":{
				"baseColorFactor":[
					0.800000011920929,
					0.800000011920929,
					0.800000011920929,
					1
				],
				"metallicFactor":0,
				"roughnessFactor":0.5
			}
		}
	],
	"meshes":[
		{
			"name":"Cube",
			"primitives":[
				{
					"attributes":{
						"POSITION":0,
						"NORMAL":1,
						"TEXCOORD_0":2
					},
					"indices":3,
					"material":0
				}
			]
		},
		{
			"name":"Cube.012",
			"primitives":[
				{
					"attributes":{
						"POSITION":4,
						"NORMAL":5,
						"TEXCOORD_0":6
					},
					"indices":7
				}
			]
		},
		{
			"name":"Cylinder.015",
			"primitives":[
				{
					"attributes":{
						"POSITION":8,
						"NORMAL":9,
						"TEXCOORD_0":10
					},
					"indices":11
				}
			]
		},
		{
			"name":"Icosphere",
			"primitives":[
				{
					"attributes":{
						"POSITION":12,
						"NORMAL":13,
						"TEXCOORD_0":14
					},
					"indices":15
				}
			]
		},
		{
			"name":"Cube.021",
			"primitives":[
				{
					"attributes":{
						"POSITION":16,
						"NORMAL":17,
						"TEXCOORD_0":18
					},
					"indices":19
				}
			]
		},
		{
			"name":"Cylinder.010",
			"primitives":[
				{
					"attributes":{
						"POSITION":20,
						"NORMAL":21,
						"TEXCOORD_0":22
					},
					"indices":23
				}
			]
		},
		{
			"name":"Cylinder.011",
			"primitives":[
				{
					"attributes":{
						"POSITION":24,
						"NORMAL":25,
						"TEXCOORD_0":26
					},
					"indices":27
				}
			]
		},
		{
			"name":"Cylinder.013",
			"primitives":[
				{
					"attributes":{
						"POSITION":28,
						"NORMAL":29,
						"TEXCOORD_0":30
					},
					"indices":31
				}
			]
		},
		{
			"name":"Cube.019",
			"primitives":[
				{
					"attributes":{
						"POSITION":32,
						"NORMAL":33,
						"TEXCOORD_0":34
					},
					"indices":35
				}
			]
		},
		{
			"name":"Cylinder.014",
			"primitives":[
				{
					"attributes":{
						"POSITION":36,
						"NORMAL":37,
						"TEXCOORD_0":38
					},
					"indices":39
				}
			]
		},
		{
			"name":"Cylinder.002",
			"primitives":[
				{
					"attributes":{
						"POSITION":40,
						"NORMAL":41,
						"TEXCOORD_0":42
					},
					"indices":27
				}
			]
		},
		{
			"name":"Icosphere.002",
			"primitives":[
				{
					"attributes":{
						"POSITION":43,
						"NORMAL":44,
						"TEXCOORD_0":45
					},
					"indices":15
				}
			]
		}
	],
	"accessors":[
		{
			"bufferView":0,
			"componentType":5126,
			"count":5527,
			"max":[
				1.1095126867294312,
				1.9574341773986816,
				1.4240864515304565
			],
			"min":[
				-1.6606937646865845,
				-1,
				-1.424086570739746
			],
			"type":"VEC3"
		},
		{
			"bufferView":1,
			"componentType":5126,
			"count":5527,
			"type":"VEC3"
		},
		{
			"bufferView":2,
			"componentType":5126,
			"count":5527,
			"type":"VEC2"
		},
		{
			"bufferView":3,
			"componentType":5123,
			"count":9420,
			"type":"SCALAR"
		},
		{
			"bufferView":4,
			"componentType":5126,
			"count":2367,
			"max":[
				0.18526729941368103,
				0.19525599479675293,
				0.06109462305903435
			],
			"min":[
				-0.11550520360469818,
				-0.06467753648757935,
				-0.06109462305903435
			],
			"type":"VEC3"
		},
		{
			"bufferView":5,
			"componentType":5126,
			"count":2367,
			"type":"VEC3"
		},
		{
			"bufferView":6,
			"componentType":5126,
			"count":2367,
			"type":"VEC2"
		},
		{
			"bufferView":7,
			"componentType":5123,
			"count":4416,
			"type":"SCALAR"
		},
		{
			"bufferView":8,
			"componentType":5126,
			"count":2786,
			"max":[
				0.22709880769252777,
				0.7100000381469727,
				0.20722010731697083
			],
			"min":[
				-0.22709880769252777,
				-0.7100000381469727,
				-0.20722004771232605
			],
			"type":"VEC3"
		},
		{
			"bufferView":9,
			"componentType":5126,
			"count":2786,
			"type":"VEC3"
		},
		{
			"bufferView":10,
			"componentType":5126,
			"count":2786,
			"type":"VEC2"
		},
		{
			"bufferView":11,
			"componentType":5123,
			"count":6300,
			"type":"SCALAR"
		},
		{
			"bufferView":12,
			"componentType":5126,
			"count":883,
			"max":[
				1.320650339126587,
				1.386317253112793,
				0.9999999403953552
			],
			"min":[
				-1.5276803970336914,
				-1.5308185815811157,
				-2.884916305541992
			],
			"type":"VEC3"
		},
		{
			"bufferView":13,
			"componentType":5126,
			"count":883,
			"type":"VEC3"
		},
		{
			"bufferView":14,
			"componentType":5126,
			"count":883,
			"type":"VEC2"
		},
		{
			"bufferView":15,
			"componentType":5123,
			"count":1182,
			"type":"SCALAR"
		},
		{
			"bufferView":16,
			"componentType":5126,
			"count":336,
			"max":[
				0.05916500836610794,
				0.1275080442428589,
				0.04583575949072838
			],
			"min":[
				-0.056163135915994644,
				-0.05228857323527336,
				-0.04583575949072838
			],
			"type":"VEC3"
		},
		{
			"bufferView":17,
			"componentType":5126,
			"count":336,
			"type":"VEC3"
		},
		{
			"bufferView":18,
			"componentType":5126,
			"count":336,
			"type":"VEC2"
		},
		{
			"bufferView":19,
			"componentType":5123,
			"count":726,
			"type":"SCALAR"
		},
		{
			"bufferView":20,
			"componentType":5126,
			"count":268,
			"max":[
				0.36000001430511475,
				0.1700000762939453,
				1.0323679447174072
			],
			"min":[
				-1.0463483333587646,
				-0.1700000762939453,
				-0.36000001430511475
			],
			"type":"VEC3"
		},
		{
			"bufferView":21,
			"componentType":5126,
			"count":268,
			"type":"VEC3"
		},
		{
			"bufferView":22,
			"componentType":5126,
			"count":268,
			"type":"VEC2"
		},
		{
			"bufferView":23,
			"componentType":5123,
			"count":528,
			"type":"SCALAR"
		},
		{
			"bufferView":24,
			"componentType":5126,
			"count":527,
			"max":[
				1.2793344259262085,
				0.36750558018684387,
				0.8789932131767273
			],
			"min":[
				-0.36000001430511475,
				-0.1700000762939453,
				-0.36000001430511475
			],
			"type":"VEC3"
		},
		{
			"bufferView":25,
			"componentType":5126,
			"count":527,
			"type":"VEC3"
		},
		{
			"bufferView":26,
			"componentType":5126,
			"count":527,
			"type":"VEC2"
		},
		{
			"bufferView":27,
			"componentType":5123,
			"count":1044,
			"type":"SCALAR"
		},
		{
			"bufferView":28,
			"componentType":5126,
			"count":1363,
			"max":[
				0.644207775592804,
				0.1700000762939453,
				1.377453088760376
			],
			"min":[
				-1.031489610671997,
				-0.1700000762939453,
				-0.36000001430511475
			],
			"type":"VEC3"
		},
		{
			"bufferView":29,
			"componentType":5126,
			"count":1363,
			"type":"VEC3"
		},
		{
			"bufferView":30,
			"componentType":5126,
			"count":1363,
			"type":"VEC2"
		},
		{
			"bufferView":31,
			"componentType":5123,
			"count":2700,
			"type":"SCALAR"
		},
		{
			"bufferView":32,
			"componentType":5126,
			"count":368,
			"max":[
				1.6052206754684448,
				2.1867687702178955,
				5.242787837982178
			],
			"min":[
				-1.5047218799591064,
				-1.000000238418579,
				-2.376129388809204
			],
			"type":"VEC3"
		},
		{
			"bufferView":33,
			"componentType":5126,
			"count":368,
			"type":"VEC3"
		},
		{
			"bufferView":34,
			"componentType":5126,
			"count":368,
			"type":"VEC2"
		},
		{
			"bufferView":35,
			"componentType":5123,
			"count":792,
			"type":"SCALAR"
		},
		{
			"bufferView":36,
			"componentType":5126,
			"count":634,
			"max":[
				1.2565646171569824,
				0.38364601135253906,
				0.6172094345092773
			],
			"min":[
				-1.002739429473877,
				-0.38364601135253906,
				-0.36000001430511475
			],
			"type":"VEC3"
		},
		{
			"bufferView":37,
			"componentType":5126,
			"count":634,
			"type":"VEC3"
		},
		{
			"bufferView":38,
			"componentType":5126,
			"count":634,
			"type":"VEC2"
		},
		{
			"bufferView":39,
			"componentType":5123,
			"count":1236,
			"type":"SCALAR"
		},
		{
			"bufferView":40,
			"componentType":5126,
			"count":527,
			"max":[
				1.2793344259262085,
				0.36750558018684387,
				0.8789932131767273
			],
			"min":[
				-0.36000001430511475,
				-0.1700000762939453,
				-0.36000001430511475
			],
			"type":"VEC3"
		},
		{
			"bufferView":41,
			"componentType":5126,
			"count":527,
			"type":"VEC3"
		},
		{
			"bufferView":42,
			"componentType":5126,
			"count":527,
			"type":"VEC2"
		},
		{
			"bufferView":43,
			"componentType":5126,
			"count":883,
			"max":[
				1.320650339126587,
				1.386317253112793,
				0.9999999403953552
			],
			"min":[
				-1.5276803970336914,
				-1.5308185815811157,
				-2.884916305541992
			],
			"type":"VEC3"
		},
		{
			"bufferView":44,
			"componentType":5126,
			"count":883,
			"type":"VEC3"
		},
		{
			"bufferView":45,
			"componentType":5126,
			"count":883,
			"type":"VEC2"
		}
	],
	"bufferViews":[
		{
			"buffer":0,
			"byteLength":66324,
			"byteOffset":0,
			"target":34962
		},
		{
			"buffer":0,
			"byteLength":66324,
			"byteOffset":66324,
			"target":34962
		},
		{
			"buffer":0,
			"byteLength":44216,
			"byteOffset":132648,
			"target":34962
		},
		{
			"buffer":0,
			"byteLength":18840,
			"byteOffset":176864,
			"target":34963
		},
		{
			"buffer":0,
			"byteLength":28404,
			"byteOffset":195704,
			"target":34962
		},
		{
			"buffer":0,
			"byteLength":28404,
			"byteOffset":224108,
			"target":34962
		},
		{
			"buffer":0,
			"byteLength":18936,
			"byteOffset":252512,
			"target":34962
		},
		{
			"buffer":0,
			"byteLength":8832,
			"byteOffset":271448,
			"target":34963
		},
		{
			"buffer":0,
			"byteLength":33432,
			"byteOffset":280280,
			"target":34962
		},
		{
			"buffer":0,
			"byteLength":33432,
			"byteOffset":313712,
			"target":34962
		},
		{
			"buffer":0,
			"byteLength":22288,
			"byteOffset":347144,
			"target":34962
		},
		{
			"buffer":0,
			"byteLength":12600,
			"byteOffset":369432,
			"target":34963
		},
		{
			"buffer":0,
			"byteLength":10596,
			"byteOffset":382032,
			"target":34962
		},
		{
			"buffer":0,
			"byteLength":10596,
			"byteOffset":392628,
			"target":34962
		},
		{
			"buffer":0,
			"byteLength":7064,
			"byteOffset":403224,
			"target":34962
		},
		{
			"buffer":0,
			"byteLength":2364,
			"byteOffset":410288,
			"target":34963
		},
		{
			"buffer":0,
			"byteLength":4032,
			"byteOffset":412652,
			"target":34962
		},
		{
			"buffer":0,
			"byteLength":4032,
			"byteOffset":416684,
			"target":34962
		},
		{
			"buffer":0,
			"byteLength":2688,
			"byteOffset":420716,
			"target":34962
		},
		{
			"buffer":0,
			"byteLength":1452,
			"byteOffset":423404,
			"target":34963
		},
		{
			"buffer":0,
			"byteLength":3216,
			"byteOffset":424856,
			"target":34962
		},
		{
			"buffer":0,
			"byteLength":3216,
			"byteOffset":428072,
			"target":34962
		},
		{
			"buffer":0,
			"byteLength":2144,
			"byteOffset":431288,
			"target":34962
		},
		{
			"buffer":0,
			"byteLength":1056,
			"byteOffset":433432,
			"target":34963
		},
		{
			"buffer":0,
			"byteLength":6324,
			"byteOffset":434488,
			"target":34962
		},
		{
			"buffer":0,
			"byteLength":6324,
			"byteOffset":440812,
			"target":34962
		},
		{
			"buffer":0,
			"byteLength":4216,
			"byteOffset":447136,
			"target":34962
		},
		{
			"buffer":0,
			"byteLength":2088,
			"byteOffset":451352,
			"target":34963
		},
		{
			"buffer":0,
			"byteLength":16356,
			"byteOffset":453440,
			"target":34962
		},
		{
			"buffer":0,
			"byteLength":16356,
			"byteOffset":469796,
			"target":34962
		},
		{
			"buffer":0,
			"byteLength":10904,
			"byteOffset":486152,
			"target":34962
		},
		{
			"buffer":0,
			"byteLength":5400,
			"byteOffset":497056,
			"target":34963
		},
		{
			"buffer":0,
			"byteLength":4416,
			"byteOffset":502456,
			"target":34962
		},
		{
			"buffer":0,
			"byteLength":4416,
			"byteOffset":506872,
			"target":34962
		},
		{
			"buffer":0,
			"byteLength":2944,
			"byteOffset":511288,
			"target":34962
		},
		{
			"buffer":0,
			"byteLength":1584,
			"byteOffset":514232,
			"target":34963
		},
		{
			"buffer":0,
			"byteLength":7608,
			"byteOffset":515816,
			"target":34962
		},
		{
			"buffer":0,
			"byteLength":7608,
			"byteOffset":523424,
			"target":34962
		},
		{
			"buffer":0,
			"byteLength":5072,
			"byteOffset":531032,
			"target":34962
		},
		{
			"buffer":0,
			"byteLength":2472,
			"byteOffset":536104,
			"target":34963
		},
		{
			"buffer":0,
			"byteLength":6324,
			"byteOffset":538576,
			"target":34962
		},
		{
			"buffer":0,
			"byteLength":6324,
			"byteOffset":544900,
			"target":34962
		},
		{
			"buffer":0,
			"byteLength":4216,
			"byteOffset":551224,
			"target":34962
		},
		{
			"buffer":0,
			"byteLength":10596,
			"byteOffset":555440,
			"target":34962
		},
		{
			"buffer":0,
			"byteLength":10596,
			"byteOffset":566036,
			"target":34962
		},
		{
			"buffer":0,
			"byteLength":7064,
			"byteOffset":576632,
			"target":34962
		}
	],
	"buffers":[
		{
			"byteLength":583696,
			"uri":"Large_mech_components-7f3a805d6468e5c5865d83f0d3fd74e9.bin"
		}
	]
}
