{
	"asset":{
		"generator":"Khronos glTF Blender I/O v4.5.47",
		"version":"2.0"
	},
	"scene":0,
	"scenes":[
		{
			"extras":{
				"univ_settings":{},
				"ps_scene_data":{},
				"wfc_props":{
					"auto_save":1,
					"copy_modifiers":0,
					"remove_target_collection":1,
					"link_objects":1,
					"render_delay":0.0,
					"prefs_migrated":1,
					"collection_obj":{}
				},
				"td":{
					"units":0,
					"uv_space":"110.7564",
					"density":"3.048",
					"texture_size":0,
					"selected_faces":1,
					"checker_method":1,
					"checker_type":0,
					"checker_uv_scale":"1.0",
					"density_set":"1.28",
					"set_method":0,
					"rescale_anchor":0,
					"select_mode":0,
					"select_type":0,
					"select_value":"1.0",
					"select_threshold":"0.1",
					"bake_vc_mode":0,
					"bake_vc_auto_min_max":1,
					"bake_vc_min_td":"0.64",
					"bake_vc_max_td":"10.24",
					"bake_vc_show_gradient":0,
					"initialized":1
				}
			},
			"name":"Scene",
			"nodes":[
				0,
				1,
				2,
				3,
				4,
				5,
				6,
				7,
				8,
				9,
				10,
				11,
				12,
				13,
				14,
				15,
				17,
				18,
				19,
				20,
				21,
				22,
				23
			]
		}
	],
	"nodes":[
		{
			"extras":{
				"booleans":{}
			},
			"mesh":0,
			"name":"hedgehog",
			"rotation":[
				0.35810863971710205,
				0.1349252611398697,
				0.32573840022087097,
				0.8645507097244263
			],
			"scale":[
				4,
				1,
				30
			],
			"translation":[
				7.515832901000977,
				1.3398727178573608,
				-9.634821891784668
			]
		},
		{
			"name":"barrell"
		},
		{
			"mesh":1,
			"name":"Cube",
			"scale":[
				3,
				0.16961884498596191,
				3
			],
			"translation":[
				14.04211711883545,
				0,
				0.6220776438713074
			]
		},
		{
			"mesh":2,
			"name":"Cube.003",
			"scale":[
				3,
				0.16961884498596191,
				3
			],
			"translation":[
				11.777424812316895,
				0,
				5.953781604766846
			]
		},
		{
			"mesh":3,
			"name":"Cube.001",
			"scale":[
				3,
				0.16961884498596191,
				3
			],
			"translation":[
				13.566835403442383,
				0,
				-4.265649318695068
			]
		},
		{
			"mesh":4,
			"name":"Cube.004",
			"scale":[
				3,
				0.16961884498596191,
				3
			],
			"translation":[
				5.446475505828857,
				0,
				2.191798448562622
			]
		},
		{
			"mesh":5,
			"name":"Cube.005",
			"scale":[
				3,
				0.16961884498596191,
				3
			],
			"translation":[
				7.606493949890137,
				0,
				-3.975856065750122
			]
		},
		{
			"mesh":6,
			"name":"Beam",
			"translation":[
				-6.282203674316406,
				0,
				-17.72779655456543
			]
		},
		{
			"mesh":7,
			"name":"Beam.002",
			"translation":[
				-8.54298210144043,
				0,
				-17.72779655456543
			]
		},
		{
			"mesh":8,
			"name":"Beam.003",
			"translation":[
				-10.015417098999023,
				0,
				-17.72779655456543
			]
		},
		{
			"mesh":9,
			"name":"Beam.004",
			"translation":[
				-4.756366729736328,
				0,
				-17.72779655456543
			]
		},
		{
			"mesh":10,
			"name":"Beam.005",
			"translation":[
				-3.3319625854492188,
				0,
				-17.72779655456543
			]
		},
		{
			"mesh":11,
			"name":"Beam.006",
			"translation":[
				-2.0424399375915527,
				0,
				-17.72779655456543
			]
		},
		{
			"mesh":12,
			"name":"Gear",
			"translation":[
				-11.393482208251953,
				0,
				0
			]
		},
		{
			"mesh":13,
			"name":"Gear.001",
			"translation":[
				-8.267719268798828,
				0,
				0
			]
		},
		{
			"mesh":14,
			"name":"Gear.002",
			"translation":[
				-5.342736721038818,
				0,
				0
			]
		},
		{
			"name":"SK_Mannequin_LodGroup"
		},
		{
			"children":[
				16
			],
			"name":"SK_Mannequin",
			"scale":[
				0.009999999776482582,
				0.009999999776482582,
				0.009999999776482582
			]
		},
		{
			"mesh":15,
			"name":"base",
			"scale":[
				0.029999999329447746,
				0.029999999329447746,
				0.029999999329447746
			],
			"translation":[
				-4.744128704071045,
				0,
				-6.728780269622803
			]
		},
		{
			"mesh":16,
			"name":"missile_decorative",
			"scale":[
				0.029999999329447746,
				0.029999999329447746,
				0.029999999329447746
			],
			"translation":[
				-6.812150955200195,
				-0.05559511482715607,
				-6.544788837432861
			]
		},
		{
			"mesh":17,
			"name":"missile rack_decorative",
			"scale":[
				0.029999999329447746,
				0.029999999329447746,
				0.029999999329447746
			],
			"translation":[
				-4.744128704071045,
				0,
				-6.728780269622803
			]
		},
		{
			"mesh":18,
			"name":"missile.001",
			"rotation":[
				0,
				0,
				0.6087614297866821,
				0.7933533787727356
			],
			"scale":[
				0.029999999329447746,
				0.029999999329447746,
				0.029999999329447746
			],
			"translation":[
				1.7420483827590942,
				-1.666272521018982,
				-2.1036651134490967
			]
		},
		{
			"mesh":19,
			"name":"missile rack_lower",
			"scale":[
				0.029999999329447746,
				0.029999999329447746,
				0.029999999329447746
			],
			"translation":[
				-4.744128704071045,
				-1.8076838254928589,
				-6.728780269622803
			]
		},
		{
			"mesh":20,
			"name":"radio_tower",
			"scale":[
				1.64537513256073,
				1.64537513256073,
				1.64537513256073
			],
			"translation":[
				-9.13685131072998,
				0.13978832960128784,
				3.2575454711914062
			]
		}
	],
	"materials":[
		{
			"doubleSided":true,
			"name":"rusted_metal_2",
			"pbrMetallicRoughness":{
				"metallicFactor":0
			}
		},
		{
			"doubleSided":true,
			"extras":{
				"ps_mat_data":{}
			},
			"name":"rusted_metal",
			"pbrMetallicRoughness":{
				"metallicFactor":0
			}
		},
		{
			"doubleSided":true,
			"extras":{
				"ps_mat_data":{}
			},
			"name":"beam_mat",
			"pbrMetallicRoughness":{
				"metallicFactor":0
			}
		},
		{
			"doubleSided":true,
			"name":"Material.004",
			"pbrMetallicRoughness":{
				"baseColorFactor":[
					0.800000011920929,
					0.800000011920929,
					0.800000011920929,
					1
				],
				"metallicFactor":0,
				"roughnessFactor":0.5
			}
		},
		{
			"doubleSided":true,
			"name":"buttons.001",
			"pbrMetallicRoughness":{
				"baseColorFactor":[
					0.8000000715255737,
					0,
					0.025483451783657074,
					1
				],
				"metallicFactor":0,
				"roughnessFactor":0.5
			}
		},
		{
			"doubleSided":true,
			"name":"Material.005",
			"pbrMetallicRoughness":{
				"baseColorFactor":[
					0,
					0,
					0,
					1
				],
				"metallicFactor":0,
				"roughnessFactor":0.5
			}
		},
		{
			"doubleSided":true,
			"name":"base.001",
			"pbrMetallicRoughness":{
				"baseColorFactor":[
					0.800000011920929,
					0.800000011920929,
					0.800000011920929,
					1
				],
				"metallicFactor":0,
				"roughnessFactor":0.5
			}
		},
		{
			"doubleSided":true,
			"name":"Material.006",
			"pbrMetallicRoughness":{
				"baseColorFactor":[
					0.800000011920929,
					0.800000011920929,
					0.800000011920929,
					1
				],
				"metallicFactor":0,
				"roughnessFactor":0.5
			}
		},
		{
			"doubleSided":true,
			"extras":{
				"ps_mat_data":{}
			},
			"name":"antenna_metal"
		},
		{
			"doubleSided":true,
			"name":"antenna_screen",
			"pbrMetallicRoughness":{
				"baseColorFactor":[
					0,
					0,
					0,
					1
				],
				"metallicFactor":0
			}
		},
		{
			"doubleSided":true,
			"name":"antenna_buttons",
			"pbrMetallicRoughness":{
				"baseColorFactor":[
					0.8000000715255737,
					0,
					0.001969663891941309,
					1
				],
				"metallicFactor":0,
				"roughnessFactor":0.4629629850387573
			}
		}
	],
	"meshes":[
		{
			"name":"Cube.005",
			"primitives":[
				{
					"attributes":{
						"POSITION":0,
						"NORMAL":1,
						"TEXCOORD_0":2
					},
					"indices":3,
					"material":0
				}
			]
		},
		{
			"name":"Cube",
			"primitives":[
				{
					"attributes":{
						"POSITION":4,
						"NORMAL":5,
						"TEXCOORD_0":6
					},
					"indices":7,
					"material":1
				}
			]
		},
		{
			"name":"Cube.003",
			"primitives":[
				{
					"attributes":{
						"POSITION":8,
						"NORMAL":9,
						"TEXCOORD_0":10
					},
					"indices":11,
					"material":1
				}
			]
		},
		{
			"name":"Cube.006",
			"primitives":[
				{
					"attributes":{
						"POSITION":12,
						"NORMAL":13,
						"TEXCOORD_0":14
					},
					"indices":15,
					"material":1
				}
			]
		},
		{
			"name":"Cube.008",
			"primitives":[
				{
					"attributes":{
						"POSITION":16,
						"NORMAL":17,
						"TEXCOORD_0":18
					},
					"indices":19,
					"material":1
				}
			]
		},
		{
			"name":"Cube.009",
			"primitives":[
				{
					"attributes":{
						"POSITION":20,
						"NORMAL":21,
						"TEXCOORD_0":22
					},
					"indices":23,
					"material":1
				}
			]
		},
		{
			"extras":{
				"Beam":true,
				"change":false,
				"Type":"4",
				"beamZ":1.0,
				"beamX":0.7099999785423279,
				"beamY":9.0,
				"beamW":0.10000000149011612,
				"edgeA":0
			},
			"name":"Beam",
			"primitives":[
				{
					"attributes":{
						"POSITION":24,
						"NORMAL":25,
						"TEXCOORD_0":26,
						"TANGENT":27
					},
					"indices":28,
					"material":2
				}
			]
		},
		{
			"extras":{
				"Beam":true,
				"change":false,
				"Type":"4",
				"beamZ":1.0,
				"beamX":0.7099999785423279,
				"beamY":6.0,
				"beamW":0.10000000149011612,
				"edgeA":0
			},
			"name":"Beam.002",
			"primitives":[
				{
					"attributes":{
						"POSITION":29,
						"NORMAL":30,
						"TEXCOORD_0":31,
						"TANGENT":32
					},
					"indices":28,
					"material":2
				}
			]
		},
		{
			"extras":{
				"Beam":true,
				"change":false,
				"Type":"4",
				"beamZ":1.0,
				"beamX":0.7099999785423279,
				"beamY":4.0,
				"beamW":0.10000000149011612,
				"edgeA":0
			},
			"name":"Beam.003",
			"primitives":[
				{
					"attributes":{
						"POSITION":33,
						"NORMAL":34,
						"TEXCOORD_0":35,
						"TANGENT":36
					},
					"indices":37,
					"material":2
				}
			]
		},
		{
			"extras":{
				"Beam":true,
				"change":false,
				"Type":"3",
				"beamZ":1.0,
				"beamX":0.7099999785423279,
				"beamY":4.0,
				"beamW":0.10000000149011612,
				"edgeA":0
			},
			"name":"Beam.004",
			"primitives":[
				{
					"attributes":{
						"POSITION":38,
						"NORMAL":39,
						"TEXCOORD_0":40,
						"TANGENT":41
					},
					"indices":42,
					"material":2
				}
			]
		},
		{
			"extras":{
				"Beam":true,
				"change":false,
				"Type":"3",
				"beamZ":1.0,
				"beamX":0.7099999785423279,
				"beamY":6.0,
				"beamW":0.10000000149011612,
				"edgeA":0
			},
			"name":"Beam.005",
			"primitives":[
				{
					"attributes":{
						"POSITION":43,
						"NORMAL":44,
						"TEXCOORD_0":45,
						"TANGENT":46
					},
					"indices":42,
					"material":2
				}
			]
		},
		{
			"extras":{
				"Beam":true,
				"change":false,
				"Type":"3",
				"beamZ":1.0,
				"beamX":0.7099999785423279,
				"beamY":9.0,
				"beamW":0.10000000149011612,
				"edgeA":0
			},
			"name":"Beam.006",
			"primitives":[
				{
					"attributes":{
						"POSITION":47,
						"NORMAL":48,
						"TEXCOORD_0":49,
						"TANGENT":50
					},
					"indices":42,
					"material":2
				}
			]
		},
		{
			"extras":{
				"Gear":true,
				"change":false,
				"number_of_teeth":12,
				"radius":1.0,
				"addendum":0.10000000149011612,
				"dedendum":0.10000000149011612,
				"base":0.20000000298023224,
				"angle":0.3490658402442932,
				"width":0.20000000298023224,
				"skew":0.0,
				"conangle":0.0,
				"crown":0.0
			},
			"name":"Gear",
			"primitives":[
				{
					"attributes":{
						"POSITION":51,
						"NORMAL":52,
						"TEXCOORD_0":53
					},
					"indices":54,
					"material":1
				}
			]
		},
		{
			"extras":{
				"Gear":true,
				"change":false,
				"number_of_teeth":8,
				"radius":0.9200000166893005,
				"addendum":0.10000000149011612,
				"dedendum":0.10000000149011612,
				"base":0.5299999713897705,
				"angle":0.3490658402442932,
				"width":0.30000001192092896,
				"skew":0.0,
				"conangle":0.0,
				"crown":0.0
			},
			"name":"Gear.001",
			"primitives":[
				{
					"attributes":{
						"POSITION":55,
						"NORMAL":56,
						"TEXCOORD_0":57
					},
					"indices":58,
					"material":1
				}
			]
		},
		{
			"extras":{
				"Gear":true,
				"change":false,
				"number_of_teeth":16,
				"radius":0.9200000166893005,
				"addendum":0.10000000149011612,
				"dedendum":0.10000000149011612,
				"base":0.41999995708465576,
				"angle":0.33283427357673645,
				"width":0.30000001192092896,
				"skew":0.0,
				"conangle":0.0,
				"crown":0.0
			},
			"name":"Gear.002",
			"primitives":[
				{
					"attributes":{
						"POSITION":59,
						"NORMAL":60,
						"TEXCOORD_0":61
					},
					"indices":62,
					"material":1
				}
			]
		},
		{
			"name":"ML-44 (1)",
			"primitives":[
				{
					"attributes":{
						"POSITION":63,
						"NORMAL":64
					},
					"indices":65,
					"material":3
				},
				{
					"attributes":{
						"POSITION":66,
						"NORMAL":67
					},
					"indices":68,
					"material":4
				},
				{
					"attributes":{
						"POSITION":69,
						"NORMAL":70
					},
					"indices":71,
					"material":5
				}
			]
		},
		{
			"name":"ML-44 (1).001",
			"primitives":[
				{
					"attributes":{
						"POSITION":72,
						"NORMAL":73
					},
					"indices":74
				}
			]
		},
		{
			"name":"ML-44 (1).004",
			"primitives":[
				{
					"attributes":{
						"POSITION":75,
						"NORMAL":76
					},
					"indices":77,
					"material":6
				},
				{
					"attributes":{
						"POSITION":78,
						"NORMAL":79
					},
					"indices":80,
					"material":7
				}
			]
		},
		{
			"name":"ML-44 (1).002",
			"primitives":[
				{
					"attributes":{
						"POSITION":81,
						"NORMAL":82
					},
					"indices":74
				}
			]
		},
		{
			"name":"ML-44 (1).003",
			"primitives":[
				{
					"attributes":{
						"POSITION":83,
						"NORMAL":84
					},
					"indices":77,
					"material":6
				},
				{
					"attributes":{
						"POSITION":85,
						"NORMAL":86
					},
					"indices":80,
					"material":7
				}
			]
		},
		{
			"name":"Cube.012",
			"primitives":[
				{
					"attributes":{
						"POSITION":87,
						"NORMAL":88,
						"TEXCOORD_0":89
					},
					"indices":90,
					"material":8
				},
				{
					"attributes":{
						"POSITION":91,
						"NORMAL":92,
						"TEXCOORD_0":93
					},
					"indices":94,
					"material":9
				},
				{
					"attributes":{
						"POSITION":95,
						"NORMAL":96,
						"TEXCOORD_0":97
					},
					"indices":98,
					"material":10
				}
			]
		}
	],
	"accessors":[
		{
			"bufferView":0,
			"componentType":5126,
			"count":369,
			"max":[
				0.8011565804481506,
				3.000000238418579,
				0.10000000149011612
			],
			"min":[
				-0.6988434195518494,
				-3.000000238418579,
				-0.10000000149011612
			],
			"type":"VEC3"
		},
		{
			"bufferView":1,
			"componentType":5126,
			"count":369,
			"type":"VEC3"
		},
		{
			"bufferView":2,
			"componentType":5126,
			"count":369,
			"type":"VEC2"
		},
		{
			"bufferView":3,
			"componentType":5123,
			"count":792,
			"type":"SCALAR"
		},
		{
			"bufferView":4,
			"componentType":5126,
			"count":60,
			"max":[
				1,
				1,
				1
			],
			"min":[
				-1,
				-1,
				-0.625347375869751
			],
			"type":"VEC3"
		},
		{
			"bufferView":5,
			"componentType":5126,
			"count":60,
			"type":"VEC3"
		},
		{
			"bufferView":6,
			"componentType":5126,
			"count":60,
			"type":"VEC2"
		},
		{
			"bufferView":7,
			"componentType":5123,
			"count":108,
			"type":"SCALAR"
		},
		{
			"bufferView":8,
			"componentType":5126,
			"count":124,
			"max":[
				0.6524553298950195,
				1.0000228881835938,
				1
			],
			"min":[
				-1,
				-1.0000076293945312,
				-0.7120034694671631
			],
			"type":"VEC3"
		},
		{
			"bufferView":9,
			"componentType":5126,
			"count":124,
			"type":"VEC3"
		},
		{
			"bufferView":10,
			"componentType":5126,
			"count":124,
			"type":"VEC2"
		},
		{
			"bufferView":11,
			"componentType":5123,
			"count":312,
			"type":"SCALAR"
		},
		{
			"bufferView":12,
			"componentType":5126,
			"count":176,
			"max":[
				1,
				1.0000019073486328,
				1
			],
			"min":[
				-1,
				-1.0000076293945312,
				-0.8025379180908203
			],
			"type":"VEC3"
		},
		{
			"bufferView":13,
			"componentType":5126,
			"count":176,
			"type":"VEC3"
		},
		{
			"bufferView":14,
			"componentType":5126,
			"count":176,
			"type":"VEC2"
		},
		{
			"bufferView":15,
			"componentType":5123,
			"count":408,
			"type":"SCALAR"
		},
		{
			"bufferView":16,
			"componentType":5126,
			"count":132,
			"max":[
				1,
				1.0000076293945312,
				1
			],
			"min":[
				-0.9698554873466492,
				-1.0000152587890625,
				-1
			],
			"type":"VEC3"
		},
		{
			"bufferView":17,
			"componentType":5126,
			"count":132,
			"type":"VEC3"
		},
		{
			"bufferView":18,
			"componentType":5126,
			"count":132,
			"type":"VEC2"
		},
		{
			"bufferView":19,
			"componentType":5123,
			"count":312,
			"type":"SCALAR"
		},
		{
			"bufferView":20,
			"componentType":5126,
			"count":196,
			"max":[
				1,
				1.0000038146972656,
				0.6728302240371704
			],
			"min":[
				-1,
				-1.000020980834961,
				-1
			],
			"type":"VEC3"
		},
		{
			"bufferView":21,
			"componentType":5126,
			"count":196,
			"type":"VEC3"
		},
		{
			"bufferView":22,
			"componentType":5126,
			"count":196,
			"type":"VEC2"
		},
		{
			"bufferView":23,
			"componentType":5123,
			"count":504,
			"type":"SCALAR"
		},
		{
			"bufferView":24,
			"componentType":5126,
			"count":120,
			"max":[
				0.35499998927116394,
				0.5,
				4.5
			],
			"min":[
				-0.35499998927116394,
				-0.5,
				-4.5
			],
			"type":"VEC3"
		},
		{
			"bufferView":25,
			"componentType":5126,
			"count":120,
			"type":"VEC3"
		},
		{
			"bufferView":26,
			"componentType":5126,
			"count":120,
			"type":"VEC2"
		},
		{
			"bufferView":27,
			"componentType":5126,
			"count":120,
			"type":"VEC4"
		},
		{
			"bufferView":28,
			"componentType":5123,
			"count":180,
			"type":"SCALAR"
		},
		{
			"bufferView":29,
			"componentType":5126,
			"count":120,
			"max":[
				0.35499998927116394,
				0.5,
				3
			],
			"min":[
				-0.35499998927116394,
				-0.5,
				-3
			],
			"type":"VEC3"
		},
		{
			"bufferView":30,
			"componentType":5126,
			"count":120,
			"type":"VEC3"
		},
		{
			"bufferView":31,
			"componentType":5126,
			"count":120,
			"type":"VEC2"
		},
		{
			"bufferView":32,
			"componentType":5126,
			"count":120,
			"type":"VEC4"
		},
		{
			"bufferView":33,
			"componentType":5126,
			"count":88,
			"max":[
				0.35499998927116394,
				0.5,
				2
			],
			"min":[
				-0.35499998927116394,
				-0.5,
				-2
			],
			"type":"VEC3"
		},
		{
			"bufferView":34,
			"componentType":5126,
			"count":88,
			"type":"VEC3"
		},
		{
			"bufferView":35,
			"componentType":5126,
			"count":88,
			"type":"VEC2"
		},
		{
			"bufferView":36,
			"componentType":5126,
			"count":88,
			"type":"VEC4"
		},
		{
			"bufferView":37,
			"componentType":5123,
			"count":180,
			"type":"SCALAR"
		},
		{
			"bufferView":38,
			"componentType":5126,
			"count":40,
			"max":[
				0.35499998927116394,
				0.5,
				2
			],
			"min":[
				-0.35499998927116394,
				-0.5,
				-2
			],
			"type":"VEC3"
		},
		{
			"bufferView":39,
			"componentType":5126,
			"count":40,
			"type":"VEC3"
		},
		{
			"bufferView":40,
			"componentType":5126,
			"count":40,
			"type":"VEC2"
		},
		{
			"bufferView":41,
			"componentType":5126,
			"count":40,
			"type":"VEC4"
		},
		{
			"bufferView":42,
			"componentType":5123,
			"count":60,
			"type":"SCALAR"
		},
		{
			"bufferView":43,
			"componentType":5126,
			"count":40,
			"max":[
				0.35499998927116394,
				0.5,
				3
			],
			"min":[
				-0.35499998927116394,
				-0.5,
				-3
			],
			"type":"VEC3"
		},
		{
			"bufferView":44,
			"componentType":5126,
			"count":40,
			"type":"VEC3"
		},
		{
			"bufferView":45,
			"componentType":5126,
			"count":40,
			"type":"VEC2"
		},
		{
			"bufferView":46,
			"componentType":5126,
			"count":40,
			"type":"VEC4"
		},
		{
			"bufferView":47,
			"componentType":5126,
			"count":40,
			"max":[
				0.35499998927116394,
				0.5,
				4.5
			],
			"min":[
				-0.35499998927116394,
				-0.5,
				-4.5
			],
			"type":"VEC3"
		},
		{
			"bufferView":48,
			"componentType":5126,
			"count":40,
			"type":"VEC3"
		},
		{
			"bufferView":49,
			"componentType":5126,
			"count":40,
			"type":"VEC2"
		},
		{
			"bufferView":50,
			"componentType":5126,
			"count":40,
			"type":"VEC4"
		},
		{
			"bufferView":51,
			"componentType":5126,
			"count":912,
			"max":[
				1.0852446556091309,
				0.20000000298023224,
				1.0852446556091309
			],
			"min":[
				-1.0852446556091309,
				-0.20000000298023224,
				-1.0852446556091309
			],
			"type":"VEC3"
		},
		{
			"bufferView":52,
			"componentType":5126,
			"count":912,
			"type":"VEC3"
		},
		{
			"bufferView":53,
			"componentType":5126,
			"count":912,
			"type":"VEC2"
		},
		{
			"bufferView":54,
			"componentType":5123,
			"count":2400,
			"type":"SCALAR"
		},
		{
			"bufferView":55,
			"componentType":5126,
			"count":716,
			"max":[
				0.9926685094833374,
				0.30000001192092896,
				0.9926685094833374
			],
			"min":[
				-0.9926685094833374,
				-0.30000001192092896,
				-0.9926685094833374
			],
			"type":"VEC3"
		},
		{
			"bufferView":56,
			"componentType":5126,
			"count":716,
			"type":"VEC3"
		},
		{
			"bufferView":57,
			"componentType":5126,
			"count":716,
			"type":"VEC2"
		},
		{
			"bufferView":58,
			"componentType":5123,
			"count":1668,
			"type":"SCALAR"
		},
		{
			"bufferView":59,
			"componentType":5126,
			"count":1260,
			"max":[
				1.0111194849014282,
				0.30000001192092896,
				1.0111194849014282
			],
			"min":[
				-1.0111194849014282,
				-0.30000001192092896,
				-1.0111194849014282
			],
			"type":"VEC3"
		},
		{
			"bufferView":60,
			"componentType":5126,
			"count":1260,
			"type":"VEC3"
		},
		{
			"bufferView":61,
			"componentType":5126,
			"count":1260,
			"type":"VEC2"
		},
		{
			"bufferView":62,
			"componentType":5123,
			"count":3012,
			"type":"SCALAR"
		},
		{
			"bufferView":63,
			"componentType":5126,
			"count":612,
			"max":[
				47.9410514831543,
				60,
				47.9410514831543
			],
			"min":[
				-47.9410514831543,
				-6,
				-47.9410514831543
			],
			"type":"VEC3"
		},
		{
			"bufferView":64,
			"componentType":5126,
			"count":612,
			"type":"VEC3"
		},
		{
			"bufferView":65,
			"componentType":5123,
			"count":1140,
			"type":"SCALAR"
		},
		{
			"bufferView":66,
			"componentType":5126,
			"count":516,
			"max":[
				34.78812789916992,
				41.295494079589844,
				-20.717864990234375
			],
			"min":[
				30.059768676757812,
				36.65552520751953,
				-31.717864990234375
			],
			"type":"VEC3"
		},
		{
			"bufferView":67,
			"componentType":5126,
			"count":516,
			"type":"VEC3"
		},
		{
			"bufferView":68,
			"componentType":5123,
			"count":870,
			"type":"SCALAR"
		},
		{
			"bufferView":69,
			"componentType":5126,
			"count":4,
			"max":[
				32.291507720947266,
				38.53370666503906,
				-23.217864990234375
			],
			"min":[
				29.669410705566406,
				35.91161346435547,
				-29.217864990234375
			],
			"type":"VEC3"
		},
		{
			"bufferView":70,
			"componentType":5126,
			"count":4,
			"type":"VEC3"
		},
		{
			"bufferView":71,
			"componentType":5123,
			"count":6,
			"type":"SCALAR"
		},
		{
			"bufferView":72,
			"componentType":5126,
			"count":460,
			"max":[
				102.84971618652344,
				87.72514343261719,
				-43.89339828491211
			],
			"min":[
				31.87955093383789,
				63.77758026123047,
				-54.89339828491211
			],
			"type":"VEC3"
		},
		{
			"bufferView":73,
			"componentType":5126,
			"count":460,
			"type":"VEC3"
		},
		{
			"bufferView":74,
			"componentType":5123,
			"count":738,
			"type":"SCALAR"
		},
		{
			"bufferView":75,
			"componentType":5126,
			"count":2718,
			"max":[
				32.18513870239258,
				90.56785583496094,
				49
			],
			"min":[
				-41.22700500488281,
				56,
				-49
			],
			"type":"VEC3"
		},
		{
			"bufferView":76,
			"componentType":5126,
			"count":2718,
			"type":"VEC3"
		},
		{
			"bufferView":77,
			"componentType":5123,
			"count":5334,
			"type":"SCALAR"
		},
		{
			"bufferView":78,
			"componentType":5126,
			"count":48,
			"max":[
				4.621578216552734,
				77.5253677368164,
				4.875
			],
			"min":[
				3.586301803588867,
				73.66165924072266,
				-4.875
			],
			"type":"VEC3"
		},
		{
			"bufferView":79,
			"componentType":5126,
			"count":48,
			"type":"VEC3"
		},
		{
			"bufferView":80,
			"componentType":5123,
			"count":132,
			"type":"SCALAR"
		},
		{
			"bufferView":81,
			"componentType":5126,
			"count":460,
			"max":[
				102.84971618652344,
				87.72514343261719,
				-43.89339828491211
			],
			"min":[
				31.87955093383789,
				63.77758026123047,
				-54.89339828491211
			],
			"type":"VEC3"
		},
		{
			"bufferView":82,
			"componentType":5126,
			"count":460,
			"type":"VEC3"
		},
		{
			"bufferView":83,
			"componentType":5126,
			"count":2718,
			"max":[
				32.18513870239258,
				90.56785583496094,
				49
			],
			"min":[
				-41.22700500488281,
				56,
				-49
			],
			"type":"VEC3"
		},
		{
			"bufferView":84,
			"componentType":5126,
			"count":2718,
			"type":"VEC3"
		},
		{
			"bufferView":85,
			"componentType":5126,
			"count":48,
			"max":[
				4.621578216552734,
				77.5253677368164,
				4.875
			],
			"min":[
				3.586301803588867,
				73.66165924072266,
				-4.875
			],
			"type":"VEC3"
		},
		{
			"bufferView":86,
			"componentType":5126,
			"count":48,
			"type":"VEC3"
		},
		{
			"bufferView":87,
			"componentType":5126,
			"count":2547,
			"max":[
				0.23259776830673218,
				3.52923583984375,
				0.8744707107543945
			],
			"min":[
				-0.5922467708587646,
				-0.14000004529953003,
				-0.34105750918388367
			],
			"type":"VEC3"
		},
		{
			"bufferView":88,
			"componentType":5126,
			"count":2547,
			"type":"VEC3"
		},
		{
			"bufferView":89,
			"componentType":5126,
			"count":2547,
			"type":"VEC2"
		},
		{
			"bufferView":90,
			"componentType":5123,
			"count":4878,
			"type":"SCALAR"
		},
		{
			"bufferView":91,
			"componentType":5126,
			"count":4,
			"max":[
				0.08348135650157928,
				0.555216908454895,
				0.11538951098918915
			],
			"min":[
				-0.08348135650157928,
				0.39080414175987244,
				-0.07841290533542633
			],
			"type":"VEC3"
		},
		{
			"bufferView":92,
			"componentType":5126,
			"count":4,
			"type":"VEC3"
		},
		{
			"bufferView":93,
			"componentType":5126,
			"count":4,
			"type":"VEC2"
		},
		{
			"bufferView":94,
			"componentType":5123,
			"count":6,
			"type":"SCALAR"
		},
		{
			"bufferView":95,
			"componentType":5126,
			"count":600,
			"max":[
				0.13368360698223114,
				0.5614091753959656,
				0.07497483491897583
			],
			"min":[
				-0.1325092315673828,
				0.48992398381233215,
				-0.008690953254699707
			],
			"type":"VEC3"
		},
		{
			"bufferView":96,
			"componentType":5126,
			"count":600,
			"type":"VEC3"
		},
		{
			"bufferView":97,
			"componentType":5126,
			"count":600,
			"type":"VEC2"
		},
		{
			"bufferView":98,
			"componentType":5123,
			"count":1062,
			"type":"SCALAR"
		}
	],
	"bufferViews":[
		{
			"buffer":0,
			"byteLength":4428,
			"byteOffset":0,
			"target":34962
		},
		{
			"buffer":0,
			"byteLength":4428,
			"byteOffset":4428,
			"target":34962
		},
		{
			"buffer":0,
			"byteLength":2952,
			"byteOffset":8856,
			"target":34962
		},
		{
			"buffer":0,
			"byteLength":1584,
			"byteOffset":11808,
			"target":34963
		},
		{
			"buffer":0,
			"byteLength":720,
			"byteOffset":13392,
			"target":34962
		},
		{
			"buffer":0,
			"byteLength":720,
			"byteOffset":14112,
			"target":34962
		},
		{
			"buffer":0,
			"byteLength":480,
			"byteOffset":14832,
			"target":34962
		},
		{
			"buffer":0,
			"byteLength":216,
			"byteOffset":15312,
			"target":34963
		},
		{
			"buffer":0,
			"byteLength":1488,
			"byteOffset":15528,
			"target":34962
		},
		{
			"buffer":0,
			"byteLength":1488,
			"byteOffset":17016,
			"target":34962
		},
		{
			"buffer":0,
			"byteLength":992,
			"byteOffset":18504,
			"target":34962
		},
		{
			"buffer":0,
			"byteLength":624,
			"byteOffset":19496,
			"target":34963
		},
		{
			"buffer":0,
			"byteLength":2112,
			"byteOffset":20120,
			"target":34962
		},
		{
			"buffer":0,
			"byteLength":2112,
			"byteOffset":22232,
			"target":34962
		},
		{
			"buffer":0,
			"byteLength":1408,
			"byteOffset":24344,
			"target":34962
		},
		{
			"buffer":0,
			"byteLength":816,
			"byteOffset":25752,
			"target":34963
		},
		{
			"buffer":0,
			"byteLength":1584,
			"byteOffset":26568,
			"target":34962
		},
		{
			"buffer":0,
			"byteLength":1584,
			"byteOffset":28152,
			"target":34962
		},
		{
			"buffer":0,
			"byteLength":1056,
			"byteOffset":29736,
			"target":34962
		},
		{
			"buffer":0,
			"byteLength":624,
			"byteOffset":30792,
			"target":34963
		},
		{
			"buffer":0,
			"byteLength":2352,
			"byteOffset":31416,
			"target":34962
		},
		{
			"buffer":0,
			"byteLength":2352,
			"byteOffset":33768,
			"target":34962
		},
		{
			"buffer":0,
			"byteLength":1568,
			"byteOffset":36120,
			"target":34962
		},
		{
			"buffer":0,
			"byteLength":1008,
			"byteOffset":37688,
			"target":34963
		},
		{
			"buffer":0,
			"byteLength":1440,
			"byteOffset":38696,
			"target":34962
		},
		{
			"buffer":0,
			"byteLength":1440,
			"byteOffset":40136,
			"target":34962
		},
		{
			"buffer":0,
			"byteLength":960,
			"byteOffset":41576,
			"target":34962
		},
		{
			"buffer":0,
			"byteLength":1920,
			"byteOffset":42536,
			"target":34962
		},
		{
			"buffer":0,
			"byteLength":360,
			"byteOffset":44456,
			"target":34963
		},
		{
			"buffer":0,
			"byteLength":1440,
			"byteOffset":44816,
			"target":34962
		},
		{
			"buffer":0,
			"byteLength":1440,
			"byteOffset":46256,
			"target":34962
		},
		{
			"buffer":0,
			"byteLength":960,
			"byteOffset":47696,
			"target":34962
		},
		{
			"buffer":0,
			"byteLength":1920,
			"byteOffset":48656,
			"target":34962
		},
		{
			"buffer":0,
			"byteLength":1056,
			"byteOffset":50576,
			"target":34962
		},
		{
			"buffer":0,
			"byteLength":1056,
			"byteOffset":51632,
			"target":34962
		},
		{
			"buffer":0,
			"byteLength":704,
			"byteOffset":52688,
			"target":34962
		},
		{
			"buffer":0,
			"byteLength":1408,
			"byteOffset":53392,
			"target":34962
		},
		{
			"buffer":0,
			"byteLength":360,
			"byteOffset":54800,
			"target":34963
		},
		{
			"buffer":0,
			"byteLength":480,
			"byteOffset":55160,
			"target":34962
		},
		{
			"buffer":0,
			"byteLength":480,
			"byteOffset":55640,
			"target":34962
		},
		{
			"buffer":0,
			"byteLength":320,
			"byteOffset":56120,
			"target":34962
		},
		{
			"buffer":0,
			"byteLength":640,
			"byteOffset":56440,
			"target":34962
		},
		{
			"buffer":0,
			"byteLength":120,
			"byteOffset":57080,
			"target":34963
		},
		{
			"buffer":0,
			"byteLength":480,
			"byteOffset":57200,
			"target":34962
		},
		{
			"buffer":0,
			"byteLength":480,
			"byteOffset":57680,
			"target":34962
		},
		{
			"buffer":0,
			"byteLength":320,
			"byteOffset":58160,
			"target":34962
		},
		{
			"buffer":0,
			"byteLength":640,
			"byteOffset":58480,
			"target":34962
		},
		{
			"buffer":0,
			"byteLength":480,
			"byteOffset":59120,
			"target":34962
		},
		{
			"buffer":0,
			"byteLength":480,
			"byteOffset":59600,
			"target":34962
		},
		{
			"buffer":0,
			"byteLength":320,
			"byteOffset":60080,
			"target":34962
		},
		{
			"buffer":0,
			"byteLength":640,
			"byteOffset":60400,
			"target":34962
		},
		{
			"buffer":0,
			"byteLength":10944,
			"byteOffset":61040,
			"target":34962
		},
		{
			"buffer":0,
			"byteLength":10944,
			"byteOffset":71984,
			"target":34962
		},
		{
			"buffer":0,
			"byteLength":7296,
			"byteOffset":82928,
			"target":34962
		},
		{
			"buffer":0,
			"byteLength":4800,
			"byteOffset":90224,
			"target":34963
		},
		{
			"buffer":0,
			"byteLength":8592,
			"byteOffset":95024,
			"target":34962
		},
		{
			"buffer":0,
			"byteLength":8592,
			"byteOffset":103616,
			"target":34962
		},
		{
			"buffer":0,
			"byteLength":5728,
			"byteOffset":112208,
			"target":34962
		},
		{
			"buffer":0,
			"byteLength":3336,
			"byteOffset":117936,
			"target":34963
		},
		{
			"buffer":0,
			"byteLength":15120,
			"byteOffset":121272,
			"target":34962
		},
		{
			"buffer":0,
			"byteLength":15120,
			"byteOffset":136392,
			"target":34962
		},
		{
			"buffer":0,
			"byteLength":10080,
			"byteOffset":151512,
			"target":34962
		},
		{
			"buffer":0,
			"byteLength":6024,
			"byteOffset":161592,
			"target":34963
		},
		{
			"buffer":0,
			"byteLength":7344,
			"byteOffset":167616,
			"target":34962
		},
		{
			"buffer":0,
			"byteLength":7344,
			"byteOffset":174960,
			"target":34962
		},
		{
			"buffer":0,
			"byteLength":2280,
			"byteOffset":182304,
			"target":34963
		},
		{
			"buffer":0,
			"byteLength":6192,
			"byteOffset":184584,
			"target":34962
		},
		{
			"buffer":0,
			"byteLength":6192,
			"byteOffset":190776,
			"target":34962
		},
		{
			"buffer":0,
			"byteLength":1740,
			"byteOffset":196968,
			"target":34963
		},
		{
			"buffer":0,
			"byteLength":48,
			"byteOffset":198708,
			"target":34962
		},
		{
			"buffer":0,
			"byteLength":48,
			"byteOffset":198756,
			"target":34962
		},
		{
			"buffer":0,
			"byteLength":12,
			"byteOffset":198804,
			"target":34963
		},
		{
			"buffer":0,
			"byteLength":5520,
			"byteOffset":198816,
			"target":34962
		},
		{
			"buffer":0,
			"byteLength":5520,
			"byteOffset":204336,
			"target":34962
		},
		{
			"buffer":0,
			"byteLength":1476,
			"byteOffset":209856,
			"target":34963
		},
		{
			"buffer":0,
			"byteLength":32616,
			"byteOffset":211332,
			"target":34962
		},
		{
			"buffer":0,
			"byteLength":32616,
			"byteOffset":243948,
			"target":34962
		},
		{
			"buffer":0,
			"byteLength":10668,
			"byteOffset":276564,
			"target":34963
		},
		{
			"buffer":0,
			"byteLength":576,
			"byteOffset":287232,
			"target":34962
		},
		{
			"buffer":0,
			"byteLength":576,
			"byteOffset":287808,
			"target":34962
		},
		{
			"buffer":0,
			"byteLength":264,
			"byteOffset":288384,
			"target":34963
		},
		{
			"buffer":0,
			"byteLength":5520,
			"byteOffset":288648,
			"target":34962
		},
		{
			"buffer":0,
			"byteLength":5520,
			"byteOffset":294168,
			"target":34962
		},
		{
			"buffer":0,
			"byteLength":32616,
			"byteOffset":299688,
			"target":34962
		},
		{
			"buffer":0,
			"byteLength":32616,
			"byteOffset":332304,
			"target":34962
		},
		{
			"buffer":0,
			"byteLength":576,
			"byteOffset":364920,
			"target":34962
		},
		{
			"buffer":0,
			"byteLength":576,
			"byteOffset":365496,
			"target":34962
		},
		{
			"buffer":0,
			"byteLength":30564,
			"byteOffset":366072,
			"target":34962
		},
		{
			"buffer":0,
			"byteLength":30564,
			"byteOffset":396636,
			"target":34962
		},
		{
			"buffer":0,
			"byteLength":20376,
			"byteOffset":427200,
			"target":34962
		},
		{
			"buffer":0,
			"byteLength":9756,
			"byteOffset":447576,
			"target":34963
		},
		{
			"buffer":0,
			"byteLength":48,
			"byteOffset":457332,
			"target":34962
		},
		{
			"buffer":0,
			"byteLength":48,
			"byteOffset":457380,
			"target":34962
		},
		{
			"buffer":0,
			"byteLength":32,
			"byteOffset":457428,
			"target":34962
		},
		{
			"buffer":0,
			"byteLength":12,
			"byteOffset":457460,
			"target":34963
		},
		{
			"buffer":0,
			"byteLength":7200,
			"byteOffset":457472,
			"target":34962
		},
		{
			"buffer":0,
			"byteLength":7200,
			"byteOffset":464672,
			"target":34962
		},
		{
			"buffer":0,
			"byteLength":4800,
			"byteOffset":471872,
			"target":34962
		},
		{
			"buffer":0,
			"byteLength":2124,
			"byteOffset":476672,
			"target":34963
		}
	],
	"buffers":[
		{
			"byteLength":478796,
			"uri":"mech_game_scenery-b3861df083cbba42588e323e02bc3ae1.bin"
		}
	]
}
