{
	"asset":{
		"generator":"Khronos glTF Blender I/O v4.5.47",
		"version":"2.0"
	},
	"extensionsUsed":[
		"KHR_lights_punctual"
	],
	"extensionsRequired":[
		"KHR_lights_punctual"
	],
	"extensions":{
		"KHR_lights_punctual":{
			"lights":[
				{
					"color":[
						1,
						1,
						1
					],
					"intensity":79.57747154594767,
					"type":"point",
					"name":"Light"
				}
			]
		}
	},
	"scene":0,
	"scenes":[
		{
			"extras":{
				"univ_settings":{},
				"ps_scene_data":{}
			},
			"name":"Scene",
			"nodes":[
				0,
				1,
				2,
				3,
				4,
				5,
				6,
				7,
				8,
				9,
				10,
				11,
				12,
				13,
				14
			]
		}
	],
	"nodes":[
		{
			"extensions":{
				"KHR_lights_punctual":{
					"light":0
				}
			},
			"name":"Light",
			"rotation":[
				-0.28416627645492554,
				0.7269423007965088,
				0.34203392267227173,
				0.5232754945755005
			],
			"translation":[
				3.372781991958618,
				6.079728126525879,
				-1.0054539442062378
			]
		},
		{
			"camera":0,
			"name":"Camera",
			"rotation":[
				-0.20997299253940582,
				0.3857799470424652,
				0.09062844514846802,
				0.8937962055206299
			],
			"translation":[
				7.358891487121582,
				4.958309173583984,
				6.925790786743164
			]
		},
		{
			"mesh":0,
			"name":"Cube.001",
			"scale":[
				0.7304873466491699,
				0.458323210477829,
				0.6159816384315491
			],
			"translation":[
				0.21935096383094788,
				-1.0927603244781494,
				0
			]
		},
		{
			"mesh":1,
			"name":"Cylinder.001",
			"scale":[
				0.9957801699638367,
				0.3748113811016083,
				0.9957801699638367
			],
			"translation":[
				0,
				-0.4578433036804199,
				0
			]
		},
		{
			"mesh":2,
			"name":"Cube.004",
			"translation":[
				0,
				0.5579431056976318,
				0
			]
		},
		{
			"mesh":3,
			"name":"R_cannon",
			"rotation":[
				0.7071068286895752,
				0,
				0,
				0.7071068286895752
			],
			"scale":[
				1.240861177444458,
				0.5984244346618652,
				1.240861177444458
			],
			"translation":[
				-0.1507112979888916,
				1.475239872932434,
				1.7769500017166138
			]
		},
		{
			"mesh":4,
			"name":"Cube.009",
			"scale":[
				0.3131764829158783,
				0.21150800585746765,
				0.21150800585746765
			],
			"translation":[
				-0.4318549931049347,
				2.5608627796173096,
				0.5626320242881775
			]
		},
		{
			"mesh":5,
			"name":"Cube.010",
			"scale":[
				0.18964390456676483,
				0.18964390456676483,
				0.18964390456676483
			],
			"translation":[
				-0.4318549931049347,
				2.670292854309082,
				0.5626320242881775
			]
		},
		{
			"mesh":6,
			"name":"R_cannon.001",
			"rotation":[
				0,
				-0.7071068286895752,
				-0.7071068286895752,
				0
			],
			"scale":[
				-1.240861177444458,
				-0.5984244346618652,
				-1.240861177444458
			],
			"translation":[
				-0.1507112979888916,
				1.475239872932434,
				-1.7769500017166138
			]
		},
		{
			"mesh":7,
			"name":"Cylinder",
			"rotation":[
				0.7071068286895752,
				0,
				0,
				0.7071068286895752
			],
			"scale":[
				1.2860033512115479,
				2.212660074234009,
				1.2860033512115479
			],
			"translation":[
				-1.3447177410125732,
				1.7226183414459229,
				0
			]
		},
		{
			"mesh":8,
			"name":"Cylinder.002",
			"rotation":[
				0.7071068286895752,
				0,
				0,
				0.7071068286895752
			],
			"scale":[
				1.2860033512115479,
				2.212660074234009,
				1.2860033512115479
			],
			"translation":[
				-1.3447177410125732,
				0.8847301006317139,
				0
			]
		},
		{
			"mesh":9,
			"name":"Cylinder.008",
			"rotation":[
				0.1578536331653595,
				0.6892621517181396,
				-0.15785370767116547,
				0.6892620921134949
			],
			"scale":[
				0.6528000831604004,
				1.0592107772827148,
				0.6528001427650452
			],
			"translation":[
				1.6026262044906616,
				-2.561053991317749,
				-1.5229095220565796
			]
		},
		{
			"mesh":10,
			"name":"Cylinder.011",
			"rotation":[
				-0.49894624948501587,
				0.5010515451431274,
				-0.5010515451431274,
				0.4989461898803711
			],
			"scale":[
				2.6953177452087402,
				0.9717519879341125,
				2.695317268371582
			],
			"translation":[
				0.38824665546417236,
				-4.298445224761963,
				-1.527880072593689
			]
		},
		{
			"mesh":11,
			"name":"Cylinder.014",
			"rotation":[
				-0.6942276358604431,
				-0.13434264063835144,
				0.13434264063835144,
				0.6942276954650879
			],
			"scale":[
				1.3829935789108276,
				0.7146767973899841,
				1.3829935789108276
			],
			"translation":[
				-0.01043006032705307,
				-1.1012533903121948,
				-1.5229099988937378
			]
		},
		{
			"mesh":12,
			"name":"Cylinder.010",
			"rotation":[
				-0.13434262573719025,
				0.6942276954650879,
				-0.6942276358604431,
				0.13434262573719025
			],
			"scale":[
				-1.3829935789108276,
				-0.7146767973899841,
				-1.3829935789108276
			],
			"translation":[
				-0.01043006032705307,
				-1.1012533903121948,
				1.5229099988937378
			]
		}
	],
	"cameras":[
		{
			"name":"Camera",
			"perspective":{
				"aspectRatio":1.7777777777777777,
				"yfov":0.39959652046304894,
				"zfar":100,
				"znear":0.10000000149011612
			},
			"type":"perspective"
		}
	],
	"meshes":[
		{
			"name":"Cube.001",
			"primitives":[
				{
					"attributes":{
						"POSITION":0,
						"NORMAL":1,
						"TEXCOORD_0":2
					},
					"indices":3
				}
			]
		},
		{
			"name":"Cylinder.001",
			"primitives":[
				{
					"attributes":{
						"POSITION":4,
						"NORMAL":5,
						"TEXCOORD_0":6
					},
					"indices":7
				}
			]
		},
		{
			"name":"Cube.004",
			"primitives":[
				{
					"attributes":{
						"POSITION":8,
						"NORMAL":9,
						"TEXCOORD_0":10
					},
					"indices":11
				}
			]
		},
		{
			"name":"Cylinder.004",
			"primitives":[
				{
					"attributes":{
						"POSITION":12,
						"NORMAL":13,
						"TEXCOORD_0":14
					},
					"indices":15
				}
			]
		},
		{
			"name":"Cube.024",
			"primitives":[
				{
					"attributes":{
						"POSITION":16,
						"NORMAL":17,
						"TEXCOORD_0":18
					},
					"indices":19
				}
			]
		},
		{
			"name":"Cube.025",
			"primitives":[
				{
					"attributes":{
						"POSITION":20,
						"NORMAL":21,
						"TEXCOORD_0":22
					},
					"indices":23
				}
			]
		},
		{
			"name":"Cylinder.053",
			"primitives":[
				{
					"attributes":{
						"POSITION":24,
						"NORMAL":25,
						"TEXCOORD_0":26
					},
					"indices":15
				}
			]
		},
		{
			"name":"Cylinder.054",
			"primitives":[
				{
					"attributes":{
						"POSITION":27,
						"NORMAL":28,
						"TEXCOORD_0":29
					},
					"indices":30
				}
			]
		},
		{
			"name":"Cylinder.056",
			"primitives":[
				{
					"attributes":{
						"POSITION":31,
						"NORMAL":32,
						"TEXCOORD_0":33
					},
					"indices":30
				}
			]
		},
		{
			"name":"Cylinder.019",
			"primitives":[
				{
					"attributes":{
						"POSITION":34,
						"NORMAL":35,
						"TEXCOORD_0":36
					},
					"indices":37
				}
			]
		},
		{
			"name":"Cylinder.021",
			"primitives":[
				{
					"attributes":{
						"POSITION":38,
						"NORMAL":39,
						"TEXCOORD_0":40
					},
					"indices":41
				}
			]
		},
		{
			"name":"Cylinder.024",
			"primitives":[
				{
					"attributes":{
						"POSITION":42,
						"NORMAL":43,
						"TEXCOORD_0":44
					},
					"indices":45
				}
			]
		},
		{
			"name":"Cylinder.050",
			"primitives":[
				{
					"attributes":{
						"POSITION":46,
						"NORMAL":47,
						"TEXCOORD_0":48
					},
					"indices":49
				}
			]
		}
	],
	"accessors":[
		{
			"bufferView":0,
			"componentType":5126,
			"count":954,
			"max":[
				1.3136942386627197,
				1.107670783996582,
				1.5683138370513916
			],
			"min":[
				-1.2705307006835938,
				-1.107670783996582,
				-1.5683138370513916
			],
			"type":"VEC3"
		},
		{
			"bufferView":1,
			"componentType":5126,
			"count":954,
			"type":"VEC3"
		},
		{
			"bufferView":2,
			"componentType":5126,
			"count":954,
			"type":"VEC2"
		},
		{
			"bufferView":3,
			"componentType":5123,
			"count":1863,
			"type":"SCALAR"
		},
		{
			"bufferView":4,
			"componentType":5126,
			"count":192,
			"max":[
				0.6800000071525574,
				0.6850000023841858,
				0.6800000071525574
			],
			"min":[
				-0.6800000071525574,
				-0.6850000023841858,
				-0.6800000071525574
			],
			"type":"VEC3"
		},
		{
			"bufferView":5,
			"componentType":5126,
			"count":192,
			"type":"VEC3"
		},
		{
			"bufferView":6,
			"componentType":5126,
			"count":192,
			"type":"VEC2"
		},
		{
			"bufferView":7,
			"componentType":5123,
			"count":372,
			"type":"SCALAR"
		},
		{
			"bufferView":8,
			"componentType":5126,
			"count":636,
			"max":[
				1.5220030546188354,
				2.0617966651916504,
				1.2276921272277832
			],
			"min":[
				-1.167511224746704,
				-1.0193694829940796,
				-1.2276921272277832
			],
			"type":"VEC3"
		},
		{
			"bufferView":9,
			"componentType":5126,
			"count":636,
			"type":"VEC3"
		},
		{
			"bufferView":10,
			"componentType":5126,
			"count":636,
			"type":"VEC2"
		},
		{
			"bufferView":11,
			"componentType":5123,
			"count":1392,
			"type":"SCALAR"
		},
		{
			"bufferView":12,
			"componentType":5126,
			"count":6990,
			"max":[
				3.341318368911743,
				0.7007020115852356,
				0.4300000071525574
			],
			"min":[
				-1.0317423343658447,
				-1.7027184963226318,
				-0.43114903569221497
			],
			"type":"VEC3"
		},
		{
			"bufferView":13,
			"componentType":5126,
			"count":6990,
			"type":"VEC3"
		},
		{
			"bufferView":14,
			"componentType":5126,
			"count":6990,
			"type":"VEC2"
		},
		{
			"bufferView":15,
			"componentType":5123,
			"count":14052,
			"type":"SCALAR"
		},
		{
			"bufferView":16,
			"componentType":5126,
			"count":288,
			"max":[
				1,
				1,
				1
			],
			"min":[
				-1,
				-1,
				-1
			],
			"type":"VEC3"
		},
		{
			"bufferView":17,
			"componentType":5126,
			"count":288,
			"type":"VEC3"
		},
		{
			"bufferView":18,
			"componentType":5126,
			"count":288,
			"type":"VEC2"
		},
		{
			"bufferView":19,
			"componentType":5123,
			"count":564,
			"type":"SCALAR"
		},
		{
			"bufferView":20,
			"componentType":5126,
			"count":76,
			"max":[
				0.6599999666213989,
				6.1575775146484375,
				0.6599999666213989
			],
			"min":[
				-0.6599999666213989,
				-0.6599999666213989,
				-0.6599999666213989
			],
			"type":"VEC3"
		},
		{
			"bufferView":21,
			"componentType":5126,
			"count":76,
			"type":"VEC3"
		},
		{
			"bufferView":22,
			"componentType":5126,
			"count":76,
			"type":"VEC2"
		},
		{
			"bufferView":23,
			"componentType":5123,
			"count":156,
			"type":"SCALAR"
		},
		{
			"bufferView":24,
			"componentType":5126,
			"count":6990,
			"max":[
				3.341318368911743,
				0.7007020115852356,
				0.4300000071525574
			],
			"min":[
				-1.0317423343658447,
				-1.7027184963226318,
				-0.43114903569221497
			],
			"type":"VEC3"
		},
		{
			"bufferView":25,
			"componentType":5126,
			"count":6990,
			"type":"VEC3"
		},
		{
			"bufferView":26,
			"componentType":5126,
			"count":6990,
			"type":"VEC2"
		},
		{
			"bufferView":27,
			"componentType":5126,
			"count":9152,
			"max":[
				0.48829764127731323,
				0.5,
				0.48829764127731323
			],
			"min":[
				-0.48829764127731323,
				-0.5,
				-0.48829764127731323
			],
			"type":"VEC3"
		},
		{
			"bufferView":28,
			"componentType":5126,
			"count":9152,
			"type":"VEC3"
		},
		{
			"bufferView":29,
			"componentType":5126,
			"count":9152,
			"type":"VEC2"
		},
		{
			"bufferView":30,
			"componentType":5123,
			"count":14196,
			"type":"SCALAR"
		},
		{
			"bufferView":31,
			"componentType":5126,
			"count":9152,
			"max":[
				0.48829764127731323,
				0.5,
				0.48829764127731323
			],
			"min":[
				-0.48829764127731323,
				-0.5,
				-0.48829764127731323
			],
			"type":"VEC3"
		},
		{
			"bufferView":32,
			"componentType":5126,
			"count":9152,
			"type":"VEC3"
		},
		{
			"bufferView":33,
			"componentType":5126,
			"count":9152,
			"type":"VEC2"
		},
		{
			"bufferView":34,
			"componentType":5126,
			"count":2341,
			"max":[
				0.6101968288421631,
				0.29577311873435974,
				0.6300735473632812
			],
			"min":[
				-0.610197126865387,
				-2.4212217330932617,
				-1.2145740985870361
			],
			"type":"VEC3"
		},
		{
			"bufferView":35,
			"componentType":5126,
			"count":2341,
			"type":"VEC3"
		},
		{
			"bufferView":36,
			"componentType":5126,
			"count":2341,
			"type":"VEC2"
		},
		{
			"bufferView":37,
			"componentType":5123,
			"count":4680,
			"type":"SCALAR"
		},
		{
			"bufferView":38,
			"componentType":5126,
			"count":597,
			"max":[
				0.24399960041046143,
				0.6441764831542969,
				0.48527389764785767
			],
			"min":[
				-0.08000007271766663,
				-0.6441764831542969,
				-0.2658216953277588
			],
			"type":"VEC3"
		},
		{
			"bufferView":39,
			"componentType":5126,
			"count":597,
			"type":"VEC3"
		},
		{
			"bufferView":40,
			"componentType":5126,
			"count":597,
			"type":"VEC2"
		},
		{
			"bufferView":41,
			"componentType":5123,
			"count":1308,
			"type":"SCALAR"
		},
		{
			"bufferView":42,
			"componentType":5126,
			"count":4985,
			"max":[
				1.0316146612167358,
				0.7597768306732178,
				0.3199999928474426
			],
			"min":[
				-0.33695754408836365,
				-1.2401456832885742,
				-1.7498812675476074
			],
			"type":"VEC3"
		},
		{
			"bufferView":43,
			"componentType":5126,
			"count":4985,
			"type":"VEC3"
		},
		{
			"bufferView":44,
			"componentType":5126,
			"count":4985,
			"type":"VEC2"
		},
		{
			"bufferView":45,
			"componentType":5123,
			"count":10140,
			"type":"SCALAR"
		},
		{
			"bufferView":46,
			"componentType":5126,
			"count":7921,
			"max":[
				1.0316146612167358,
				0.882843017578125,
				0.3199999928474426
			],
			"min":[
				-1.2311532497406006,
				-1.2401456832885742,
				-3.0494022369384766
			],
			"type":"VEC3"
		},
		{
			"bufferView":47,
			"componentType":5126,
			"count":7921,
			"type":"VEC3"
		},
		{
			"bufferView":48,
			"componentType":5126,
			"count":7921,
			"type":"VEC2"
		},
		{
			"bufferView":49,
			"componentType":5123,
			"count":16128,
			"type":"SCALAR"
		}
	],
	"bufferViews":[
		{
			"buffer":0,
			"byteLength":11448,
			"byteOffset":0,
			"target":34962
		},
		{
			"buffer":0,
			"byteLength":11448,
			"byteOffset":11448,
			"target":34962
		},
		{
			"buffer":0,
			"byteLength":7632,
			"byteOffset":22896,
			"target":34962
		},
		{
			"buffer":0,
			"byteLength":3726,
			"byteOffset":30528,
			"target":34963
		},
		{
			"buffer":0,
			"byteLength":2304,
			"byteOffset":34256,
			"target":34962
		},
		{
			"buffer":0,
			"byteLength":2304,
			"byteOffset":36560,
			"target":34962
		},
		{
			"buffer":0,
			"byteLength":1536,
			"byteOffset":38864,
			"target":34962
		},
		{
			"buffer":0,
			"byteLength":744,
			"byteOffset":40400,
			"target":34963
		},
		{
			"buffer":0,
			"byteLength":7632,
			"byteOffset":41144,
			"target":34962
		},
		{
			"buffer":0,
			"byteLength":7632,
			"byteOffset":48776,
			"target":34962
		},
		{
			"buffer":0,
			"byteLength":5088,
			"byteOffset":56408,
			"target":34962
		},
		{
			"buffer":0,
			"byteLength":2784,
			"byteOffset":61496,
			"target":34963
		},
		{
			"buffer":0,
			"byteLength":83880,
			"byteOffset":64280,
			"target":34962
		},
		{
			"buffer":0,
			"byteLength":83880,
			"byteOffset":148160,
			"target":34962
		},
		{
			"buffer":0,
			"byteLength":55920,
			"byteOffset":232040,
			"target":34962
		},
		{
			"buffer":0,
			"byteLength":28104,
			"byteOffset":287960,
			"target":34963
		},
		{
			"buffer":0,
			"byteLength":3456,
			"byteOffset":316064,
			"target":34962
		},
		{
			"buffer":0,
			"byteLength":3456,
			"byteOffset":319520,
			"target":34962
		},
		{
			"buffer":0,
			"byteLength":2304,
			"byteOffset":322976,
			"target":34962
		},
		{
			"buffer":0,
			"byteLength":1128,
			"byteOffset":325280,
			"target":34963
		},
		{
			"buffer":0,
			"byteLength":912,
			"byteOffset":326408,
			"target":34962
		},
		{
			"buffer":0,
			"byteLength":912,
			"byteOffset":327320,
			"target":34962
		},
		{
			"buffer":0,
			"byteLength":608,
			"byteOffset":328232,
			"target":34962
		},
		{
			"buffer":0,
			"byteLength":312,
			"byteOffset":328840,
			"target":34963
		},
		{
			"buffer":0,
			"byteLength":83880,
			"byteOffset":329152,
			"target":34962
		},
		{
			"buffer":0,
			"byteLength":83880,
			"byteOffset":413032,
			"target":34962
		},
		{
			"buffer":0,
			"byteLength":55920,
			"byteOffset":496912,
			"target":34962
		},
		{
			"buffer":0,
			"byteLength":109824,
			"byteOffset":552832,
			"target":34962
		},
		{
			"buffer":0,
			"byteLength":109824,
			"byteOffset":662656,
			"target":34962
		},
		{
			"buffer":0,
			"byteLength":73216,
			"byteOffset":772480,
			"target":34962
		},
		{
			"buffer":0,
			"byteLength":28392,
			"byteOffset":845696,
			"target":34963
		},
		{
			"buffer":0,
			"byteLength":109824,
			"byteOffset":874088,
			"target":34962
		},
		{
			"buffer":0,
			"byteLength":109824,
			"byteOffset":983912,
			"target":34962
		},
		{
			"buffer":0,
			"byteLength":73216,
			"byteOffset":1093736,
			"target":34962
		},
		{
			"buffer":0,
			"byteLength":28092,
			"byteOffset":1166952,
			"target":34962
		},
		{
			"buffer":0,
			"byteLength":28092,
			"byteOffset":1195044,
			"target":34962
		},
		{
			"buffer":0,
			"byteLength":18728,
			"byteOffset":1223136,
			"target":34962
		},
		{
			"buffer":0,
			"byteLength":9360,
			"byteOffset":1241864,
			"target":34963
		},
		{
			"buffer":0,
			"byteLength":7164,
			"byteOffset":1251224,
			"target":34962
		},
		{
			"buffer":0,
			"byteLength":7164,
			"byteOffset":1258388,
			"target":34962
		},
		{
			"buffer":0,
			"byteLength":4776,
			"byteOffset":1265552,
			"target":34962
		},
		{
			"buffer":0,
			"byteLength":2616,
			"byteOffset":1270328,
			"target":34963
		},
		{
			"buffer":0,
			"byteLength":59820,
			"byteOffset":1272944,
			"target":34962
		},
		{
			"buffer":0,
			"byteLength":59820,
			"byteOffset":1332764,
			"target":34962
		},
		{
			"buffer":0,
			"byteLength":39880,
			"byteOffset":1392584,
			"target":34962
		},
		{
			"buffer":0,
			"byteLength":20280,
			"byteOffset":1432464,
			"target":34963
		},
		{
			"buffer":0,
			"byteLength":95052,
			"byteOffset":1452744,
			"target":34962
		},
		{
			"buffer":0,
			"byteLength":95052,
			"byteOffset":1547796,
			"target":34962
		},
		{
			"buffer":0,
			"byteLength":63368,
			"byteOffset":1642848,
			"target":34962
		},
		{
			"buffer":0,
			"byteLength":32256,
			"byteOffset":1706216,
			"target":34963
		}
	],
	"buffers":[
		{
			"byteLength":1738472,
			"uri":"small_mech_pieces-e852491a45f07c9d459370af072a6677.bin"
		}
	]
}
