{
	"asset":{
		"generator":"Khronos glTF Blender I/O v4.5.47",
		"version":"2.0"
	},
	"scene":0,
	"scenes":[
		{
			"extras":{
				"ps_scene_data":{}
			},
			"name":"Scene",
			"nodes":[
				16
			]
		}
	],
	"nodes":[
		{
			"name":"L_lower_arm",
			"rotation":[
				0.7228241562843323,
				0.025031737983226776,
				-0.06308752298355103,
				0.687690794467926
			],
			"scale":[
				1,
				0.9999998807907104,
				0.9999999403953552
			],
			"translation":[
				-1.6205012798309326e-07,
				1.0020341873168945,
				-3.6579876905307174e-09
			]
		},
		{
			"children":[
				0
			],
			"name":"L_upper_arm",
			"rotation":[
				0.9678459763526917,
				-0.20874090492725372,
				0.02959306724369526,
				0.13720671832561493
			],
			"scale":[
				0.9999998807907104,
				1,
				0.9999998807907104
			],
			"translation":[
				-1.1914368867874146,
				1.193635106086731,
				-2.8405807483977696e-07
			]
		},
		{
			"name":"R_lower_arm",
			"rotation":[
				0.722824215888977,
				-0.025031698867678642,
				0.06308769434690475,
				0.6876906752586365
			],
			"translation":[
				-6.146728992462158e-08,
				1.0020347833633423,
				2.4776966256467858e-08
			]
		},
		{
			"children":[
				2
			],
			"name":"R_upper_arm",
			"rotation":[
				0.9678459763526917,
				0.2087409347295761,
				-0.0295924823731184,
				0.1372068077325821
			],
			"scale":[
				0.9999988675117493,
				0.9999996423721313,
				0.9999995231628418
			],
			"translation":[
				1.1914368867874146,
				1.1936355829238892,
				1.9465110767669103e-07
			]
		},
		{
			"children":[
				1,
				3
			],
			"name":"body",
			"rotation":[
				-0.9639014601707458,
				1.8428821294512454e-14,
				-2.2981126335253066e-07,
				0.26625922322273254
			],
			"scale":[
				1,
				0.9999998807907104,
				0.9999997019767761
			],
			"translation":[
				-5.416254772428689e-16,
				-5.4452127251636284e-09,
				1.717296349568187e-08
			]
		},
		{
			"name":"L_foot",
			"rotation":[
				2.9802322387695312e-08,
				-1.0658141036401503e-14,
				8.240058483634238e-15,
				1
			],
			"translation":[
				-1.8833237191984153e-08,
				0.9217984080314636,
				2.6637749783731124e-08
			]
		},
		{
			"children":[
				5
			],
			"name":"L_lower_leg",
			"rotation":[
				0.5170425176620483,
				-5.810785609194208e-14,
				1.2327220133556693e-07,
				0.8559597730636597
			],
			"scale":[
				1,
				0.9999999403953552,
				1
			],
			"translation":[
				2.2029720270211328e-08,
				0.6376526355743408,
				1.2722060205305752e-07
			]
		},
		{
			"children":[
				6
			],
			"name":"L_middle_leg",
			"rotation":[
				-0.6357282400131226,
				-1.8444436256093155e-10,
				-1.5134516218040517e-07,
				0.7719129920005798
			],
			"translation":[
				-1.53617101261716e-08,
				0.6424815058708191,
				-1.8570375459603383e-07
			]
		},
		{
			"children":[
				7
			],
			"name":"L_upper_leg",
			"rotation":[
				0.4330446422100067,
				1.258189247232977e-10,
				1.0298411723397294e-07,
				0.901372492313385
			],
			"scale":[
				1,
				0.9999999403953552,
				0.9999999403953552
			],
			"translation":[
				-0.7788954973220825,
				0.6704345345497131,
				-1.559014179974838e-07
			]
		},
		{
			"name":"R_foot",
			"rotation":[
				2.9802322387695312e-08,
				1.1546319456101628e-14,
				-1.793344254564025e-14,
				1
			],
			"translation":[
				1.883324785012519e-08,
				0.9217984676361084,
				3.4090575695699954e-08
			]
		},
		{
			"children":[
				9
			],
			"name":"R_lower_leg",
			"rotation":[
				0.5170425176620483,
				5.810785609194208e-14,
				-1.2327221554642165e-07,
				0.8559597730636597
			],
			"scale":[
				1,
				0.9999999403953552,
				1
			],
			"translation":[
				-2.2029762902775474e-08,
				0.6376526951789856,
				6.761797521903645e-08
			]
		},
		{
			"children":[
				10
			],
			"name":"R_middle_leg",
			"rotation":[
				-0.6357282400131226,
				-1.8407615709481462e-10,
				1.5179330148384906e-07,
				0.7719129920005798
			],
			"translation":[
				1.689623729816958e-08,
				0.6424815654754639,
				-1.8570256088423776e-07
			]
		},
		{
			"children":[
				11
			],
			"name":"R_upper_leg",
			"rotation":[
				0.4330446422100067,
				-2.1477812595094292e-07,
				-2.617595029619224e-10,
				0.901372492313385
			],
			"scale":[
				1,
				0.9999999403953552,
				0.9999999403953552
			],
			"translation":[
				0.7788954973220825,
				0.6704345345497131,
				1.559014179974838e-07
			]
		},
		{
			"children":[
				4,
				8,
				12
			],
			"name":"hip",
			"rotation":[
				0.9882379174232483,
				1.8229938447689165e-08,
				1.1780711872688698e-07,
				0.1529240757226944
			],
			"scale":[
				1,
				0.9999998807907104,
				0.9999966621398926
			],
			"translation":[
				0,
				2.865363121032715,
				0
			]
		},
		{
			"children":[
				13
			],
			"name":"root"
		},
		{
			"extras":{
				"ant_landscape":{}
			},
			"mesh":0,
			"name":"robot",
			"skin":0
		},
		{
			"children":[
				15,
				14
			],
			"extras":{
				"ant_landscape":{}
			},
			"name":"Armature"
		}
	],
	"materials":[
		{
			"doubleSided":true,
			"extras":{
				"ps_mat_data":{}
			},
			"name":"Material",
			"normalTexture":{
				"index":0
			},
			"pbrMetallicRoughness":{
				"baseColorTexture":{
					"index":1
				},
				"metallicRoughnessTexture":{
					"index":2
				}
			}
		}
	],
	"meshes":[
		{
			"name":"Cube.001",
			"primitives":[
				{
					"attributes":{
						"POSITION":0,
						"NORMAL":1,
						"TEXCOORD_0":2,
						"JOINTS_0":3,
						"WEIGHTS_0":4
					},
					"indices":5,
					"material":0
				}
			]
		}
	],
	"textures":[
		{
			"sampler":0,
			"source":0
		},
		{
			"sampler":0,
			"source":1
		},
		{
			"sampler":0,
			"source":2
		}
	],
	"images":[
		{
			"mimeType":"image/png",
			"name":"normal_1.png",
			"uri":"../../models/small_robot/normal_1.png"
		},
		{
			"mimeType":"image/png",
			"name":"base_color_1.png",
			"uri":"../../models/small_robot/base_color_1.png"
		},
		{
			"mimeType":"image/png",
			"name":"roughness_1.png",
			"uri":"../../models/small_robot/roughness_1.png"
		}
	],
	"skins":[
		{
			"inverseBindMatrices":6,
			"joints":[
				14,
				13,
				4,
				1,
				0,
				3,
				2,
				8,
				7,
				6,
				5,
				12,
				11,
				10,
				9
			],
			"name":"Armature"
		}
	],
	"accessors":[
		{
			"bufferView":0,
			"componentType":5126,
			"count":32654,
			"max":[
				1.693961262702942,
				5.599668979644775,
				1.429603934288025
			],
			"min":[
				-1.693961262702942,
				-0.00864546187222004,
				-1.6770275831222534
			],
			"type":"VEC3"
		},
		{
			"bufferView":1,
			"componentType":5126,
			"count":32654,
			"type":"VEC3"
		},
		{
			"bufferView":2,
			"componentType":5126,
			"count":32654,
			"type":"VEC2"
		},
		{
			"bufferView":3,
			"componentType":5121,
			"count":32654,
			"type":"VEC4"
		},
		{
			"bufferView":4,
			"componentType":5126,
			"count":32654,
			"type":"VEC4"
		},
		{
			"bufferView":5,
			"componentType":5123,
			"count":60180,
			"type":"SCALAR"
		},
		{
			"bufferView":6,
			"componentType":5126,
			"count":15,
			"type":"MAT4"
		}
	],
	"bufferViews":[
		{
			"buffer":0,
			"byteLength":391848,
			"byteOffset":0,
			"target":34962
		},
		{
			"buffer":0,
			"byteLength":391848,
			"byteOffset":391848,
			"target":34962
		},
		{
			"buffer":0,
			"byteLength":261232,
			"byteOffset":783696,
			"target":34962
		},
		{
			"buffer":0,
			"byteLength":130616,
			"byteOffset":1044928,
			"target":34962
		},
		{
			"buffer":0,
			"byteLength":522464,
			"byteOffset":1175544,
			"target":34962
		},
		{
			"buffer":0,
			"byteLength":120360,
			"byteOffset":1698008,
			"target":34963
		},
		{
			"buffer":0,
			"byteLength":960,
			"byteOffset":1818368
		}
	],
	"samplers":[
		{
			"magFilter":9729,
			"minFilter":9987
		}
	],
	"buffers":[
		{
			"byteLength":1819328,
			"uri":"small_robot_complete-0641e14f2a7a0e1000152a390ce6b332.bin"
		}
	]
}
