{
	"asset":{
		"generator":"Khronos glTF Blender I/O v4.5.47",
		"version":"2.0"
	},
	"extensionsUsed":[
		"KHR_lights_punctual"
	],
	"extensionsRequired":[
		"KHR_lights_punctual"
	],
	"extensions":{
		"KHR_lights_punctual":{
			"lights":[
				{
					"color":[
						1,
						1,
						1
					],
					"intensity":79.57747154594767,
					"type":"point",
					"name":"Light"
				},
				{
					"color":[
						1,
						1,
						1
					],
					"intensity":2.190000057220459,
					"type":"directional",
					"name":"Sun"
				}
			]
		}
	},
	"scene":0,
	"scenes":[
		{
			"extras":{
				"univ_settings":{},
				"ps_scene_data":{}
			},
			"name":"Scene",
			"nodes":[
				0,
				1,
				14,
				15
			]
		}
	],
	"nodes":[
		{
			"extensions":{
				"KHR_lights_punctual":{
					"light":0
				}
			},
			"name":"Light",
			"rotation":[
				-0.28416627645492554,
				0.7269423007965088,
				0.34203392267227173,
				0.5232754945755005
			],
			"translation":[
				0.3915748596191406,
				2.4132134914398193,
				3.0713815689086914
			]
		},
		{
			"camera":0,
			"name":"Camera",
			"rotation":[
				-0.20997299253940582,
				0.3857799470424652,
				0.09062844514846802,
				0.8937962055206299
			],
			"translation":[
				7.358891487121582,
				4.958309173583984,
				6.925790786743164
			]
		},
		{
			"name":"L_arm",
			"rotation":[
				-0.5563709735870361,
				-0.44386982917785645,
				0.4641793370246887,
				0.5272271037101746
			],
			"translation":[
				-1.793143630027771,
				1.7594094276428223,
				-4.275188132396579e-07
			]
		},
		{
			"name":"R_arm",
			"rotation":[
				-0.5563708543777466,
				0.4438697099685669,
				-0.46417948603630066,
				0.5272272229194641
			],
			"scale":[
				1.0000001192092896,
				1,
				1
			],
			"translation":[
				1.793143630027771,
				1.7594094276428223,
				4.275188132396579e-07
			]
		},
		{
			"children":[
				2,
				3
			],
			"name":"torso",
			"rotation":[
				0.04456239193677902,
				-3.1950648588440975e-14,
				1.062450394329062e-08,
				0.9990066289901733
			],
			"scale":[
				1,
				0.9999999403953552,
				0.9999999403953552
			],
			"translation":[
				2.775554649887135e-16,
				0.8054308891296387,
				-2.328293668973913e-10
			]
		},
		{
			"name":"L_foot",
			"rotation":[
				2.311410582933604e-07,
				-3.4941123772114224e-08,
				-0.6866868734359741,
				0.7269533276557922
			],
			"scale":[
				0.9999999403953552,
				0.9999998807907104,
				1
			],
			"translation":[
				-1.3869792780951684e-07,
				2.1184680461883545,
				-2.2356559270519938e-08
			]
		},
		{
			"children":[
				5
			],
			"name":"L_lower_leg",
			"rotation":[
				-1.5253675655912957e-07,
				1.3563362699642312e-07,
				0.658416748046875,
				0.7526536583900452
			],
			"scale":[
				0.9999999403953552,
				0.9999998211860657,
				1
			],
			"translation":[
				-4.4653827302454374e-08,
				2.18340802192688,
				1.4815755378094764e-07
			]
		},
		{
			"children":[
				6
			],
			"name":"L_upper_leg",
			"rotation":[
				-0.6470457911491394,
				-0.28518736362457275,
				0.6470456719398499,
				0.28518739342689514
			],
			"scale":[
				0.9999999403953552,
				0.9999996423721313,
				0.9999996423721313
			],
			"translation":[
				-1.267382264137268,
				7.335438567679375e-08,
				-3.030988864338724e-07
			]
		},
		{
			"name":"R_foot",
			"rotation":[
				2.160477521329085e-07,
				2.0276859302725825e-08,
				0.6866868734359741,
				0.7269533276557922
			],
			"scale":[
				1,
				0.9999999403953552,
				1
			],
			"translation":[
				7.536803536822845e-08,
				2.1184680461883545,
				-1.990679265873041e-08
			]
		},
		{
			"children":[
				8
			],
			"name":"R_lower_leg",
			"rotation":[
				-1.477830267049285e-07,
				-9.10129216435962e-08,
				-0.6584168672561646,
				0.7526535391807556
			],
			"scale":[
				0.9999998211860657,
				0.9999998807907104,
				1
			],
			"translation":[
				-1.173157073708353e-07,
				2.183408260345459,
				5.66076963082196e-08
			]
		},
		{
			"children":[
				9
			],
			"name":"R_upper_leg",
			"rotation":[
				-0.6470456719398499,
				0.2851871848106384,
				-0.6470458507537842,
				0.28518733382225037
			],
			"scale":[
				0.9999999403953552,
				0.9999997019767761,
				0.9999996423721313
			],
			"translation":[
				1.267382264137268,
				7.335438567679375e-08,
				3.0123624128464144e-07
			]
		},
		{
			"children":[
				4,
				7,
				10
			],
			"name":"hips",
			"rotation":[
				-0.0016478372272104025,
				1.1920917586394353e-07,
				-1.964375467844448e-10,
				0.9999986290931702
			],
			"translation":[
				0,
				3.8726980686187744,
				0.0026544334832578897
			]
		},
		{
			"children":[
				11
			],
			"name":"root"
		},
		{
			"mesh":0,
			"name":"Cube.004",
			"skin":0
		},
		{
			"children":[
				13,
				12
			],
			"extras":{
				"booleans":{},
				"ant_landscape":{}
			},
			"name":"Armature"
		},
		{
			"extensions":{
				"KHR_lights_punctual":{
					"light":1
				}
			},
			"name":"Sun",
			"rotation":[
				-0.6783214211463928,
				0.199700266122818,
				-0.199700266122818,
				0.6783213019371033
			]
		}
	],
	"cameras":[
		{
			"name":"Camera",
			"perspective":{
				"aspectRatio":1.7777777777777777,
				"yfov":0.39959652046304894,
				"zfar":100,
				"znear":0.10000000149011612
			},
			"type":"perspective"
		}
	],
	"animations":[
		{
			"channels":[
				{
					"sampler":0,
					"target":{
						"node":12,
						"path":"translation"
					}
				},
				{
					"sampler":1,
					"target":{
						"node":12,
						"path":"rotation"
					}
				},
				{
					"sampler":2,
					"target":{
						"node":12,
						"path":"scale"
					}
				},
				{
					"sampler":3,
					"target":{
						"node":11,
						"path":"translation"
					}
				},
				{
					"sampler":4,
					"target":{
						"node":11,
						"path":"rotation"
					}
				},
				{
					"sampler":5,
					"target":{
						"node":11,
						"path":"scale"
					}
				},
				{
					"sampler":6,
					"target":{
						"node":4,
						"path":"translation"
					}
				},
				{
					"sampler":7,
					"target":{
						"node":4,
						"path":"rotation"
					}
				},
				{
					"sampler":8,
					"target":{
						"node":4,
						"path":"scale"
					}
				},
				{
					"sampler":9,
					"target":{
						"node":2,
						"path":"translation"
					}
				},
				{
					"sampler":10,
					"target":{
						"node":2,
						"path":"rotation"
					}
				},
				{
					"sampler":11,
					"target":{
						"node":2,
						"path":"scale"
					}
				},
				{
					"sampler":12,
					"target":{
						"node":3,
						"path":"translation"
					}
				},
				{
					"sampler":13,
					"target":{
						"node":3,
						"path":"rotation"
					}
				},
				{
					"sampler":14,
					"target":{
						"node":3,
						"path":"scale"
					}
				},
				{
					"sampler":15,
					"target":{
						"node":7,
						"path":"translation"
					}
				},
				{
					"sampler":16,
					"target":{
						"node":7,
						"path":"rotation"
					}
				},
				{
					"sampler":17,
					"target":{
						"node":7,
						"path":"scale"
					}
				},
				{
					"sampler":18,
					"target":{
						"node":6,
						"path":"translation"
					}
				},
				{
					"sampler":19,
					"target":{
						"node":6,
						"path":"rotation"
					}
				},
				{
					"sampler":20,
					"target":{
						"node":6,
						"path":"scale"
					}
				},
				{
					"sampler":21,
					"target":{
						"node":5,
						"path":"translation"
					}
				},
				{
					"sampler":22,
					"target":{
						"node":5,
						"path":"rotation"
					}
				},
				{
					"sampler":23,
					"target":{
						"node":5,
						"path":"scale"
					}
				},
				{
					"sampler":24,
					"target":{
						"node":10,
						"path":"translation"
					}
				},
				{
					"sampler":25,
					"target":{
						"node":10,
						"path":"rotation"
					}
				},
				{
					"sampler":26,
					"target":{
						"node":10,
						"path":"scale"
					}
				},
				{
					"sampler":27,
					"target":{
						"node":9,
						"path":"translation"
					}
				},
				{
					"sampler":28,
					"target":{
						"node":9,
						"path":"rotation"
					}
				},
				{
					"sampler":29,
					"target":{
						"node":9,
						"path":"scale"
					}
				},
				{
					"sampler":30,
					"target":{
						"node":8,
						"path":"translation"
					}
				},
				{
					"sampler":31,
					"target":{
						"node":8,
						"path":"rotation"
					}
				},
				{
					"sampler":32,
					"target":{
						"node":8,
						"path":"scale"
					}
				}
			],
			"name":"walk1",
			"samplers":[
				{
					"input":7,
					"interpolation":"STEP",
					"output":8
				},
				{
					"input":7,
					"interpolation":"STEP",
					"output":9
				},
				{
					"input":7,
					"interpolation":"STEP",
					"output":10
				},
				{
					"input":7,
					"interpolation":"STEP",
					"output":11
				},
				{
					"input":7,
					"interpolation":"STEP",
					"output":12
				},
				{
					"input":7,
					"interpolation":"STEP",
					"output":13
				},
				{
					"input":7,
					"interpolation":"STEP",
					"output":14
				},
				{
					"input":7,
					"interpolation":"STEP",
					"output":15
				},
				{
					"input":7,
					"interpolation":"STEP",
					"output":16
				},
				{
					"input":7,
					"interpolation":"STEP",
					"output":17
				},
				{
					"input":7,
					"interpolation":"STEP",
					"output":18
				},
				{
					"input":7,
					"interpolation":"STEP",
					"output":19
				},
				{
					"input":7,
					"interpolation":"STEP",
					"output":20
				},
				{
					"input":7,
					"interpolation":"STEP",
					"output":21
				},
				{
					"input":7,
					"interpolation":"STEP",
					"output":19
				},
				{
					"input":7,
					"interpolation":"STEP",
					"output":22
				},
				{
					"input":23,
					"interpolation":"LINEAR",
					"output":24
				},
				{
					"input":7,
					"interpolation":"STEP",
					"output":25
				},
				{
					"input":7,
					"interpolation":"STEP",
					"output":26
				},
				{
					"input":23,
					"interpolation":"LINEAR",
					"output":27
				},
				{
					"input":7,
					"interpolation":"STEP",
					"output":28
				},
				{
					"input":7,
					"interpolation":"LINEAR",
					"output":29
				},
				{
					"input":23,
					"interpolation":"LINEAR",
					"output":30
				},
				{
					"input":7,
					"interpolation":"LINEAR",
					"output":31
				},
				{
					"input":7,
					"interpolation":"STEP",
					"output":32
				},
				{
					"input":23,
					"interpolation":"LINEAR",
					"output":33
				},
				{
					"input":7,
					"interpolation":"STEP",
					"output":34
				},
				{
					"input":7,
					"interpolation":"STEP",
					"output":35
				},
				{
					"input":23,
					"interpolation":"LINEAR",
					"output":36
				},
				{
					"input":7,
					"interpolation":"STEP",
					"output":37
				},
				{
					"input":7,
					"interpolation":"LINEAR",
					"output":38
				},
				{
					"input":23,
					"interpolation":"LINEAR",
					"output":39
				},
				{
					"input":7,
					"interpolation":"STEP",
					"output":40
				}
			]
		}
	],
	"materials":[
		{
			"doubleSided":true,
			"extras":{
				"ps_mat_data":{}
			},
			"name":"Material",
			"normalTexture":{
				"index":0
			},
			"pbrMetallicRoughness":{
				"baseColorTexture":{
					"index":1
				},
				"metallicRoughnessTexture":{
					"index":2
				}
			}
		}
	],
	"meshes":[
		{
			"name":"Cube.004",
			"primitives":[
				{
					"attributes":{
						"POSITION":0,
						"NORMAL":1,
						"TEXCOORD_0":2,
						"JOINTS_0":3,
						"WEIGHTS_0":4
					},
					"indices":5,
					"material":0
				}
			]
		}
	],
	"textures":[
		{
			"sampler":0,
			"source":0
		},
		{
			"sampler":0,
			"source":1
		},
		{
			"sampler":0,
			"source":2
		}
	],
	"images":[
		{
			"mimeType":"image/png",
			"name":"normal.png",
			"uri":"../../models/small_mech/normal.png"
		},
		{
			"mimeType":"image/png",
			"name":"base_color.png",
			"uri":"../../models/small_mech/base_color2.png"
		},
		{
			"mimeType":"image/png",
			"name":"roughness.png",
			"uri":"../../models/small_mech/roughness.png"
		}
	],
	"skins":[
		{
			"inverseBindMatrices":6,
			"joints":[
				12,
				11,
				4,
				2,
				3,
				7,
				6,
				5,
				10,
				9,
				8
			],
			"name":"Armature"
		}
	],
	"accessors":[
		{
			"bufferView":0,
			"componentType":5126,
			"count":44545,
			"max":[
				2.1962671279907227,
				8.793578147888184,
				1.972670078277588
			],
			"min":[
				-2.1962671279907227,
				-0.00606536865234375,
				-3.99540114402771
			],
			"type":"VEC3"
		},
		{
			"bufferView":1,
			"componentType":5126,
			"count":44545,
			"type":"VEC3"
		},
		{
			"bufferView":2,
			"componentType":5126,
			"count":44545,
			"type":"VEC2"
		},
		{
			"bufferView":3,
			"componentType":5121,
			"count":44545,
			"type":"VEC4"
		},
		{
			"bufferView":4,
			"componentType":5126,
			"count":44545,
			"type":"VEC4"
		},
		{
			"bufferView":5,
			"componentType":5123,
			"count":84687,
			"type":"SCALAR"
		},
		{
			"bufferView":6,
			"componentType":5126,
			"count":11,
			"type":"MAT4"
		},
		{
			"bufferView":7,
			"componentType":5126,
			"count":2,
			"max":[
				3.3333333333333335
			],
			"min":[
				0.041666666666666664
			],
			"type":"SCALAR"
		},
		{
			"bufferView":8,
			"componentType":5126,
			"count":2,
			"type":"VEC3"
		},
		{
			"bufferView":9,
			"componentType":5126,
			"count":2,
			"type":"VEC4"
		},
		{
			"bufferView":10,
			"componentType":5126,
			"count":2,
			"type":"VEC3"
		},
		{
			"bufferView":11,
			"componentType":5126,
			"count":2,
			"type":"VEC3"
		},
		{
			"bufferView":12,
			"componentType":5126,
			"count":2,
			"type":"VEC4"
		},
		{
			"bufferView":13,
			"componentType":5126,
			"count":2,
			"type":"VEC3"
		},
		{
			"bufferView":14,
			"componentType":5126,
			"count":2,
			"type":"VEC3"
		},
		{
			"bufferView":15,
			"componentType":5126,
			"count":2,
			"type":"VEC4"
		},
		{
			"bufferView":16,
			"componentType":5126,
			"count":2,
			"type":"VEC3"
		},
		{
			"bufferView":17,
			"componentType":5126,
			"count":2,
			"type":"VEC3"
		},
		{
			"bufferView":18,
			"componentType":5126,
			"count":2,
			"type":"VEC4"
		},
		{
			"bufferView":19,
			"componentType":5126,
			"count":2,
			"type":"VEC3"
		},
		{
			"bufferView":20,
			"componentType":5126,
			"count":2,
			"type":"VEC3"
		},
		{
			"bufferView":21,
			"componentType":5126,
			"count":2,
			"type":"VEC4"
		},
		{
			"bufferView":22,
			"componentType":5126,
			"count":2,
			"type":"VEC3"
		},
		{
			"bufferView":23,
			"componentType":5126,
			"count":80,
			"max":[
				3.3333333333333335
			],
			"min":[
				0.041666666666666664
			],
			"type":"SCALAR"
		},
		{
			"bufferView":24,
			"componentType":5126,
			"count":80,
			"type":"VEC4"
		},
		{
			"bufferView":25,
			"componentType":5126,
			"count":2,
			"type":"VEC3"
		},
		{
			"bufferView":26,
			"componentType":5126,
			"count":2,
			"type":"VEC3"
		},
		{
			"bufferView":27,
			"componentType":5126,
			"count":80,
			"type":"VEC4"
		},
		{
			"bufferView":28,
			"componentType":5126,
			"count":2,
			"type":"VEC3"
		},
		{
			"bufferView":29,
			"componentType":5126,
			"count":2,
			"type":"VEC3"
		},
		{
			"bufferView":30,
			"componentType":5126,
			"count":80,
			"type":"VEC4"
		},
		{
			"bufferView":31,
			"componentType":5126,
			"count":2,
			"type":"VEC3"
		},
		{
			"bufferView":32,
			"componentType":5126,
			"count":2,
			"type":"VEC3"
		},
		{
			"bufferView":33,
			"componentType":5126,
			"count":80,
			"type":"VEC4"
		},
		{
			"bufferView":34,
			"componentType":5126,
			"count":2,
			"type":"VEC3"
		},
		{
			"bufferView":35,
			"componentType":5126,
			"count":2,
			"type":"VEC3"
		},
		{
			"bufferView":36,
			"componentType":5126,
			"count":80,
			"type":"VEC4"
		},
		{
			"bufferView":37,
			"componentType":5126,
			"count":2,
			"type":"VEC3"
		},
		{
			"bufferView":38,
			"componentType":5126,
			"count":2,
			"type":"VEC3"
		},
		{
			"bufferView":39,
			"componentType":5126,
			"count":80,
			"type":"VEC4"
		},
		{
			"bufferView":40,
			"componentType":5126,
			"count":2,
			"type":"VEC3"
		}
	],
	"bufferViews":[
		{
			"buffer":0,
			"byteLength":534540,
			"byteOffset":0,
			"target":34962
		},
		{
			"buffer":0,
			"byteLength":534540,
			"byteOffset":534540,
			"target":34962
		},
		{
			"buffer":0,
			"byteLength":356360,
			"byteOffset":1069080,
			"target":34962
		},
		{
			"buffer":0,
			"byteLength":178180,
			"byteOffset":1425440,
			"target":34962
		},
		{
			"buffer":0,
			"byteLength":712720,
			"byteOffset":1603620,
			"target":34962
		},
		{
			"buffer":0,
			"byteLength":169374,
			"byteOffset":2316340,
			"target":34963
		},
		{
			"buffer":0,
			"byteLength":704,
			"byteOffset":2485716
		},
		{
			"buffer":0,
			"byteLength":8,
			"byteOffset":2486420
		},
		{
			"buffer":0,
			"byteLength":24,
			"byteOffset":2486428
		},
		{
			"buffer":0,
			"byteLength":32,
			"byteOffset":2486452
		},
		{
			"buffer":0,
			"byteLength":24,
			"byteOffset":2486484
		},
		{
			"buffer":0,
			"byteLength":24,
			"byteOffset":2486508
		},
		{
			"buffer":0,
			"byteLength":32,
			"byteOffset":2486532
		},
		{
			"buffer":0,
			"byteLength":24,
			"byteOffset":2486564
		},
		{
			"buffer":0,
			"byteLength":24,
			"byteOffset":2486588
		},
		{
			"buffer":0,
			"byteLength":32,
			"byteOffset":2486612
		},
		{
			"buffer":0,
			"byteLength":24,
			"byteOffset":2486644
		},
		{
			"buffer":0,
			"byteLength":24,
			"byteOffset":2486668
		},
		{
			"buffer":0,
			"byteLength":32,
			"byteOffset":2486692
		},
		{
			"buffer":0,
			"byteLength":24,
			"byteOffset":2486724
		},
		{
			"buffer":0,
			"byteLength":24,
			"byteOffset":2486748
		},
		{
			"buffer":0,
			"byteLength":32,
			"byteOffset":2486772
		},
		{
			"buffer":0,
			"byteLength":24,
			"byteOffset":2486804
		},
		{
			"buffer":0,
			"byteLength":320,
			"byteOffset":2486828
		},
		{
			"buffer":0,
			"byteLength":1280,
			"byteOffset":2487148
		},
		{
			"buffer":0,
			"byteLength":24,
			"byteOffset":2488428
		},
		{
			"buffer":0,
			"byteLength":24,
			"byteOffset":2488452
		},
		{
			"buffer":0,
			"byteLength":1280,
			"byteOffset":2488476
		},
		{
			"buffer":0,
			"byteLength":24,
			"byteOffset":2489756
		},
		{
			"buffer":0,
			"byteLength":24,
			"byteOffset":2489780
		},
		{
			"buffer":0,
			"byteLength":1280,
			"byteOffset":2489804
		},
		{
			"buffer":0,
			"byteLength":24,
			"byteOffset":2491084
		},
		{
			"buffer":0,
			"byteLength":24,
			"byteOffset":2491108
		},
		{
			"buffer":0,
			"byteLength":1280,
			"byteOffset":2491132
		},
		{
			"buffer":0,
			"byteLength":24,
			"byteOffset":2492412
		},
		{
			"buffer":0,
			"byteLength":24,
			"byteOffset":2492436
		},
		{
			"buffer":0,
			"byteLength":1280,
			"byteOffset":2492460
		},
		{
			"buffer":0,
			"byteLength":24,
			"byteOffset":2493740
		},
		{
			"buffer":0,
			"byteLength":24,
			"byteOffset":2493764
		},
		{
			"buffer":0,
			"byteLength":1280,
			"byteOffset":2493788
		},
		{
			"buffer":0,
			"byteLength":24,
			"byteOffset":2495068
		}
	],
	"samplers":[
		{
			"magFilter":9729,
			"minFilter":9987
		}
	],
	"buffers":[
		{
			"byteLength":2495092,
			"uri":"small_mech_finished-f722cf2e0f6f462a419c8e40d7e6738d.bin"
		}
	]
}
