{
	"asset":{
		"generator":"Khronos glTF Blender I/O v4.5.47",
		"version":"2.0"
	},
	"scene":0,
	"scenes":[
		{
			"extras":{
				"ps_scene_data":{},
				"univ_settings":{}
			},
			"name":"Scene",
			"nodes":[
				0
			]
		}
	],
	"nodes":[
		{
			"extras":{
				"ant_landscape":{}
			},
			"mesh":0,
			"name":"drone"
		}
	],
	"materials":[
		{
			"doubleSided":true,
			"extras":{
				"ps_mat_data":{}
			},
			"name":"sparrow_drone_mat",
			"normalTexture":{
				"index":0
			},
			"pbrMetallicRoughness":{
				"baseColorTexture":{
					"index":1
				},
				"metallicRoughnessTexture":{
					"index":2
				}
			}
		}
	],
	"meshes":[
		{
			"name":"Cube.001",
			"primitives":[
				{
					"attributes":{
						"POSITION":0,
						"NORMAL":1,
						"TEXCOORD_0":2
					},
					"indices":3,
					"material":0
				}
			]
		}
	],
	"textures":[
		{
			"sampler":0,
			"source":0
		},
		{
			"sampler":0,
			"source":1
		},
		{
			"sampler":0,
			"source":2
		}
	],
	"images":[
		{
			"mimeType":"image/png",
			"name":"normal.png",
			"uri":"../../models/enemies/sparrow_drone/textures/normal.png"
		},
		{
			"mimeType":"image/png",
			"name":"base_color.png",
			"uri":"../../models/enemies/sparrow_drone/textures/base_color.png"
		},
		{
			"mimeType":"image/png",
			"name":"roughness.png",
			"uri":"../../models/enemies/sparrow_drone/textures/roughness.png"
		}
	],
	"accessors":[
		{
			"bufferView":0,
			"componentType":5126,
			"count":1916,
			"max":[
				1.9386074542999268,
				0.8294711112976074,
				4.63295841217041
			],
			"min":[
				-4.2040934562683105,
				-0.7589681148529053,
				-4.63295841217041
			],
			"type":"VEC3"
		},
		{
			"bufferView":1,
			"componentType":5126,
			"count":1916,
			"type":"VEC3"
		},
		{
			"bufferView":2,
			"componentType":5126,
			"count":1916,
			"type":"VEC2"
		},
		{
			"bufferView":3,
			"componentType":5123,
			"count":3876,
			"type":"SCALAR"
		}
	],
	"bufferViews":[
		{
			"buffer":0,
			"byteLength":22992,
			"byteOffset":0,
			"target":34962
		},
		{
			"buffer":0,
			"byteLength":22992,
			"byteOffset":22992,
			"target":34962
		},
		{
			"buffer":0,
			"byteLength":15328,
			"byteOffset":45984,
			"target":34962
		},
		{
			"buffer":0,
			"byteLength":7752,
			"byteOffset":61312,
			"target":34963
		}
	],
	"samplers":[
		{
			"magFilter":9729,
			"minFilter":9987
		}
	],
	"buffers":[
		{
			"byteLength":69064,
			"uri":"Sparrow_drone-794e124fee9538a2833242a479e68453.bin"
		}
	]
}
