{
	"asset":{
		"generator":"Khronos glTF Blender I/O v4.5.47",
		"version":"2.0"
	},
	"scene":0,
	"scenes":[
		{
			"extras":{
				"ps_scene_data":{},
				"univ_settings":{}
			},
			"name":"Scene",
			"nodes":[
				13
			]
		}
	],
	"nodes":[
		{
			"name":"R_wheel_2",
			"rotation":[
				1.1744981520678266e-07,
				-1.174498081013553e-07,
				0.7071067690849304,
				0.7071067690849304
			],
			"scale":[
				0.9999999403953552,
				0.9999999403953552,
				1
			],
			"translation":[
				-0.7693847417831421,
				-8.058547973632812e-05,
				0.85531085729599
			]
		},
		{
			"name":"R_wheel_3",
			"rotation":[
				1.1744981520678266e-07,
				-1.174498081013553e-07,
				0.7071067690849304,
				0.7071067690849304
			],
			"scale":[
				0.9999999403953552,
				0.9999999403953552,
				1
			],
			"translation":[
				-0.7693847417831421,
				-8.058547973632812e-05,
				3.0553109645843506
			]
		},
		{
			"name":"R_wheel_4",
			"rotation":[
				1.1744981520678266e-07,
				-1.174498081013553e-07,
				0.7071067690849304,
				0.7071067690849304
			],
			"scale":[
				0.9999999403953552,
				0.9999999403953552,
				1
			],
			"translation":[
				-0.7693847417831421,
				-8.058547973632812e-05,
				5.255311012268066
			]
		},
		{
			"name":"R_wheel_1",
			"rotation":[
				1.1744981520678266e-07,
				-1.174498081013553e-07,
				0.7071067690849304,
				0.7071067690849304
			],
			"scale":[
				0.9999999403953552,
				0.9999999403953552,
				1
			],
			"translation":[
				-0.7693847417831421,
				0.40263092517852783,
				-2.7167627811431885
			]
		},
		{
			"name":"L_wheel_2",
			"rotation":[
				1.1744981520678266e-07,
				1.174498081013553e-07,
				-0.7071067690849304,
				0.7071067690849304
			],
			"scale":[
				0.9999999403953552,
				0.9999999403953552,
				1
			],
			"translation":[
				0.7693847417831421,
				-8.058547973632812e-05,
				0.85531085729599
			]
		},
		{
			"name":"L_wheel_3",
			"rotation":[
				1.1744981520678266e-07,
				1.174498081013553e-07,
				-0.7071067690849304,
				0.7071067690849304
			],
			"scale":[
				0.9999999403953552,
				0.9999999403953552,
				1
			],
			"translation":[
				0.7693847417831421,
				-8.058547973632812e-05,
				3.0553109645843506
			]
		},
		{
			"name":"L_wheel_4",
			"rotation":[
				1.1744981520678266e-07,
				1.174498081013553e-07,
				-0.7071067690849304,
				0.7071067690849304
			],
			"scale":[
				0.9999999403953552,
				0.9999999403953552,
				1
			],
			"translation":[
				0.7693847417831421,
				-8.058547973632812e-05,
				5.255311012268066
			]
		},
		{
			"name":"L_wheel_1",
			"rotation":[
				1.1744981520678266e-07,
				1.174498081013553e-07,
				-0.7071067690849304,
				0.7071067690849304
			],
			"scale":[
				0.9999999403953552,
				0.9999999403953552,
				1
			],
			"translation":[
				0.7693847417831421,
				0.40263092517852783,
				-2.7167627811431885
			]
		},
		{
			"name":"L_door",
			"rotation":[
				-0.3826834559440613,
				0,
				0,
				0.9238795638084412
			],
			"scale":[
				1,
				0.9999999403953552,
				1
			],
			"translation":[
				-1.4780761003494263,
				2.782724380493164,
				5.4933600425720215
			]
		},
		{
			"name":"R_door",
			"rotation":[
				-0.3826834559440613,
				0,
				0,
				0.9238795638084412
			],
			"scale":[
				1,
				0.9999999403953552,
				1
			],
			"translation":[
				1.4780761003494263,
				2.782724380493164,
				5.4933600425720215
			]
		},
		{
			"children":[
				0,
				1,
				2,
				3,
				4,
				5,
				6,
				7,
				8,
				9
			],
			"name":"root"
		},
		{
			"name":"neutral_bone",
			"rotation":[
				-0.7071067690849304,
				0,
				0,
				0.7071067690849304
			]
		},
		{
			"extras":{
				"ant_landscape":{}
			},
			"mesh":0,
			"name":"truck",
			"skin":0
		},
		{
			"children":[
				12,
				10,
				11
			],
			"name":"Armature"
		}
	],
	"animations":[
		{
			"channels":[
				{
					"sampler":0,
					"target":{
						"node":10,
						"path":"translation"
					}
				},
				{
					"sampler":1,
					"target":{
						"node":10,
						"path":"rotation"
					}
				},
				{
					"sampler":2,
					"target":{
						"node":10,
						"path":"scale"
					}
				},
				{
					"sampler":3,
					"target":{
						"node":0,
						"path":"translation"
					}
				},
				{
					"sampler":4,
					"target":{
						"node":0,
						"path":"rotation"
					}
				},
				{
					"sampler":5,
					"target":{
						"node":0,
						"path":"scale"
					}
				},
				{
					"sampler":6,
					"target":{
						"node":1,
						"path":"translation"
					}
				},
				{
					"sampler":7,
					"target":{
						"node":1,
						"path":"rotation"
					}
				},
				{
					"sampler":8,
					"target":{
						"node":1,
						"path":"scale"
					}
				},
				{
					"sampler":9,
					"target":{
						"node":2,
						"path":"translation"
					}
				},
				{
					"sampler":10,
					"target":{
						"node":2,
						"path":"rotation"
					}
				},
				{
					"sampler":11,
					"target":{
						"node":2,
						"path":"scale"
					}
				},
				{
					"sampler":12,
					"target":{
						"node":3,
						"path":"translation"
					}
				},
				{
					"sampler":13,
					"target":{
						"node":3,
						"path":"rotation"
					}
				},
				{
					"sampler":14,
					"target":{
						"node":3,
						"path":"scale"
					}
				},
				{
					"sampler":15,
					"target":{
						"node":4,
						"path":"translation"
					}
				},
				{
					"sampler":16,
					"target":{
						"node":4,
						"path":"rotation"
					}
				},
				{
					"sampler":17,
					"target":{
						"node":4,
						"path":"scale"
					}
				},
				{
					"sampler":18,
					"target":{
						"node":5,
						"path":"translation"
					}
				},
				{
					"sampler":19,
					"target":{
						"node":5,
						"path":"rotation"
					}
				},
				{
					"sampler":20,
					"target":{
						"node":5,
						"path":"scale"
					}
				},
				{
					"sampler":21,
					"target":{
						"node":6,
						"path":"translation"
					}
				},
				{
					"sampler":22,
					"target":{
						"node":6,
						"path":"rotation"
					}
				},
				{
					"sampler":23,
					"target":{
						"node":6,
						"path":"scale"
					}
				},
				{
					"sampler":24,
					"target":{
						"node":7,
						"path":"translation"
					}
				},
				{
					"sampler":25,
					"target":{
						"node":7,
						"path":"rotation"
					}
				},
				{
					"sampler":26,
					"target":{
						"node":7,
						"path":"scale"
					}
				},
				{
					"sampler":27,
					"target":{
						"node":8,
						"path":"translation"
					}
				},
				{
					"sampler":28,
					"target":{
						"node":8,
						"path":"rotation"
					}
				},
				{
					"sampler":29,
					"target":{
						"node":8,
						"path":"scale"
					}
				},
				{
					"sampler":30,
					"target":{
						"node":9,
						"path":"translation"
					}
				},
				{
					"sampler":31,
					"target":{
						"node":9,
						"path":"rotation"
					}
				},
				{
					"sampler":32,
					"target":{
						"node":9,
						"path":"scale"
					}
				}
			],
			"name":"doors_open",
			"samplers":[
				{
					"input":7,
					"interpolation":"STEP",
					"output":8
				},
				{
					"input":7,
					"interpolation":"STEP",
					"output":9
				},
				{
					"input":7,
					"interpolation":"STEP",
					"output":10
				},
				{
					"input":7,
					"interpolation":"STEP",
					"output":11
				},
				{
					"input":7,
					"interpolation":"STEP",
					"output":12
				},
				{
					"input":7,
					"interpolation":"STEP",
					"output":13
				},
				{
					"input":7,
					"interpolation":"STEP",
					"output":14
				},
				{
					"input":7,
					"interpolation":"STEP",
					"output":12
				},
				{
					"input":7,
					"interpolation":"STEP",
					"output":13
				},
				{
					"input":7,
					"interpolation":"STEP",
					"output":15
				},
				{
					"input":7,
					"interpolation":"STEP",
					"output":12
				},
				{
					"input":7,
					"interpolation":"STEP",
					"output":13
				},
				{
					"input":7,
					"interpolation":"STEP",
					"output":16
				},
				{
					"input":7,
					"interpolation":"STEP",
					"output":12
				},
				{
					"input":7,
					"interpolation":"STEP",
					"output":13
				},
				{
					"input":7,
					"interpolation":"STEP",
					"output":17
				},
				{
					"input":7,
					"interpolation":"STEP",
					"output":18
				},
				{
					"input":7,
					"interpolation":"STEP",
					"output":13
				},
				{
					"input":7,
					"interpolation":"STEP",
					"output":19
				},
				{
					"input":7,
					"interpolation":"STEP",
					"output":18
				},
				{
					"input":7,
					"interpolation":"STEP",
					"output":13
				},
				{
					"input":7,
					"interpolation":"STEP",
					"output":20
				},
				{
					"input":7,
					"interpolation":"STEP",
					"output":18
				},
				{
					"input":7,
					"interpolation":"STEP",
					"output":13
				},
				{
					"input":7,
					"interpolation":"STEP",
					"output":21
				},
				{
					"input":7,
					"interpolation":"STEP",
					"output":18
				},
				{
					"input":7,
					"interpolation":"STEP",
					"output":13
				},
				{
					"input":7,
					"interpolation":"STEP",
					"output":22
				},
				{
					"input":7,
					"interpolation":"STEP",
					"output":23
				},
				{
					"input":7,
					"interpolation":"STEP",
					"output":24
				},
				{
					"input":7,
					"interpolation":"STEP",
					"output":25
				},
				{
					"input":7,
					"interpolation":"STEP",
					"output":26
				},
				{
					"input":7,
					"interpolation":"STEP",
					"output":24
				}
			]
		},
		{
			"channels":[
				{
					"sampler":0,
					"target":{
						"node":10,
						"path":"translation"
					}
				},
				{
					"sampler":1,
					"target":{
						"node":10,
						"path":"rotation"
					}
				},
				{
					"sampler":2,
					"target":{
						"node":10,
						"path":"scale"
					}
				},
				{
					"sampler":3,
					"target":{
						"node":0,
						"path":"translation"
					}
				},
				{
					"sampler":4,
					"target":{
						"node":0,
						"path":"rotation"
					}
				},
				{
					"sampler":5,
					"target":{
						"node":0,
						"path":"scale"
					}
				},
				{
					"sampler":6,
					"target":{
						"node":1,
						"path":"translation"
					}
				},
				{
					"sampler":7,
					"target":{
						"node":1,
						"path":"rotation"
					}
				},
				{
					"sampler":8,
					"target":{
						"node":1,
						"path":"scale"
					}
				},
				{
					"sampler":9,
					"target":{
						"node":2,
						"path":"translation"
					}
				},
				{
					"sampler":10,
					"target":{
						"node":2,
						"path":"rotation"
					}
				},
				{
					"sampler":11,
					"target":{
						"node":2,
						"path":"scale"
					}
				},
				{
					"sampler":12,
					"target":{
						"node":3,
						"path":"translation"
					}
				},
				{
					"sampler":13,
					"target":{
						"node":3,
						"path":"rotation"
					}
				},
				{
					"sampler":14,
					"target":{
						"node":3,
						"path":"scale"
					}
				},
				{
					"sampler":15,
					"target":{
						"node":4,
						"path":"translation"
					}
				},
				{
					"sampler":16,
					"target":{
						"node":4,
						"path":"rotation"
					}
				},
				{
					"sampler":17,
					"target":{
						"node":4,
						"path":"scale"
					}
				},
				{
					"sampler":18,
					"target":{
						"node":5,
						"path":"translation"
					}
				},
				{
					"sampler":19,
					"target":{
						"node":5,
						"path":"rotation"
					}
				},
				{
					"sampler":20,
					"target":{
						"node":5,
						"path":"scale"
					}
				},
				{
					"sampler":21,
					"target":{
						"node":6,
						"path":"translation"
					}
				},
				{
					"sampler":22,
					"target":{
						"node":6,
						"path":"rotation"
					}
				},
				{
					"sampler":23,
					"target":{
						"node":6,
						"path":"scale"
					}
				},
				{
					"sampler":24,
					"target":{
						"node":7,
						"path":"translation"
					}
				},
				{
					"sampler":25,
					"target":{
						"node":7,
						"path":"rotation"
					}
				},
				{
					"sampler":26,
					"target":{
						"node":7,
						"path":"scale"
					}
				},
				{
					"sampler":27,
					"target":{
						"node":8,
						"path":"translation"
					}
				},
				{
					"sampler":28,
					"target":{
						"node":8,
						"path":"rotation"
					}
				},
				{
					"sampler":29,
					"target":{
						"node":8,
						"path":"scale"
					}
				},
				{
					"sampler":30,
					"target":{
						"node":9,
						"path":"translation"
					}
				},
				{
					"sampler":31,
					"target":{
						"node":9,
						"path":"rotation"
					}
				},
				{
					"sampler":32,
					"target":{
						"node":9,
						"path":"scale"
					}
				}
			],
			"name":"idle",
			"samplers":[
				{
					"input":27,
					"interpolation":"STEP",
					"output":8
				},
				{
					"input":27,
					"interpolation":"STEP",
					"output":9
				},
				{
					"input":27,
					"interpolation":"STEP",
					"output":10
				},
				{
					"input":27,
					"interpolation":"STEP",
					"output":11
				},
				{
					"input":27,
					"interpolation":"STEP",
					"output":12
				},
				{
					"input":27,
					"interpolation":"STEP",
					"output":13
				},
				{
					"input":27,
					"interpolation":"STEP",
					"output":14
				},
				{
					"input":27,
					"interpolation":"STEP",
					"output":12
				},
				{
					"input":27,
					"interpolation":"STEP",
					"output":13
				},
				{
					"input":27,
					"interpolation":"STEP",
					"output":15
				},
				{
					"input":27,
					"interpolation":"STEP",
					"output":12
				},
				{
					"input":27,
					"interpolation":"STEP",
					"output":13
				},
				{
					"input":27,
					"interpolation":"STEP",
					"output":16
				},
				{
					"input":27,
					"interpolation":"STEP",
					"output":12
				},
				{
					"input":27,
					"interpolation":"STEP",
					"output":13
				},
				{
					"input":27,
					"interpolation":"STEP",
					"output":17
				},
				{
					"input":27,
					"interpolation":"STEP",
					"output":18
				},
				{
					"input":27,
					"interpolation":"STEP",
					"output":13
				},
				{
					"input":27,
					"interpolation":"STEP",
					"output":19
				},
				{
					"input":27,
					"interpolation":"STEP",
					"output":18
				},
				{
					"input":27,
					"interpolation":"STEP",
					"output":13
				},
				{
					"input":27,
					"interpolation":"STEP",
					"output":20
				},
				{
					"input":27,
					"interpolation":"STEP",
					"output":18
				},
				{
					"input":27,
					"interpolation":"STEP",
					"output":13
				},
				{
					"input":27,
					"interpolation":"STEP",
					"output":21
				},
				{
					"input":27,
					"interpolation":"STEP",
					"output":18
				},
				{
					"input":27,
					"interpolation":"STEP",
					"output":13
				},
				{
					"input":27,
					"interpolation":"STEP",
					"output":22
				},
				{
					"input":27,
					"interpolation":"STEP",
					"output":28
				},
				{
					"input":27,
					"interpolation":"STEP",
					"output":24
				},
				{
					"input":27,
					"interpolation":"STEP",
					"output":25
				},
				{
					"input":27,
					"interpolation":"STEP",
					"output":28
				},
				{
					"input":27,
					"interpolation":"STEP",
					"output":24
				}
			]
		},
		{
			"channels":[
				{
					"sampler":0,
					"target":{
						"node":10,
						"path":"translation"
					}
				},
				{
					"sampler":1,
					"target":{
						"node":10,
						"path":"rotation"
					}
				},
				{
					"sampler":2,
					"target":{
						"node":10,
						"path":"scale"
					}
				},
				{
					"sampler":3,
					"target":{
						"node":0,
						"path":"translation"
					}
				},
				{
					"sampler":4,
					"target":{
						"node":0,
						"path":"rotation"
					}
				},
				{
					"sampler":5,
					"target":{
						"node":0,
						"path":"scale"
					}
				},
				{
					"sampler":6,
					"target":{
						"node":1,
						"path":"translation"
					}
				},
				{
					"sampler":7,
					"target":{
						"node":1,
						"path":"rotation"
					}
				},
				{
					"sampler":8,
					"target":{
						"node":1,
						"path":"scale"
					}
				},
				{
					"sampler":9,
					"target":{
						"node":2,
						"path":"translation"
					}
				},
				{
					"sampler":10,
					"target":{
						"node":2,
						"path":"rotation"
					}
				},
				{
					"sampler":11,
					"target":{
						"node":2,
						"path":"scale"
					}
				},
				{
					"sampler":12,
					"target":{
						"node":3,
						"path":"translation"
					}
				},
				{
					"sampler":13,
					"target":{
						"node":3,
						"path":"rotation"
					}
				},
				{
					"sampler":14,
					"target":{
						"node":3,
						"path":"scale"
					}
				},
				{
					"sampler":15,
					"target":{
						"node":4,
						"path":"translation"
					}
				},
				{
					"sampler":16,
					"target":{
						"node":4,
						"path":"rotation"
					}
				},
				{
					"sampler":17,
					"target":{
						"node":4,
						"path":"scale"
					}
				},
				{
					"sampler":18,
					"target":{
						"node":5,
						"path":"translation"
					}
				},
				{
					"sampler":19,
					"target":{
						"node":5,
						"path":"rotation"
					}
				},
				{
					"sampler":20,
					"target":{
						"node":5,
						"path":"scale"
					}
				},
				{
					"sampler":21,
					"target":{
						"node":6,
						"path":"translation"
					}
				},
				{
					"sampler":22,
					"target":{
						"node":6,
						"path":"rotation"
					}
				},
				{
					"sampler":23,
					"target":{
						"node":6,
						"path":"scale"
					}
				},
				{
					"sampler":24,
					"target":{
						"node":7,
						"path":"translation"
					}
				},
				{
					"sampler":25,
					"target":{
						"node":7,
						"path":"rotation"
					}
				},
				{
					"sampler":26,
					"target":{
						"node":7,
						"path":"scale"
					}
				},
				{
					"sampler":27,
					"target":{
						"node":8,
						"path":"translation"
					}
				},
				{
					"sampler":28,
					"target":{
						"node":8,
						"path":"rotation"
					}
				},
				{
					"sampler":29,
					"target":{
						"node":8,
						"path":"scale"
					}
				},
				{
					"sampler":30,
					"target":{
						"node":9,
						"path":"translation"
					}
				},
				{
					"sampler":31,
					"target":{
						"node":9,
						"path":"rotation"
					}
				},
				{
					"sampler":32,
					"target":{
						"node":9,
						"path":"scale"
					}
				}
			],
			"name":"move_forward",
			"samplers":[
				{
					"input":29,
					"interpolation":"STEP",
					"output":8
				},
				{
					"input":29,
					"interpolation":"STEP",
					"output":9
				},
				{
					"input":29,
					"interpolation":"STEP",
					"output":10
				},
				{
					"input":29,
					"interpolation":"STEP",
					"output":11
				},
				{
					"input":30,
					"interpolation":"LINEAR",
					"output":31
				},
				{
					"input":29,
					"interpolation":"STEP",
					"output":13
				},
				{
					"input":29,
					"interpolation":"STEP",
					"output":14
				},
				{
					"input":30,
					"interpolation":"LINEAR",
					"output":31
				},
				{
					"input":29,
					"interpolation":"STEP",
					"output":13
				},
				{
					"input":29,
					"interpolation":"STEP",
					"output":15
				},
				{
					"input":30,
					"interpolation":"LINEAR",
					"output":31
				},
				{
					"input":29,
					"interpolation":"STEP",
					"output":13
				},
				{
					"input":29,
					"interpolation":"STEP",
					"output":16
				},
				{
					"input":30,
					"interpolation":"LINEAR",
					"output":31
				},
				{
					"input":29,
					"interpolation":"STEP",
					"output":13
				},
				{
					"input":29,
					"interpolation":"STEP",
					"output":17
				},
				{
					"input":30,
					"interpolation":"LINEAR",
					"output":32
				},
				{
					"input":29,
					"interpolation":"STEP",
					"output":13
				},
				{
					"input":29,
					"interpolation":"STEP",
					"output":19
				},
				{
					"input":30,
					"interpolation":"LINEAR",
					"output":32
				},
				{
					"input":29,
					"interpolation":"STEP",
					"output":13
				},
				{
					"input":29,
					"interpolation":"STEP",
					"output":20
				},
				{
					"input":30,
					"interpolation":"LINEAR",
					"output":32
				},
				{
					"input":29,
					"interpolation":"STEP",
					"output":13
				},
				{
					"input":29,
					"interpolation":"STEP",
					"output":21
				},
				{
					"input":30,
					"interpolation":"LINEAR",
					"output":32
				},
				{
					"input":29,
					"interpolation":"STEP",
					"output":13
				},
				{
					"input":29,
					"interpolation":"STEP",
					"output":22
				},
				{
					"input":29,
					"interpolation":"STEP",
					"output":28
				},
				{
					"input":29,
					"interpolation":"STEP",
					"output":24
				},
				{
					"input":29,
					"interpolation":"STEP",
					"output":25
				},
				{
					"input":29,
					"interpolation":"STEP",
					"output":28
				},
				{
					"input":29,
					"interpolation":"STEP",
					"output":24
				}
			]
		},
		{
			"channels":[
				{
					"sampler":0,
					"target":{
						"node":10,
						"path":"translation"
					}
				},
				{
					"sampler":1,
					"target":{
						"node":10,
						"path":"rotation"
					}
				},
				{
					"sampler":2,
					"target":{
						"node":10,
						"path":"scale"
					}
				},
				{
					"sampler":3,
					"target":{
						"node":0,
						"path":"translation"
					}
				},
				{
					"sampler":4,
					"target":{
						"node":0,
						"path":"rotation"
					}
				},
				{
					"sampler":5,
					"target":{
						"node":0,
						"path":"scale"
					}
				},
				{
					"sampler":6,
					"target":{
						"node":1,
						"path":"translation"
					}
				},
				{
					"sampler":7,
					"target":{
						"node":1,
						"path":"rotation"
					}
				},
				{
					"sampler":8,
					"target":{
						"node":1,
						"path":"scale"
					}
				},
				{
					"sampler":9,
					"target":{
						"node":2,
						"path":"translation"
					}
				},
				{
					"sampler":10,
					"target":{
						"node":2,
						"path":"rotation"
					}
				},
				{
					"sampler":11,
					"target":{
						"node":2,
						"path":"scale"
					}
				},
				{
					"sampler":12,
					"target":{
						"node":3,
						"path":"translation"
					}
				},
				{
					"sampler":13,
					"target":{
						"node":3,
						"path":"rotation"
					}
				},
				{
					"sampler":14,
					"target":{
						"node":3,
						"path":"scale"
					}
				},
				{
					"sampler":15,
					"target":{
						"node":4,
						"path":"translation"
					}
				},
				{
					"sampler":16,
					"target":{
						"node":4,
						"path":"rotation"
					}
				},
				{
					"sampler":17,
					"target":{
						"node":4,
						"path":"scale"
					}
				},
				{
					"sampler":18,
					"target":{
						"node":5,
						"path":"translation"
					}
				},
				{
					"sampler":19,
					"target":{
						"node":5,
						"path":"rotation"
					}
				},
				{
					"sampler":20,
					"target":{
						"node":5,
						"path":"scale"
					}
				},
				{
					"sampler":21,
					"target":{
						"node":6,
						"path":"translation"
					}
				},
				{
					"sampler":22,
					"target":{
						"node":6,
						"path":"rotation"
					}
				},
				{
					"sampler":23,
					"target":{
						"node":6,
						"path":"scale"
					}
				},
				{
					"sampler":24,
					"target":{
						"node":7,
						"path":"translation"
					}
				},
				{
					"sampler":25,
					"target":{
						"node":7,
						"path":"rotation"
					}
				},
				{
					"sampler":26,
					"target":{
						"node":7,
						"path":"scale"
					}
				},
				{
					"sampler":27,
					"target":{
						"node":8,
						"path":"translation"
					}
				},
				{
					"sampler":28,
					"target":{
						"node":8,
						"path":"rotation"
					}
				},
				{
					"sampler":29,
					"target":{
						"node":8,
						"path":"scale"
					}
				},
				{
					"sampler":30,
					"target":{
						"node":9,
						"path":"translation"
					}
				},
				{
					"sampler":31,
					"target":{
						"node":9,
						"path":"rotation"
					}
				},
				{
					"sampler":32,
					"target":{
						"node":9,
						"path":"scale"
					}
				}
			],
			"name":"turn_left",
			"samplers":[
				{
					"input":29,
					"interpolation":"STEP",
					"output":8
				},
				{
					"input":29,
					"interpolation":"STEP",
					"output":9
				},
				{
					"input":29,
					"interpolation":"STEP",
					"output":10
				},
				{
					"input":29,
					"interpolation":"STEP",
					"output":11
				},
				{
					"input":30,
					"interpolation":"LINEAR",
					"output":33
				},
				{
					"input":29,
					"interpolation":"STEP",
					"output":13
				},
				{
					"input":29,
					"interpolation":"STEP",
					"output":14
				},
				{
					"input":30,
					"interpolation":"LINEAR",
					"output":33
				},
				{
					"input":29,
					"interpolation":"STEP",
					"output":13
				},
				{
					"input":29,
					"interpolation":"STEP",
					"output":15
				},
				{
					"input":30,
					"interpolation":"LINEAR",
					"output":33
				},
				{
					"input":29,
					"interpolation":"STEP",
					"output":13
				},
				{
					"input":29,
					"interpolation":"STEP",
					"output":16
				},
				{
					"input":30,
					"interpolation":"LINEAR",
					"output":33
				},
				{
					"input":29,
					"interpolation":"STEP",
					"output":13
				},
				{
					"input":29,
					"interpolation":"STEP",
					"output":17
				},
				{
					"input":30,
					"interpolation":"LINEAR",
					"output":34
				},
				{
					"input":29,
					"interpolation":"STEP",
					"output":13
				},
				{
					"input":29,
					"interpolation":"STEP",
					"output":19
				},
				{
					"input":30,
					"interpolation":"LINEAR",
					"output":34
				},
				{
					"input":29,
					"interpolation":"STEP",
					"output":13
				},
				{
					"input":29,
					"interpolation":"STEP",
					"output":20
				},
				{
					"input":30,
					"interpolation":"LINEAR",
					"output":34
				},
				{
					"input":29,
					"interpolation":"STEP",
					"output":13
				},
				{
					"input":29,
					"interpolation":"STEP",
					"output":21
				},
				{
					"input":30,
					"interpolation":"LINEAR",
					"output":34
				},
				{
					"input":29,
					"interpolation":"STEP",
					"output":13
				},
				{
					"input":29,
					"interpolation":"STEP",
					"output":22
				},
				{
					"input":29,
					"interpolation":"STEP",
					"output":28
				},
				{
					"input":29,
					"interpolation":"STEP",
					"output":24
				},
				{
					"input":29,
					"interpolation":"STEP",
					"output":25
				},
				{
					"input":29,
					"interpolation":"STEP",
					"output":28
				},
				{
					"input":29,
					"interpolation":"STEP",
					"output":24
				}
			]
		},
		{
			"channels":[
				{
					"sampler":0,
					"target":{
						"node":10,
						"path":"translation"
					}
				},
				{
					"sampler":1,
					"target":{
						"node":10,
						"path":"rotation"
					}
				},
				{
					"sampler":2,
					"target":{
						"node":10,
						"path":"scale"
					}
				},
				{
					"sampler":3,
					"target":{
						"node":0,
						"path":"translation"
					}
				},
				{
					"sampler":4,
					"target":{
						"node":0,
						"path":"rotation"
					}
				},
				{
					"sampler":5,
					"target":{
						"node":0,
						"path":"scale"
					}
				},
				{
					"sampler":6,
					"target":{
						"node":1,
						"path":"translation"
					}
				},
				{
					"sampler":7,
					"target":{
						"node":1,
						"path":"rotation"
					}
				},
				{
					"sampler":8,
					"target":{
						"node":1,
						"path":"scale"
					}
				},
				{
					"sampler":9,
					"target":{
						"node":2,
						"path":"translation"
					}
				},
				{
					"sampler":10,
					"target":{
						"node":2,
						"path":"rotation"
					}
				},
				{
					"sampler":11,
					"target":{
						"node":2,
						"path":"scale"
					}
				},
				{
					"sampler":12,
					"target":{
						"node":3,
						"path":"translation"
					}
				},
				{
					"sampler":13,
					"target":{
						"node":3,
						"path":"rotation"
					}
				},
				{
					"sampler":14,
					"target":{
						"node":3,
						"path":"scale"
					}
				},
				{
					"sampler":15,
					"target":{
						"node":4,
						"path":"translation"
					}
				},
				{
					"sampler":16,
					"target":{
						"node":4,
						"path":"rotation"
					}
				},
				{
					"sampler":17,
					"target":{
						"node":4,
						"path":"scale"
					}
				},
				{
					"sampler":18,
					"target":{
						"node":5,
						"path":"translation"
					}
				},
				{
					"sampler":19,
					"target":{
						"node":5,
						"path":"rotation"
					}
				},
				{
					"sampler":20,
					"target":{
						"node":5,
						"path":"scale"
					}
				},
				{
					"sampler":21,
					"target":{
						"node":6,
						"path":"translation"
					}
				},
				{
					"sampler":22,
					"target":{
						"node":6,
						"path":"rotation"
					}
				},
				{
					"sampler":23,
					"target":{
						"node":6,
						"path":"scale"
					}
				},
				{
					"sampler":24,
					"target":{
						"node":7,
						"path":"translation"
					}
				},
				{
					"sampler":25,
					"target":{
						"node":7,
						"path":"rotation"
					}
				},
				{
					"sampler":26,
					"target":{
						"node":7,
						"path":"scale"
					}
				},
				{
					"sampler":27,
					"target":{
						"node":8,
						"path":"translation"
					}
				},
				{
					"sampler":28,
					"target":{
						"node":8,
						"path":"rotation"
					}
				},
				{
					"sampler":29,
					"target":{
						"node":8,
						"path":"scale"
					}
				},
				{
					"sampler":30,
					"target":{
						"node":9,
						"path":"translation"
					}
				},
				{
					"sampler":31,
					"target":{
						"node":9,
						"path":"rotation"
					}
				},
				{
					"sampler":32,
					"target":{
						"node":9,
						"path":"scale"
					}
				}
			],
			"name":"turn_right",
			"samplers":[
				{
					"input":29,
					"interpolation":"STEP",
					"output":8
				},
				{
					"input":29,
					"interpolation":"STEP",
					"output":9
				},
				{
					"input":29,
					"interpolation":"STEP",
					"output":10
				},
				{
					"input":29,
					"interpolation":"STEP",
					"output":11
				},
				{
					"input":30,
					"interpolation":"LINEAR",
					"output":35
				},
				{
					"input":29,
					"interpolation":"STEP",
					"output":13
				},
				{
					"input":29,
					"interpolation":"STEP",
					"output":14
				},
				{
					"input":30,
					"interpolation":"LINEAR",
					"output":35
				},
				{
					"input":29,
					"interpolation":"STEP",
					"output":13
				},
				{
					"input":29,
					"interpolation":"STEP",
					"output":15
				},
				{
					"input":30,
					"interpolation":"LINEAR",
					"output":35
				},
				{
					"input":29,
					"interpolation":"STEP",
					"output":13
				},
				{
					"input":29,
					"interpolation":"STEP",
					"output":16
				},
				{
					"input":30,
					"interpolation":"LINEAR",
					"output":35
				},
				{
					"input":29,
					"interpolation":"STEP",
					"output":13
				},
				{
					"input":29,
					"interpolation":"STEP",
					"output":17
				},
				{
					"input":30,
					"interpolation":"LINEAR",
					"output":36
				},
				{
					"input":29,
					"interpolation":"STEP",
					"output":13
				},
				{
					"input":29,
					"interpolation":"STEP",
					"output":19
				},
				{
					"input":30,
					"interpolation":"LINEAR",
					"output":36
				},
				{
					"input":29,
					"interpolation":"STEP",
					"output":13
				},
				{
					"input":29,
					"interpolation":"STEP",
					"output":20
				},
				{
					"input":30,
					"interpolation":"LINEAR",
					"output":36
				},
				{
					"input":29,
					"interpolation":"STEP",
					"output":13
				},
				{
					"input":29,
					"interpolation":"STEP",
					"output":21
				},
				{
					"input":30,
					"interpolation":"LINEAR",
					"output":36
				},
				{
					"input":29,
					"interpolation":"STEP",
					"output":13
				},
				{
					"input":29,
					"interpolation":"STEP",
					"output":22
				},
				{
					"input":29,
					"interpolation":"STEP",
					"output":28
				},
				{
					"input":29,
					"interpolation":"STEP",
					"output":24
				},
				{
					"input":29,
					"interpolation":"STEP",
					"output":25
				},
				{
					"input":29,
					"interpolation":"STEP",
					"output":28
				},
				{
					"input":29,
					"interpolation":"STEP",
					"output":24
				}
			]
		}
	],
	"materials":[
		{
			"doubleSided":true,
			"extras":{
				"ps_mat_data":{}
			},
			"name":"Material",
			"normalTexture":{
				"index":0
			},
			"pbrMetallicRoughness":{
				"baseColorTexture":{
					"index":1
				},
				"metallicRoughnessTexture":{
					"index":2
				}
			}
		}
	],
	"meshes":[
		{
			"name":"Cube.009",
			"primitives":[
				{
					"attributes":{
						"POSITION":0,
						"NORMAL":1,
						"TEXCOORD_0":2,
						"JOINTS_0":3,
						"WEIGHTS_0":4
					},
					"indices":5,
					"material":0
				}
			]
		}
	],
	"textures":[
		{
			"sampler":0,
			"source":0
		},
		{
			"sampler":0,
			"source":1
		},
		{
			"sampler":0,
			"source":2
		}
	],
	"images":[
		{
			"mimeType":"image/png",
			"name":"normal.png",
			"uri":"../../models/spawner/baked_textures/normal.png"
		},
		{
			"mimeType":"image/png",
			"name":"base_color.png",
			"uri":"../../models/spawner/baked_textures/base_color.png"
		},
		{
			"mimeType":"image/png",
			"name":"roughness.png",
			"uri":"../../models/spawner/baked_textures/roughness.png"
		}
	],
	"skins":[
		{
			"inverseBindMatrices":6,
			"joints":[
				10,
				0,
				1,
				2,
				3,
				4,
				5,
				6,
				7,
				8,
				9,
				11
			],
			"name":"Armature"
		}
	],
	"accessors":[
		{
			"bufferView":0,
			"componentType":5126,
			"count":64862,
			"max":[
				2.494161605834961,
				5.534032344818115,
				6.553426742553711
			],
			"min":[
				-2.930335521697998,
				-1.0000001192092896,
				-6.501367568969727
			],
			"type":"VEC3"
		},
		{
			"bufferView":1,
			"componentType":5126,
			"count":64862,
			"type":"VEC3"
		},
		{
			"bufferView":2,
			"componentType":5126,
			"count":64862,
			"type":"VEC2"
		},
		{
			"bufferView":3,
			"componentType":5121,
			"count":64862,
			"type":"VEC4"
		},
		{
			"bufferView":4,
			"componentType":5126,
			"count":64862,
			"type":"VEC4"
		},
		{
			"bufferView":5,
			"componentType":5123,
			"count":127002,
			"type":"SCALAR"
		},
		{
			"bufferView":6,
			"componentType":5126,
			"count":12,
			"type":"MAT4"
		},
		{
			"bufferView":7,
			"componentType":5126,
			"count":2,
			"max":[
				0.8333333333333334
			],
			"min":[
				0
			],
			"type":"SCALAR"
		},
		{
			"bufferView":8,
			"componentType":5126,
			"count":2,
			"type":"VEC3"
		},
		{
			"bufferView":9,
			"componentType":5126,
			"count":2,
			"type":"VEC4"
		},
		{
			"bufferView":10,
			"componentType":5126,
			"count":2,
			"type":"VEC3"
		},
		{
			"bufferView":11,
			"componentType":5126,
			"count":2,
			"type":"VEC3"
		},
		{
			"bufferView":12,
			"componentType":5126,
			"count":2,
			"type":"VEC4"
		},
		{
			"bufferView":13,
			"componentType":5126,
			"count":2,
			"type":"VEC3"
		},
		{
			"bufferView":14,
			"componentType":5126,
			"count":2,
			"type":"VEC3"
		},
		{
			"bufferView":15,
			"componentType":5126,
			"count":2,
			"type":"VEC3"
		},
		{
			"bufferView":16,
			"componentType":5126,
			"count":2,
			"type":"VEC3"
		},
		{
			"bufferView":17,
			"componentType":5126,
			"count":2,
			"type":"VEC3"
		},
		{
			"bufferView":18,
			"componentType":5126,
			"count":2,
			"type":"VEC4"
		},
		{
			"bufferView":19,
			"componentType":5126,
			"count":2,
			"type":"VEC3"
		},
		{
			"bufferView":20,
			"componentType":5126,
			"count":2,
			"type":"VEC3"
		},
		{
			"bufferView":21,
			"componentType":5126,
			"count":2,
			"type":"VEC3"
		},
		{
			"bufferView":22,
			"componentType":5126,
			"count":2,
			"type":"VEC3"
		},
		{
			"bufferView":23,
			"componentType":5126,
			"count":2,
			"type":"VEC4"
		},
		{
			"bufferView":24,
			"componentType":5126,
			"count":2,
			"type":"VEC3"
		},
		{
			"bufferView":25,
			"componentType":5126,
			"count":2,
			"type":"VEC3"
		},
		{
			"bufferView":26,
			"componentType":5126,
			"count":2,
			"type":"VEC4"
		},
		{
			"bufferView":27,
			"componentType":5126,
			"count":2,
			"max":[
				0.625
			],
			"min":[
				0
			],
			"type":"SCALAR"
		},
		{
			"bufferView":28,
			"componentType":5126,
			"count":2,
			"type":"VEC4"
		},
		{
			"bufferView":29,
			"componentType":5126,
			"count":2,
			"max":[
				3.75
			],
			"min":[
				0
			],
			"type":"SCALAR"
		},
		{
			"bufferView":30,
			"componentType":5126,
			"count":91,
			"max":[
				3.75
			],
			"min":[
				0
			],
			"type":"SCALAR"
		},
		{
			"bufferView":31,
			"componentType":5126,
			"count":91,
			"type":"VEC4"
		},
		{
			"bufferView":32,
			"componentType":5126,
			"count":91,
			"type":"VEC4"
		},
		{
			"bufferView":33,
			"componentType":5126,
			"count":91,
			"type":"VEC4"
		},
		{
			"bufferView":34,
			"componentType":5126,
			"count":91,
			"type":"VEC4"
		},
		{
			"bufferView":35,
			"componentType":5126,
			"count":91,
			"type":"VEC4"
		},
		{
			"bufferView":36,
			"componentType":5126,
			"count":91,
			"type":"VEC4"
		}
	],
	"bufferViews":[
		{
			"buffer":0,
			"byteLength":778344,
			"byteOffset":0,
			"target":34962
		},
		{
			"buffer":0,
			"byteLength":778344,
			"byteOffset":778344,
			"target":34962
		},
		{
			"buffer":0,
			"byteLength":518896,
			"byteOffset":1556688,
			"target":34962
		},
		{
			"buffer":0,
			"byteLength":259448,
			"byteOffset":2075584,
			"target":34962
		},
		{
			"buffer":0,
			"byteLength":1037792,
			"byteOffset":2335032,
			"target":34962
		},
		{
			"buffer":0,
			"byteLength":254004,
			"byteOffset":3372824,
			"target":34963
		},
		{
			"buffer":0,
			"byteLength":768,
			"byteOffset":3626828
		},
		{
			"buffer":0,
			"byteLength":8,
			"byteOffset":3627596
		},
		{
			"buffer":0,
			"byteLength":24,
			"byteOffset":3627604
		},
		{
			"buffer":0,
			"byteLength":32,
			"byteOffset":3627628
		},
		{
			"buffer":0,
			"byteLength":24,
			"byteOffset":3627660
		},
		{
			"buffer":0,
			"byteLength":24,
			"byteOffset":3627684
		},
		{
			"buffer":0,
			"byteLength":32,
			"byteOffset":3627708
		},
		{
			"buffer":0,
			"byteLength":24,
			"byteOffset":3627740
		},
		{
			"buffer":0,
			"byteLength":24,
			"byteOffset":3627764
		},
		{
			"buffer":0,
			"byteLength":24,
			"byteOffset":3627788
		},
		{
			"buffer":0,
			"byteLength":24,
			"byteOffset":3627812
		},
		{
			"buffer":0,
			"byteLength":24,
			"byteOffset":3627836
		},
		{
			"buffer":0,
			"byteLength":32,
			"byteOffset":3627860
		},
		{
			"buffer":0,
			"byteLength":24,
			"byteOffset":3627892
		},
		{
			"buffer":0,
			"byteLength":24,
			"byteOffset":3627916
		},
		{
			"buffer":0,
			"byteLength":24,
			"byteOffset":3627940
		},
		{
			"buffer":0,
			"byteLength":24,
			"byteOffset":3627964
		},
		{
			"buffer":0,
			"byteLength":32,
			"byteOffset":3627988
		},
		{
			"buffer":0,
			"byteLength":24,
			"byteOffset":3628020
		},
		{
			"buffer":0,
			"byteLength":24,
			"byteOffset":3628044
		},
		{
			"buffer":0,
			"byteLength":32,
			"byteOffset":3628068
		},
		{
			"buffer":0,
			"byteLength":8,
			"byteOffset":3628100
		},
		{
			"buffer":0,
			"byteLength":32,
			"byteOffset":3628108
		},
		{
			"buffer":0,
			"byteLength":8,
			"byteOffset":3628140
		},
		{
			"buffer":0,
			"byteLength":364,
			"byteOffset":3628148
		},
		{
			"buffer":0,
			"byteLength":1456,
			"byteOffset":3628512
		},
		{
			"buffer":0,
			"byteLength":1456,
			"byteOffset":3629968
		},
		{
			"buffer":0,
			"byteLength":1456,
			"byteOffset":3631424
		},
		{
			"buffer":0,
			"byteLength":1456,
			"byteOffset":3632880
		},
		{
			"buffer":0,
			"byteLength":1456,
			"byteOffset":3634336
		},
		{
			"buffer":0,
			"byteLength":1456,
			"byteOffset":3635792
		}
	],
	"samplers":[
		{
			"magFilter":9729,
			"minFilter":9987
		}
	],
	"buffers":[
		{
			"byteLength":3637248,
			"uri":"spawner_truck_baked-6a603b93c159f5941396ad097245d91f.bin"
		}
	]
}
